<svg xmlns="http://www.w3.org/2000/svg" viewBox="0 0 476.47 573">
  <defs>
    <style>
      .cls-1{fill:#e6e6e6;}.cls-2{fill:#b3b3b3;}
    </style>
  </defs>
  <title>
    anon-author
  </title>
  <g id="Layer_2" data-name="Layer 2">
    <path class="cls-1" d="M0 0h476v573H0z"/>
    <path class="cls-2" d="M476.47 498.9q-5.28-2.73-10.62-5.36c-26.33-13-54-22.57-81.3-33.28-20.12-7.91-39.74-16.7-56.6-30.68-11.53-9.55-19.77-21.13-23.63-35.74a116 116 0 0 1-3.1-18.86c-.66-6.95-.61-13.65 1.49-20.41 2.3-7.41 7.9-12.39 12.59-18 9.89-11.79 15.06-25.66 17.85-40.39 1.56-8.26 4.3-14.47 12.59-17.92 6.21-2.58 10.06-7.72 12.36-14.35a87.92 87.92 0 0 0 3.9-18.7c1.12-9.57.84-19.57-6.43-26.76-2.1-2.08-3.25-3.57-3.79-5.05q.84-8.34.85-17a273.23 273.23 0 0 0-1.52-29.4c-.09-5.48-.36-12.49-1-20.26s-1.38-11.72-2.92-15.92c-2.16-5.86-3.9-6.75-9.74-17.06-4.64-8.18-4.21-8.8-7.79-14.78A103.93 103.93 0 0 0 317.93 83c-8.23-9-16.35-13.37-23.38-17.06-15.61-8.2-28.83-10.59-39.93-12.51a155.39 155.39 0 0 0-32.14-2.27c-10.54.39-18.84.71-29.22 4.55a77.74 77.74 0 0 0-24.35 14.78l-5.84 13.65h-1a62.77 62.77 0 0 0-11.69 1.14c-2 .43-7.2 2.67-16.56 23.88-6.05 13.72-9.08 20.58-10.71 30.7-2.57 15.87-.43 29.63 1 38.66.83 5.34 1.74 9.31 2.48 13.43v4.47a170.34 170.34 0 0 0 .86 17c-3.84 1.51-4.09 1.72-5.88 3.12-3.64 2.85-5.55 6.83-6.85 11.13-2.84 9.39-1.25 18.74.41 28.09 2 11.16 6.76 20.05 18.08 24.48 4.87 1.91 7.39 6.27 8.23 11.5.41 2.54 1 5.05 1.54 7.56a128.1 128.1 0 0 0 7.35 22.34c.52 2 1.09 4 3 5.2a91.71 91.71 0 0 0 10.93 14.28c5.37 5.94 9.38 12.48 10.32 20.7.59 5.2-.21 10.28-.48 15.4a70.36 70.36 0 0 1-5.92 25.23 7.44 7.44 0 0 0-2.25 5.17 4.65 4.65 0 0 0-2.22 3.71 74.44 74.44 0 0 1-8.51 11.12c-9.77 10.38-21.63 17.81-34.15 24.32-16 8.33-32.82 14.71-49.72 20.92a687.18 687.18 0 0 0-65.7 27.59q-2.53 1.24-5 2.52V573h476z"/>
  </g>
</svg>
