<svg id="Layer_1" data-name="Layer 1" xmlns="http://www.w3.org/2000/svg" viewBox="0 0 462 125"><defs><style>.cls-1{fill:#fff;}.cls-2{mask:url(#mask);}.cls-3{fill:#255a84;}</style><mask id="mask" x="-22" y="-41.18" width="484" height="268.22" maskUnits="userSpaceOnUse"><g id="map-header-b"><path id="map-header-a" class="cls-1" d="M0 0h462v125H0z"/></g></mask></defs><title>Artboard 1</title><g class="cls-2"><path class="cls-3" d="M183.46 94.32l-.96 1.31 1.69-.22-.73-1.09zM306.78 95.79l-1.88-3.54-.07-2.06-3.71-1.53-1.71 2.61-1.74.15-.28 1.68-2.43 1.96-.82 7.21-2.27-.24-.43 1.63-2.74-1.1-2.37.54-2.42 4.33-3.56-1.98.14-1.89h-1.91l-2.33-3.17-1.56.78-2.67-1.18-1.21 1.75.35 1.64-2.65 1.52-2.3-.08-7.28 3.23-2.64-2.49-2.09 2.05-3.37 1.37-3.13-2.86-.12-1.07-3.32.53-.84-1.97-1.62 1.25-3.9.75-2.8-.39-1.41.43.82 2.21-1.75 3.73 2.81 1.22.65 2.44 2.42 2.03 1.44 4.03 1.45.27 1.55-1.95 1.01 2.65-.82 2.72.81-.17.44 4.71 1.31 2.34 3.71.41.54 2.16-2.9 3.65-3.16 2.68 2.51 2.19 4.25.87 1.75-1.69 6.44-.15 3.14-1.81.67 4.93-1.4 2.48 1.43.06 1.79 1.21 3.3-2.46 4.36 1.51 2.45-1.43v2.5l1.39-.2.73-1.17v-5.01l-1-2.27 2.31-1.43 5.86 4.01 1.94-.24 3.41 1.98 1.93-1.25-2.17-2.61.41-1.24-2.13-.92-.48-1.37-3.37-1.89.67-3.79-4.81-.22-2.13-2.21-2.35-.16-1.28-2.17.99-2.75-1.61-1.6 3.43-.76.43-1.92 2.43.56 1.41 2.12 1.47-.88 2-2.49 5.56-1.78 1.29-3.75 3.8 1.81 2.19-.65.46-2.07 3.45-1.61-.07-1.42 2.71-1.21-.52-1.42 1.6-1.07 1.05-3.09-1.15-2.2h2.36l-.14-4.86z"/><path class="cls-3" d="M174.35 26.97l-4.09-.52-2.26.64-1.24-2.31-1.07-.08-3.68-3.22-2.47.86-.82-2.27-2.77-1.62 3.1-2.41-3.71-1.89-2.51-3.37-1.58-.79-2.23-3.2-.4.11.45 3.87-1.85 1.31-2.39-1.36-2.4 1.29-1.36-6.71 3.12-4.25-3.81-2.72-.23.03.33.58-.75-.29-.24 1.44-5.6 5.37-.86 3.09-2.01 4.18 1.36 2.73-.32 5.03.77 4.49 1.66 2.93.16 3.6 2.64 2.33.52 2.89-1.07 3.61 1.07 1.97-4.2 2.59.79 4.43 1.67 2.7 2.43 1.21.88 2.75-2.29 1.79 3.52 2.06-4.77 1.72-.32.58 3.89-1.83 4.43.55 2.15-.71 3.02.73-.64 1.41 1.98-.34 3.11 1.79 2.34-.7 3.91 1.91 2.3 6.99-1.75 1.41-.15 2.95-2.68 5.04-.96.83-.5 3.14-5.88 1.29-1.53 2.13 1.6 3.96-.61 3.29-2.69 2.7 1.33 2.96-.54 2.88 2.06 3.48 1.57-1.79 4.99 3.59 2.65-3.78-1.64-2.62h-2.27v-3.68l-1.49-2.74-.37-3.03-1.68-2.59 1.79-3.39 1.96 1.02-.09-3.08 1.71 1.82 1.8-2.14 1.19 2.62-.81 3.86 2.5-1.56-.43 2.16 3.01.17.47-1.72 3.48.13-1.77 2.46.39.65 2.22-1.67 4.85.44-.13-1.47 6.06-3.11 1.93-.1 2.58 4.89-.45.61 7.85-1.47-1.4 4.1 3.16.06 1.38.97.99-.83 1.07-3.79 5.53-.64.9 2.31 3.74.78 1.12 2.09 6.43 2.46.59 2.26 1.6-1.24 6.53.99-.76 2.56.54 2.96-.52 3.46-.77.47 1.84 2.76 2.49 1.35 3.59-.56 1.99-3.39 1.79-3.79-1.06-2.82 2.17-.67-.27-3.52-2.5-1.81-.59-5.99.94-1.42 8.53-5.53 4.17-4.17 1.64 1.57 2.05-2.12 2.07 1.16 1.07-.51-.83-1.44-2.32-1.27-1.96.25-3.58-3.37-1.54-2.97 3.34-1.08-.1-1.29-4.68-1.3 3.51-4.01h3.54l-1.44-1.29-.15-1.98-2.64-.83-2.35-5.52-1.39-2.04-4.01-1.86h-3.31l-.97 2.65-3.27-2.27-6.28-.81-1.7-3.69-3.83.45-5.67-4.04-2.65 1.09-7.24-4.36-.76-1.21-1.52.71-2.7-4.76-2.24-.37-5.63-4.12-1.71-.66-.08 1.7-3.08-1.1-4.09-3.43-2.03 1.54-1.92-2.34z"/><path class="cls-3" d="M240.99 54.92l.36.53 2.18 5.13 2.86.89.17 2.27 3.12 2.79h-5.74l-2.14 2.44 3.8 1.06.22 2.8-2.96.96.95 1.82 3.06 2.84 1.81-.22 2.86 1.56 1.53 2.65-2.54 1.22-1.86-1.04-2.2 2.28-1.66-1.58-3.58 3.57-8.4 5.44-.62.94.51 5.17 2.52 1.81.3 4 2.34.32 3.49-.67 2.47-1.9 1.04 2.44 3.6-.57.19 1.76 2.37 2.16 2.67-1.09 2.56-2.56 2.86 2.7 6.88-3.05 2.25.07 1.75-1-.28-1.34 1.93-2.81 3 1.33 1.9-.95 2.54 3.44h2.49l-.17 2.35 2.09 1.16 2.14-3.84 3.13-.71 1.97.79.36-1.36 2.13.23.75-6.62 2.45-1.98.35-2.09 2.04-.17 1.9-2.89 4.42 1.82.4-.56-1.72-2.3 4-3.07 1.32.49-.37-2.16-4.23-3.6.37-2.94 2.44-2.77 4.77-3.97-1.57-2.69-1.12.2-1.83 3.57-2.15-1.79-4.4 1.67-3.2-.52-.9 1.3-4.7-1.45-.68-2.3-4.93 3.02-7.18-3.31-1.32.62-3.13-1.18-3.15 1.7-2.22-1.74-.54-2.84-1.04-.49-5.13 2.32-2.13-2.05-2.4.16-1.71-2.04-4.88-1.24.17-3.48-1.13-1.86-4.6-.69-3.17-2.17-.94 1.07-2.47.21.18.9 1.13 1.68zM313.05 54.63l2.25-1.79 3.46.31 1.96-2.59-1.77-1.37-.8-2.82 1.5-5.5-.69-2.4-2.99-1.56-3.54 2.34-3.72.82.77 2.79-1.92 5.26-.07 4.18 1.7 1.69 3.86.64zM187.31 162.21l.56-1.72.16-4.41 1.8-2.43v-1.84l1.76-3.32.9.69.54-1.9 1.65-1.81 1.08-3.59 3.3-.38 1.16.94 3.41-1.85 1.94-1.86.32-3.52 2.58-1.64.08-1.89 3.14-1.05.77-2.83-3.07-1.9-1.06-1.59-2.65-.75-1.88 1.26-1.42-2.13 1.62-2.43-1.4-4.08 3.58 1.57 2.56-.7 2.44.74 7.38.38 3.67-2.65.38-.87-2.34-3.51 1.27-.78.43-2.83-.56-3.02.5-1.68-4.94-.74-2.49 1.91-.83-3.25-6.3-2.41-1.08-2-3.81-.79-.82-2.09-4.06.46-.98 3.44-1.83 1.53-1.77-1.23-4.23-.09 1.28-3.77-5.07.96.98 1.46-5.7.72 2.72-3.69L181 89.5l-1.06.06-5.25 2.7.18 1.99-5.68-.5-2.81 2.1-1.33-2.18 1.05-1.47-.76-.03-.47 1.74-5.01-.29.2-.99-2.53 1.58 1.23-5.88-.38-.84-1.5 1.78-.65-.69.07 2.11-2.61-1.34-1.03 1.96 1.47 2.28.39 3.16 1.51 2.7v2.93h1.82l2.29 3.67-3.63 5.18-5.07-3.65-1.89 2.15-2.97-5.02.55-2.94-1.49-3.32 2.96-2.96.5-2.69-1.7-4.21 2.09-2.9 5.58-1.23.45-2.83 1.17-1 2.41-4.6.17-3.19 1.55-1.26-1.94-5.9-3.17-1.55-2.37.72-3.18-1.83-2.54.44-1.32.37-.41 2.12-3.07.25-1.1 1.48-6.93 3.64-1.57.29-2 1.95-4.94 2.39-3.08 3.24-2.92 1.15-1.08 1.95 1.03 4.46 1.37 1.3 4.11 1.35 4.17-.45 3.01-2.07 1.25 5.08-1.29 2.28-2.75-.34-4.91 1.42.22 2.34-1.29.76 2.49 1.61 1.69 3.83-3.33 1.42-1-.7V107l1.42 2.49-2.93 1.96-1.85-2.69-1.75 1.53-1.64-1.09-3.68-.39-1.06-.66-.33 3.04-2.01 1.45-.58 1.8-3.41 1.22-1.46 1.72-2.21-.6-2.03-2.68 1.29-2.46 3.17.87.96-1.51-.92-1.31 1.04-2.16-1.11-2.31 2.4-1.59-1.45-4.08-4.91 1.03-4.54-.63v-4.07l1.75.17.4-1.96-2.21.16-.93 2.63-2.19.5-1.9-1.02.03 1.13 2.37.32-.37 2.56-3.11.32-1.02 1.98 2.15 1.76-1.81 2.9 1.76.38 1.67 4.31-1.14 2.51.32 3.81-2.21 3.64-4.33 2.17-.44 1.49 3.56 1.69-5.28 2.47-2.07.32.42 2.22 1.66 1.58-1.75 3.13-4.03 2.49-1.25.3 3.55 2.78H76.4l-.06 2.06 1.03 2.38-.21 1.88.7.31 3.69-1.72 1.62 1.93.23 3.92 2.97 2.06 3.09.07 2.84 1.29 1.32 2.18 2.83 1.02 3.71.31 5.89-.32 3.82.78 1.54 5.09 3.81-.28 2.74-1.41.39-2.46 1.7-1.29 1.2-3.05 5.94-2.68 1.68.46 1.91-1.3 2.55.18 1.8 1.61v3.41l-1.92.71.56 1.12 3.42.29 5.27-.92 6.23-3.54 1.06 2.46 4.2.58 3.13-.49.3-1.14 5.09-1.43.53-1.15 3.47.47 2.22 2.53 4.27-.63.72.96 2.37-.21 3.35-1.76 4.22 3.52v1.22l3.69.57z"/><path class="cls-3" d="M246.48 137.35l2.49-3.14-.25-.98-3.52-.39-1.68-3-.35-3.77-1.38.29 1.22-4.04-.25-.65-.81 1.03-2.63-.5-1.55-4.31-2.45-2.06-.61-2.28-2.43-1.05-2.01 3.43-4.42.69-2.41-1.31-.39.88-4.18 3.01-7.93-.42-2.22-.66-2.62.71-1.77-.78.8 2.36-1.52 2.28.47.71 1.42-.95 3.47.98 1.15 1.72 3.53 2.18-1.12 4.1-2.99.99-.07 1.72-2.61 1.66-.31 3.4-2.37 2.26-4.07 2.2-1.36-1.1-2.2.25-.96 3.17-1.65 1.81-.88 3.12-1.14-.87-1.07 2.02v1.93l-1.81 2.44-.18 4.31-.52 1.63.09.01-.29.59-.12.38-.05-.01-.85 1.77-2.32 1.39-.71 2.45 1.86 1.42.44 4.42-.85 1.2 1.62-.06v5.8l-3.38 1.65v.81l1.81.23v4.77l-1.68.44.35 1.12 1-.68 3.31 4.24 3.34 2.15-1.23 3.11-2.33 1.76-2.57-2.26-2.49 2.15-2.2 4.62 1.26 2.28-1.25 2.5 1.1 1.7 2.53-.15 3.57 3.79 1.29 3.12 2.95 2.71.79 4.51.65.75 1.59-.97 4.18.53.65-.99 1.68-7.15 3.58-1.79 2.78-3.23 1.08-2.73 2.88-1.09 1.28-4.42-1.06-1.9.08-4.71-2.35-2.35-.08-4.68-3.8-2.8 2.55-4.02 5.6 2.89.86 1.84 1.26-.75 3.98.92v.79l1.29-.87-.27-1.83-1.04.17-3.84-1.52.08-6.8-1.41-2.28v-6.3l2.2.27 1.58-1.72 1.9-3.8 5.47-.51 1.86 1.04 1.64-.88 1.43-3.64.99.29-.43-2.32 2.5-5.92 1.17-.46-.69-2.06 1.61-4.48 6.36-4.53-.34-1.23-.33-.29.21-.18-.36-1.31.94.82 3.24-2.75zM313.45 68.58l-5.41 4.49-2.15 2.45-.26 2.08 4.1 3.48.73 4.28-2.46-.92-2.75 2.12 1.57 2.1-.98 1.34.07 1.98 1.89 3.54.17 6.15h-1.72l.57 1.1-1.3 3.83-1.23.81.58 1.57-2.94 1.3.07 1.41-3.62 1.69-.48 2.17-3.15.93-3.12-1.49-1.07 3.16-5.76 1.84-2 2.44-2.39 1.43-1.73-2.6-1.03-.23-.35 1.54-2.24.5.75.75-1.05 2.91.77 1.29 2.2.15 2.12 2.2 5.57.25-.75 4.23 3.07 1.72.47 1.31 2.58 1.12-.53 1.59 2.54 3.05-2.43 1.58 4.82 2.66.96 2.13 2.15-.92 1.6 2.69 2.41.41 1.2 3 3.31-.82 4.23-3.39 3.3-6.6 1.8 2.32-1.22 2.28 1.06 2.66-.31 2.16.78 1.42 1.53-2.16 1.38.84-.11-1.77 2.39-2.39-.43 5.93.34-.12 2.13-8.61 1.01.15-.39 6.06.99 1.76 1.76-1.97 2.07 1.12.91-.85-1.5-4.2.88-.7.07-3.61-3.48-10.67.52-1.84-1.84-1.99.09-2.42 1.24-1.59-3.69-.69-.58-1.38 1-2.72h-.26l-3.57-3.48.8-4.5 1.85-1.12-.84-4.05.88-1.06-1.36-.82-2.74-.28-5.92-3.03-2.39-3.02 3.15-6.38 1.96 1.26 1.35-2.76v-2.6l3.23-.55 5.07.15.45-1.59-1.83-.34-1.38-2.84-1.19.56-2.88-.54-2.04-2.78-3.09-2.37-1.76.71-1.29-2.99 1.36-4.69 2.32-1.36 1.91-3.94-2.17-.28 1.08 1.87zM388.44 83.48l-.34-1.67-3.66-2.46-.08-1.6-3.35-2.65-4.1 1.73 1.09-7.14-1.07-.3-3.97 1.27-1.51-.69-1.56 2.33-2.3-.85-1.47 2.94-1.91.58-2.97 2.67-.44-2.77-2.51.81-1.16-2.07h-3.15l-4.34 1.38.1-1.54-2.32-.38-3.6 1.25-2.34 2.85-.33 1.73 1.21 2.07-3.07 2.98.44 2 .79-.26 7.84 2.21 6.2-.78 1.39.38 6.83-1.64 4.02.94 8.82-1.57 5.48 1.63 1.13.94 2.57-2.71 3.64-1.61z"/><path class="cls-3" d="M338.13 63.67l-.6-2.92-4.61.33.3-1-3.94-1.16-4.11.89-3.87-2.87-2.54-2.77-3.14-.27-2.3 1.82-4.63-.77-1.35-1.36-.22 1.48 1.79 1.79 1.83 4.74-.92 3.14 1.27-.23 1.05 1.82 1.86-2.21 4.91 2.67 2.57 2.94 2.29-.29-1.99-1.58 1.4-2.16 3.11 2.14.86 3.59 3.49 2.11 2.62.25v-2.96l1.77-.97 2.44-2.58.66-3.61zM136.45 41.95l-.81-1.49 1.12-3.78-.41-2.3-2.25-1.98-2.21 1.5-2.03-1.95-3.31.08-.88-1.51 1.98-2.4-.08-2.24 2.53-1.41 1.62.12-.68-4.05.31-4.88-1.47-2.93 2.21-4.58.89-3.24 5.56-5.32.22-1.31-5.71-2.18-1.29-1.57-.15-2.65L130-9.14l-1.34-2.17-.72-.08.41.51-.37 1.11.07.92v.82l1.11 1.58-.1 4.63-2.88-.56-.12 1.04-2.28 1.32 1.32.5-2.62 3.08-1.81-1.67-.22.82-2.37-.47-.77 2.72.54 2.08-4.82 2.27-2.61-1.82-2.92 1.07-2.27-.81-3.96 4.64-1.28-3.5.98-.9L99 5.83l-1.22.31-2.55-2.17-2.73 1.14-1.33-.52.22.93-.87 1.26L92 6.55l-.19 6.36-.89.38.64 1.18 3.24-1.05 4.03 3.24 4.21-.91 1.88 5.46 1.95 7.02 2.68 3.79 1.73.56 3.36 4.99-1.79.74.84.39-1.75 2.54.69 1.57 2.55.11-.67-2.82.65-1.3 5.33-1.81-.2 2.44 1.02 1.07 1.37-1.62 3.9-2.83 1.64 2.57-.64 7.53 1.36-.66-.59-1.45 4.56.09 3.54-2.18zM424.83 47.42l-1.74 1.68-1.92-.15-3.2 4.2-3.18 1.55-1.97 3.77-1.5-.82-1.04 3.07-2.35 3.64.08 4.41-1.45 2.08-2.96 1.03.14-1.29-5.71 6.6 2.12 2.56v1.37l2.13 1.13 2.57-4.23-.28-2.05 4.28-.64 3.2.7 1.64-.41 4.74-4.45-.41 4.22 1.49.74 1.47-.83 3.43-4.7-.47-3.48 2.18-2.48-2.06-3.23-.58-4.49 1.14-2.82 1.84-.98-1.06-3.53-.57-2.17zM381.7 103.17l-1.58-.47.43-2.73-1.2-1.48-.32 1.77-3.07 1.33-.7 4.07-2.78-1.58-1.38.54-.99 2.31-3.19.07-.2 1.64-1.97 1.81-.88 5.13 1.68 2.5 1.62 5.78.19.22-.22-3.38 2.68 2.21 2.13 3.71 2.65-2.28-1.13-3.15.88-2.14 2.2-2.43-.51-5.42 1.97 2.09 2.17-1.59 1.64.28.64-2.23-.38-5.99-.38-.59z"/><path class="cls-3" d="M381.27 101.97l.81.24 2.25-.27.67 1.69 2.11-1.68 1.87-5.1 1.95 1.95 2.58-.52.98-3.1v-4.72l1.24-.08 2.69-7.96.71-1.14v-1.16l-2.44-2.94 8.43-9.75-.33 2.95 1.13-.38 1.06-1.54-.08-4.39 2.49-3.85 1.35-4.06 1.65.91 1.65-3.15 3.26-1.59 3.4-4.45 2.01.17 1.82-1.76-.02-.07.27-.17.6-.57.04.16 3.16-2.07 1.89-2.93 1.95.71 3.86-1.31 1.2-1.46-.25-.64-1.5 1.23-.5-3.59-2.31-2.89 2.19-4.95-3.05.41-2.59 1.97-3.81.55-13.2 7.27-3.44-.55.19 1.84-5.93 6.72-.16 1.99-2.27 2.13-3.97 1.57-1.54-.65-5.81 1.18-3.5-1.4-9.57 3.42h-1.97l-.65 1.29-2.55-.25-3.1 1.63-3.17.42-1.77-1.07-1.91 1.91-1.52-.53-7.78 1.32-2.37-.08-3.35-1.75-2.95 1.19-1.37 1.78-3.45.57.62 3.04-.75 4.1-2.41 2.55 3.14 4.37-.75 1.83 1 3.6-.11 2.41 1.78-1.73-.99-1.71.45-2.36 2.69-3.27 4.11-1.43 3.49.57-.06.97 3.14-.97h3.83l1.04 1.86 2.85-.92.33 2.1 1.75-1.57 1.7-.52 1.68-3.36 2.41.88 1.59-2.38 1.95.88 3.89-1.24 2.23.64-.95 6.22 2.97-1.26 4.19 3.32.08 1.55 3.57 2.41.6 2.89-4.21 1.85-2.35 2.48 1.79 1.25-2.2 2.52-2.02-.91-1.03 5.89 2.04 2.5-.36 2.3z"/><path class="cls-3" d="M417.15 73.77l-2.96 2.78-2.13.53-3.24-.71-3.11.46.2 1.41-3.26 5.36-2.83-1.5-.5.81-2.84 8.44-.97.07-.02 4-1.07 3.37.14 5.17 1.47.61 3.1-.14 1.27-1.08 1.82 2.14 2.34-1.02 3.49 1.05 3.37.08 1.5.94 1-2.39 1.2-6.09 3.12-7.67 1.15-.92 1.41-5.06-.46-1.72-2.68-1.84 1.24-3.88-1.96-.98.21-2.22z"/><path class="cls-3" d="M395.85 105.6l-2.29-.95-.15-5.31-2.82.57-1.2-1.21-1.43 3.87-3.4 2.72-.89-2.24-.77.09.18.29.41 6.43-.79 2.77v1.56l2.21 5.85-.31 2.25.75 3.67 2.84 4.72 2.12 9.59.19 2.72.33-.23.39-3.11 3.74 2.53 1.56.28.47-3.79 1.99.08.07-3.03-1.32-2.16-.75-5.1 1.46-2.07-.99-2.6 3.11-.53.93-1.79.15-9.39-1.07-1.57-1.61-5.05-3.11.14zM429.67 3.09l-.17 2.45-2.28-.34-.98 2.27-3.2.31-.27 1.74-6.03-1.61-2.97.41-2.52-2.31-1.17 1.5-2.12.71-1.41 1.7 1.48 1.32-3.58 3.13-8.02 5.14-2.86.31-4.1 3.58-.78 2.42-3.8 3.77-2.59 1.6.7.96-1.11 2.79-5.37 3.06-3.71.15-1.5 1.43-5.31-.08-.25 3.18 2.3 1.85 3.72-1.45 2.43 3.47-1.2 2.89 1.52 3.73h1.77l9.76-3.49 3.58 1.43 5.82-1.18 1.44.61 3.49-1.38 1.75-1.69.16-1.94 5.86-6.64-.28-2.72 4.41.71 13.14-7.2 3.65-.54 2.59-1.96 5.13-.69-2.68 6.05 2.09 2.62.29 2.06 1.17-.96 1 2.5-1.78 2.15-4.47 1.52-1.52-.55-1.57 2.42-3.63 2.38.69 2.63 1.01 3.36 1.67-.72 1.36-2.48 1.7-.41 2.71-3.49 1.69-.84 1.7-3.18 2.14-1.62 5.99-1.4 1.14-1.38 3.34-.18 1.88 2.78 2.94 1.26.92-.5-4.18-4.33-1.21-4.16 5.5-6.42 1.61-.14.15-1.26-1.4-1.71.15-2.25-3.28-1.98-2.41 1.04-5.08-4.29-1.71.35-.87 4.4-2.3-5.2 2.47-2.23-.42-1.38-4.02-4.46-2.54 1.77-.91-2.49 2.24-1.49.04-1.04-1.71.59-1.36-2-5.66 1.26zM89.78 3.17l-.06-.23.85.33.29.04.02.08 1.6.62 2.93-1.22 2.63 2.23 1.3-.33 3.07 3.35-1.23 1.14.45 1.22 3.27-3.85 2.6.92 3.06-1.13 2.57 1.79 3.52-1.65-.4-1.54 1.11-3.89 2.35.47.4-1.53 2.28 2.1.99-1.17-1.97-.75 3.69-2.14.19-1.63 2.78.54.06-3.07-.98-1.4-2.68-2.68 2.62-.11.11-.35-.82-1.01-1.9-1.82-.86-4.21-2.22-1.61-.59-1.27-1.28 1.54-2.39-.84-1.24-4.38-2.26-4.77.7-.69-1.01-1.89-4.81-2.62 2.28-3.74 3.18-2.47-.43-.73-5.44 3.57-1.04-1.22-1.16.21.62.95-1.33 2.36-2.25 1.26-2.09-.4-3.18 1.1-4.1 3.04-1.16 1.99 1.64 4.99-1.89 4.54 2.48 1.97-4.94 3.85-1.01-.22-4.6 6.27-3.31 2.8 1.02 1.94.14-.11.55 2.2-1.22 2.19 8.5 1.07zM26.3 98.13l.18 1.79 2.52 1.6-3.88.97-3.05 2.31-3.75-1.46-.43-2.35-6.42 1.5-2.68 2.43-5.45-.85-1.64-1.8-4.6-.53-5.6.09-1.08-1.23-2.15.23-.56 6.08-5.33-.59-4.05 1.81-.33 1.2 2.04 1.95-1.4.67 1.03.2 1.6-1.85 4.17-2.18 3.22-.55.33.95-6.7 3.72.75 2.18-1 1 2.74 2.24v2.53l3.72 3.35 5.96 3.72 7.68 2.33 2.09-1.79 6.37-1.24.66-1.05 2.68 1.15 1.69-3.93 1.49 3.52-3 2.22-3.95 6.2-3.83.16-3.41 2.05-.8-1-2.27 2.19-.94-1.72-.82 1.26-5.64 1.2.08-2.46-3.12-.36-.43 1.33 3.7 5.97 6.88 7.19 6.77 9.13 4.53 4.38 3.28 2.35 4.89 2.22h1.87l.19-.55.71.14 7.9-2.24 11.05-5.04.15-1.91 2.56-2.96.98-2.79-1.71-2.23-2.71.25-.41-2.74 2.78.46-.48-2.25 3.23-1.61.15-2.69 2.96-4.03-.38 3.3 2.19-.32 6.15 1.37-2.9 2.11-1.93-.97-1.22.64-.66 2.53 2.12.33-1.87 4.62.88.39 6.91.41-6.81 4.08-.85 1.51.52 1.82 2.01 1.43-.49 2.37 2.62 3.3.42 3.3-1.09 4.73.73 1.87-1.6.22-1.07 1.47-.63 2.76.32-.11 2.38-.3-.68-1.5 3.88-2.55 1.57 4.06 1.54-1.09 1.18.29.07-3.03 1.77-2.81-1.57-2.06 2.21-1.98 3.05 3.14 2.37-.53 1.96-2.74-.49-3.24-3.01-3.01 2.26-3.39 1.98-.08.75-1.8 4.14-1.36-2.96-.61-3.33.77-1.56-2.68 1.53-.8-.17-3.44 5.64-1.91.19-1.66-1.02-2.34.1-3.28h1.61l-2.89-2.25 3.23-.78 3.59-2.25 1.23-2.21-1.32-1.25-.57-2.98-1.32-2.13-4.39-3.86-2.22-1.4-3.49-.26v-2.93l-4.27-3.95 1.33-2.98-.73-2.18-1.73 1.37-3.09-4.21 1.15-2.47-.63-2.61-.64.07-1.47 2.45-3.46-.64-2.88-2.29-2.07 1.36-.61-2.05-5.52-3.61-1.69.66-6.74-.95-5.09.64-2.96-1.19-1.47 1.41z"/><path class="cls-3" d="M30.86 96.86l4.97-.62 6.61.93 1.93-.75 6.27 4.1.33 1.09 1.55-1 3.25 2.58 2.51.47 1.36-2.27 2.04-.24.93 3.83-1.05 2.25 2.11 2.87 2.04-1.62 1.31 3.94-1.19 2.68 4.06 3.76v2.42l2.8.21 2.53 1.61 4.58 4.04 1.23 1.99 2.19-.33 3.12-1.47-2.4-1.14.81-2.75 4.47-2.24 1.88-3.11-.31-3.74 1.07-2.36-1.32-3.4-2.64-.56 2.11-3.38-2.09-1.71 1.65-3.21 2.86-.3.11-.74-2.2-.31-.12-3.75 3.13 1.66 1.27-.28.96-2.73 4.23-.31-.86 4.18L97.4 97v2.06l3.48.48 5.62-1.17 2.01 5.66-2.32 1.55.94 1.95-1 2.07.96 1.37-1.72 2.73-3.11-.86-.6 1.16 1.43 1.88 1.25.34 1.21-1.43 3.19-1.14.53-1.65 1.91-1.38.46-4.19 2.24 1.38 3.7.4 1.2.79 2.02-1.77 1.93 2.81 1.3-.87-1.09-1.9v-4.66l2.15 1.5 1.86-.78-1.15-2.61-3.63-2.33 2.16-1.28-.24-2.53 5.93-1.72 2.28.28.75-1.33-.8-3.25-2.01 1.38-4.64.5-4.53-1.49-1.77-1.68-1.18-5.13 1.44-2.61 3.05-1.21 3.14-3.25 4.95-2.4 2.02-2.01 1.81-.33 6.51-3.45 1.24-1.66 2.75-.22.38-1.98 1.73-.49.43-.95-1.54-.37-2.09.7-4.37-.55-6.48 3.05 2.04-3.68 3.08-1.11-2.93-1.71 2.91-2.29-.54-1.66-2.29-1.14-1.95-3.21-.79-4.46-2.74-.06.36.91-3.83 1.85.77-8.97-.88-1.36-2.96 2.15-1.98 2.36-2.13-2.23.11-1.34-3.46 1.18-.29.59.9 3.78-4.53-.21-1.19-2.67 1.39-2.02-1.83-.86 2.76-1.15-2.45-3.66-1.73-.55-3-4.3-1.97-7.08-1.57-4.57-3.8.82-3.98-3.2-3.53 1.15-1.56-2.91 1.31-.57.13-4.48-2.61.4 1.96-2.83-.26-1.09-10.38-1.31 1.76-3.15-.08-.32-2.99 2.21-5.74 1.82-2.63 6.86-6.06 9.09-8.68 3.79-2.07 2.28-2.14 5.24-2.89 2.17-1.62 2.14-.76 2.79-5.32 1.26-4.08-.23-8.19 2.31-2.28-1.05-.96-3.68-2.44-1.96-1.53.26-4.28 3.45-1.54 3.49L12 44.97 7.22 48.6l-1.26 2.28-1.04 4.18.43 1.12 4.62 3.13 3.95.16 2.02 1.54-1.1 6.77-1.33 3.4 2.71 5.04 1.29.45 5.01-.09-.17 5.35 3.13 5.65.31 2.52 2.25 5.63 2.82 1.13zM127.13 31l3.13-.08 1.74 1.67 1.62-1.1-.14-3.29-1.45-2.56-1.7-.13-1.71.95.07 2.01-1.78 2.15.22.38zM159.61-14.4l-1.21-1.62-4.49-.33-3.16-1.32-3.75 1.99h-1.46l-2.64 3.12.5.64-1.4 2.54 1.56 5.25-3.06 1.41.1-.01.04-.01 4.99 3.57-3.47 4.71.99 4.92 1.69-.91 2.32 1.32.83-.58-.49-4.15 1.95-.52 2.49 3.57 1.56.78 2.52 3.38 4.93 2.51-3.18 2.47 1.79 1.05.6 1.66 2.08-.71 3.86 3.38 1.29.09 1.12 2.08 1.67-.46 4.71.58 1.54 1.9 1.28-.96-.58-1.57 1.76-3.95 1.6-.45.66-2.67-1.17-2.09 2.84-3.48-.25-2.89 1.9-.96 1.52-2.63 1.41-.42 3.1-3.14 1.6-.83-2.74-1.55-.93-1.32-6.08-2.74-2.81-.29.91-3.13-2.4-1.02-3.37-3.08-3.95.31-3.01-1.75-1.75-1.97-1.37-3.58-1.6-1.54-1.11 1.69-1.11.28 1.79 3.18-2.96.25z"/></g></svg>