<svg id="Layer_1" data-name="Layer 1" xmlns="http://www.w3.org/2000/svg" viewBox="0 0 612 335.52"><defs><style>.cls-1{fill:#154f76;}</style></defs><title>map-homepage-blue-mobile-01</title><path class="cls-1" d="M418.4 281.16l-2.4-4.5-.1-2.7-4.8-1.9-2.1 3.3-2.2.2-.4 2.2-3.1 2.4-1 9.2-2.9-.3-.6 2.1-3.5-1.4-3 .7-3 5.5-4.6-2.5.2-2.5h-2.4l-3-4-2 1-3.4-1.5-1.5 2.2.4 2.1-3.3 2-3-.1-9.2 4.1-3.4-3.2-2.7 2.6-4.2 1.8-4-3.7-.2-1.4-4.2.7-1.1-2.5-2 1.6-5 1-3.5-.5-1.8.5 1 2.8-2.2 4.8 3.5 1.5.9 3.1 3.1 2.6 1.8 5.1 1.8.4 2-2.5 1.3 3.4-1.1 3.4 1.1-.2.5 6 1.7 3 4.7.5.7 2.8-3.7 4.6-.35.3h51.42l-.47-1.4-4.3-2.4.8-4.8-6.1-.3-2.7-2.8-3-.2-1.6-2.7 1.2-3.5-2-2.1 4.4-.9.5-2.5 3.1.7 1.8 2.7 1.9-1.1 2.5-3.2 7.1-2.2 1.6-4.8 4.9 2.3 2.7-.8.6-2.7 4.4-2-.1-1.8 3.5-1.5-.7-1.9 2.1-1.3 1.3-3.9-1.5-2.8h3l-.1-6.2z"/><path class="cls-1" d="M310.1 301.06l2.4 3.5 3.1 1.7 4.6-.7 2.5-4.3 2.3-4.8-1.4-3.6 2.8-.9-.3-4.4-3.2-2.3-.8-7.7 1.2-1.8 10.9-7 5.3-5.3 2.1 2 2.6-2.7 2.6 1.5 1.4-.7-1.1-1.8-2.9-1.6-2.5.3-4.6-4.3-1.9-3.8 4.2-1.4-.1-1.6-6-1.7 4.5-5.1h4.5l-1.8-1.6-.2-2.5-3.4-1.1-3-7-1.7-2.6-5.1-2.4h-4.2l-1.3 3.4-4.1-2.9-8-1-2.2-4.7-4.9.6-7.2-5.2-3.4 1.4-9.2-5.5-.9-1.6-2 .9-3.4-6-2.9-.5-7.1-5.2-2.2-.9-.1 2.2-3.9-1.4-5.2-4.4-2.6 2-2.4-3-5.3-.6-2.8.8-1.6-3-1.4-.1-4.6-4.1-3.2 1.1-1-2.9-3.6-2 4-3.1-4.7-2.4-3.2-4.3-2-1-2.9-4.1-.5.2.6 4.9-2.4 1.7-3-1.8-3.1 1.7-1.7-8.6 4-5.4-4.9-3.4h-.3l.5.8-1-.4-.3 1.8-7.1 6.8-1.1 4-2.6 5.3 1.8 3.5-.4 6.4.9 5.7 2.1 3.7.2 4.6 3.4 3 .7 3.6-1.4 4.6 1.4 2.5-5.4 3.3 1 5.7 2.2 3.4 3 1.5 1.2 3.5-2.9 2.3 4.4 2.6-6.1 2.2-.4.8 5-2.4 5.6.7 2.8-.9 3.8 1-.8 1.8 2.5-.5 4 2.3 3-.9 4.9 2.4 3 8.9-2.3 1.8-.2 3.8-3.4 6.4-1.2 1-.6 4-7.5 1.7-2 2.7 2.1 5-.8 4.2-3.4 3.4 1.7 3.8-.7 3.7 2.6 4.4 2-2.3 6.3 4.6 3.4-4.8-2.1-3.3h-2.8v-4.7l-1.9-3.5-.5-3.9-2.2-3.3 2.3-4.3 2.5 1.3-.1-3.9 2.2 2.3 2.3-2.7 1.5 3.3-1.1 4.9 3.2-1.9-.5 2.7 3.8.2.6-2.2 4.4.2-2.2 3.1.5.9 2.8-2.2 6.2.6-.2-1.9 7.7-3.9 2.5-.2 3.3 6.3-.6.7h.1l-1.7 2.2 2.2-.3v-2l9.4-1.7-1.8 5.2 4 .1 1.8 1.2 1.2-1.1 1.4-4.8 7-.8 1.2 2.9 4.7 1 1.5 2.7 8.1 3.1.8 2.9 2-1.6 8.3 1.3-.9 3.2.7 3.8-.7 4.4-1 .6z"/><path class="cls-1" d="M419.1 251.26l6.1-5-2-3.5-1.5.3-2.3 4.5-2.7-2.3-5.6 2.2-4.1-.7-1.1 1.7-6-1.9-.9-2.9-6.3 3.8-9.1-4.2-1.7.8-4-1.5-4 2.2-2.8-2.2-.7-3.7-1.3-.6-6.5 3-2.7-2.6-3.1.2-2.2-2.6-6.2-1.6.2-4.4-1.4-2.4-5.8-.9-4.1-2.7-1.2 1.3-3.1.3.2 1.1 1.4 2.2.5.6 2.8 6.6 3.6 1.1.2 2.9 4 3.5h-7.3l-2.7 3.2 4.8 1.3.3 3.6-3.8 1.2 1.2 2.3 3.9 3.6 2.3-.3 3.7 2 1.9 3.4-3.2 1.5-2.4-1.3-2.8 2.9-2.1-2-4.5 4.5-10.7 7-.8 1.2.6 6.5 3.2 2.3.4 5.1 3 .4 4.4-.8 3.2-2.4 1.3 3.1 4.6-.7.2 2.2 3 2.7 3.4-1.4 3.3-3.2 3.6 3.4 8.8-3.9 2.8.1 2.3-1.2-.4-1.7 2.5-3.6 3.8 1.7 2.4-1.2 3.2 4.3h3.2l-.2 3 2.6 1.5 2.8-4.9 4-.9 2.5 1 .4-1.7 2.7.3 1-8.4 3.1-2.6.4-2.6 2.6-.2 2.5-3.7 5.6 2.3.5-.7-2.2-2.9 5.1-3.9 1.7.6-.5-2.8-5.4-4.5.5-3.8 3.1-3.5zM419.3 225.76l2.1 2.2 4.9.8 2.9-2.3 4.4.4 2.5-3.3-2.3-1.7-1-3.6 1.9-7-.8-3.1-3.9-1.9-4.5 2.9-4.7 1.1 1 3.5-2.5 6.7v5.3zM134.2 329.66l-2.2 4-2.63 1.6h160.27l.36-4 3.3-2.1.1-2.4 4-1.3.9-3.6-3.9-2.4-1.3-2-3.4-1-2.4 1.6-1.8-2.7 2.1-3.1-1.8-5.2 4.6 2 3.2-.9 3.1 1 9.4.4 4.7-3.3.5-1.1-3-4.5 1.6-1 .5-3.6-.7-3.8.7-2.2-6.3-.9-3.2 2.4-1-4.1-8.1-3.1-1.3-2.5-4.9-1-1-2.7-5.2.6-1.2 4.4-2.4 1.9-2.2-1.6-5.4-.1 1.6-4.8-6.4 1.3 1.2 1.8-7.2.9 3.4-4.7-2.5-4.7H257l-6.7 3.5.2 2.5-7.2-.6-3.6 2.6-1.7-2.7 1.4-1.9h-1l-.6 2.2-6.4-.4.3-1.3-3.2 2.1 1.5-7.5-.5-1.1-1.9 2.3-.8-.9.1 2.7-3.3-1.7-1.3 2.5 1.8 2.9.5 4 2 3.4v3.8h2.3l2.9 4.6-4.6 6.6-6.5-4.6-2.4 2.7-3.8-6.4.7-3.7-1.9-4.2 3.8-3.8.6-3.4-2.1-5.4 2.6-3.7 7.1-1.5.6-3.6 1.5-1.3 3.1-5.9.2-4 1.9-1.6-2.4-7.5-4.1-2-3 .9-4-2.3-3.3.5-1.6.5-.6 2.7-3.9.3-1.4 1.9-8.8 4.6-2 .4-2.5 2.5-6.3 3-3.9 4.2-3.7 1.4-1.4 2.5 1.3 5.7 1.7 1.6 5.3 1.7 5.3-.5 3.8-2.7 1.6 6.5-1.6 2.9-3.5-.4-6.3 1.8.3 2.9-1.7 1 3.2 2.1 2.2 4.8-4.3 1.8-1.3-.9v3.1l1.9 3.2-3.8 2.5-2.3-3.4-2.2 1.9-2.1-1.4-4.7-.5-1.4-.8-.4 3.9-2.5 1.8-.8 2.3-4.3 1.6-1.9 2.1-2.8-.7-2.6-3.4 1.7-3.2 4 1.1 1.2-1.9-1.2-1.6 1.4-2.8-1.4-2.9 3-2.1-1.8-5.1-6.3 1.3-5.7-.8v-5.2l2.2.2.5-2.5-2.8.2-1.2 3.4-2.8.6-2.4-1.3v1.4l3 .4-.4 3.3-4 .4-1.3 2.5 2.8 2.3-2.4 3.7 2.3.4 2.1 5.5-1.4 3.2.4 4.9-2.8 4.6-5.6 2.8-.5 1.9 4.5 2.1-6.7 3.1-2.6.4.5 2.9 2.1 2z"/><path class="cls-1" d="M294.6 327.76l-.1 2.2-3.3 2.1-.3 3.2h49.18l1.52-1.3 3.2-4-.3-1.2-4.5-.5-2.1-3.8-.5-4.8-1.7.4 1.5-5.2-.3-.8-1 1.3-3.4-.6-2-5.5-3.1-2.6-.7-2.9-3.1-1.4-2.6 4.4-5.6.9-3.1-1.7-.5 1.1-5.3 3.9-10.1-.6-2.8-.8-3.4.9-2.2-1 1 3-1.9 2.9.6.9 1.8-1.2 4.4 1.2 1.5 2.2 4.5 2.8-1.5 5.2-3.8 1.3zM189.6 147.46h-.2l.2.2v-.2zM460.3 268.66l1-.4 10 2.8 7.8-1 1.8.5 8.7-2.1 5.1 1.2 11.2-2 7 2.1 1.4 1.2 3.3-3.4 4.7-2.1-.5-2.1-4.6-3.1-.1-2.1-4.3-3.4-5.2 2.3 1.4-9.1-1.4-.4-5 1.6-2-.9-1.9 3-3-1.1-1.8 3.7-2.5.8-3.8 3.4-.5-3.5-3.2 1-1.5-2.7h-4l-5.5 1.8.1-2-2.9-.4-4.6 1.6-3 3.6-.4 2.2 1.5 2.6-3.9 3.8.6 2.6zM442.8 329.76l.7-2.3-2.4-2.6.2-3 1.5-2.1-4.7-.8-.7-1.8 1.3-3.5h-.4l-4.5-4.4 1-5.7 2.4-1.4-1.1-5.2 1.1-1.3-1.7-1.1-3.5-.3-7.5-3.9-3.1-3.8 4-8.1 2.5 1.6 1.7-3.6v-3.2l4.2-.8 6.4.2.6-2-2.3-.4-1.8-3.6-1.5.7-3.7-.7-2.6-3.5-3.9-3.1-2.2.9-1.7-3.8 1.7-5.9 3-1.8 2.4-5-.8-3.5.1-.1 6.3 3.4 3.3 3.7 2.9-.4-2.6-2 1.8-2.7 4 2.7 1.1 4.6 4.4 2.7 3.3.3v-3.8l2.3-1.2 3.1-3.3.8-4.6-.7-3.7-5.9.4.4-1.3-5-1.4-5.3 1.1-4.9-3.7-3.2-3.5-4-.3-2.9 2.3-5.9-1-1.7-1.7-.3 1.9 2.3 2.2 2.3 6.1-1.2 4 1.6-.3 1.4 2.3 1.6 2.8-6.8 5.8-2.8 3.1-.3 2.6 5.2 4.5.9 5.4-3.1-1.2-3.5 2.7 2 2.7-1.2 1.7v2.5l2.4 4.5.3 7.8h-2.2l.7 1.4-1.7 4.9-1.5 1.1.7 1.9-3.7 1.7.1 1.8-4.6 2.2-.6 2.7-4.1 1.2-3.9-1.9-1.4 4-7.3 2.4-2.6 3.1-3 1.8-2.2-3.3-1.3-.3-.5 1.9-2.8.7 1 .9-1.4 3.7 1 1.7 2.8.2 2.7 2.8 7.1.3-1 5.4 3.9 2.2.6 1.6 1.41.6h48.47l-1.78-5.5z"/><path class="cls-1" d="M201.6 212.66l-1-1.9 1.4-4.8-.5-3-2.9-2.5-2.8 1.9-2.6-2.4-4.2.1-1.1-2 2.5-3-.1-2.9 3.3-1.8 2 .2-.9-5.2.4-6.2-1.8-3.7 2.8-5.8 1.1-4.1 7.1-6.8.3-1.7-7.3-2.8-1.6-2-.2-3.3-2.1-1.3-1.7-2.8-.9-.1.5.7-.4 1.4v2.2l1.5 2-.2 5.9-3.6-.7-.2 1.3-2.9 1.7 1.7.6-3.3 3.9-2.3-2.1-.3 1.1-3-.6-1 3.4.7 2.7-6.2 2.8-3.3-2.3-3.7 1.4-2.9-1-5 5.9-1.7-4.5 1.3-1.1-2.5-2.8-1.6.4-3.2-2.7-3.5 1.4-1.7-.7.3 1.2-1.1 1.6 1.9-.3-.3 8.1-1.1.5.8 1.5 4.1-1.3 5.2 4.1 5.3-1.2 2.4 7 2.5 8.9 3.4 4.8 2.2.7 4.3 6.4-2.3.9 1.1.5-2.3 3.3.9 2 3.3.1-.9-3.6.8-1.6 6.8-2.3-.2 3.1 1.3 1.3 1.7-2 5-3.6 2.1 3.2-.9 9.6 1.8-.8-.8-1.9 5.8.1 4.5-2.7zM570.6 226.86l-1.3-4.5-.7-2.8-2.3 2.2-2.4-.2-4.1 5.3-4 2-2.5 4.8-1.9-1.1-1.4 4-2.9 4.6.1 5.6-1.9 2.6-3.8 1.4.2-1.7-7.2 8.4 2.7 3.3v1.7l2.7 1.4 3.2-5.3-.3-2.6 5.4-.9 4.1.9 2.1-.5 6-5.7-.5 5.4 1.9 1 1.9-1.1 4.3-6-.6-4.4 2.8-3.2-2.6-4.1-.8-5.7 1.5-3.6 2.3-1.2zM511.7 301.36l2.1.4.8-2.9-.4-7.6-.5-.7-2-.6.5-3.5-1.5-1.9-.4 2.3-3.9 1.7-.9 5.1-3.6-2-1.7.7-1.3 2.9-4 .1-.3 2.1-2.5 2.3-1.1 6.5 2.1 3.2 2.1 7.4.2.3-.2-4.3 3.4 2.8 2.7 4.7 3.3-2.9-1.4-4 1.1-2.7 2.8-3.1-.6-6.9 2.5 2.6 2.7-2z"/><path class="cls-1" d="M540.9 220.26l-2.9 2.7-5 2-2-.8-7.4 1.5-4.4-1.8-12.2 4.4h-2.5l-.8 1.6-3.3-.3-3.9 2-4 .6-2.3-1.4-2.4 2.4-2-.6-9.9 1.7-3-.2-4.2-2.2-3.8 1.5-1.7 2.3-4.4.7.8 3.9-1 5.2-3.1 3.3 4 5.5-.9 2.3 1.3 4.6-.2 3.1 2.3-2.2-1.3-2.2.6-3 3.4-4.2 5.2-1.8 4.5.8-.1 1.2 4-1.3h4.9l1.3 2.4 3.6-1.2.5 2.7 2.2-2 2.1-.6 2.2-4.3 3 1.1 2.1-3 2.4 1.1 5-1.6 2.8.8-1.2 7.9 3.8-1.5 5.3 4.2.1 1.9 4.6 3.1.7 3.7-5.3 2.3-3 3.2 2.3 1.6-2.8 3.2-2.6-1.2-1.3 7.5 2.6 3.2-.5 2.9 1.1.3 2.8-.3.9 2.1 2.7-2.1 2.3-6.5 2.5 2.5 3.3-.7 1.2-3.9v-6l1.6-.1 3.4-10.1.9-1.5v-1.5l-3.1-3.7 10.8-12.4-.4 3.7 1.4-.4 1.3-2-.1-5.6 3.2-4.9 1.7-5.1 2.1 1.1 2.1-4 4.2-2 4.3-5.7 2.6.2 2.3-2.2v-.1l.3-.2.7-.7.1.2 4-2.7 2.4-3.7 2.5.9 4.9-1.7 1.6-1.8-.4-.8-1.9 1.5-.6-4.5-3-3.7 2.8-6.3-3.8.5-3.3 2.5-4.9.7-16.8 9.3-4.4-.7.3 2.3-7.6 8.6-.2 2.5z"/><path class="cls-1" d="M536.7 263.76l-.6 1-3.6 10.7-1.2.1-.1 5.1-1.3 4.3.1 6.6 1.9.7 3.9-.1 1.7-1.4 2.3 2.7 3-1.3 4.4 1.4 4.3.1 1.9 1.1 1.3-3 1.5-7.7 4-9.8 1.4-1.2 1.8-6.4-.6-2.2-3.4-2.3 1.6-5-2.5-1.2.3-2.8-3.8 3.5-2.7.7-4.1-.9-4 .5.3 1.8-4.2 6.9-3.6-1.9z"/><path class="cls-1" d="M534.1 329.16l-1-6.5 1.9-2.6-1.3-3.3 4-.7 1.2-2.3.1-11.9-1.3-2-2.1-6.4-3.9.2-2.9-1.3-.2-6.7-3.6.7-1.5-1.5-1.9 4.9-4.3 3.5-1.1-2.9-1 .1.2.4.6 8.2-1 3.5v2l2.8 7.4-.4 2.9.9 4.7 3.6 6 2.15 9.7h11.65v-3.3l-1.6-2.8zM611 191.67v-1.98l-1.5-1.83.2-2.8-4.1-2.6-3.1 1.4-6.5-5.5-2.1.4-1.2 5.6-2.9-6.6 3.2-2.8-.6-1.8-5.1-5.6-3.2 2.2-1.2-3.2 2.9-1.9v-1.3l-2.2.8-1.7-2.6-7.2 1.6-.2 3.1-2.9-.4-1.3 2.9-4 .4-.4 2.2-7.6-2-3.8.5-3.2-2.9-1.5 1.9-2.7.9-1.8 2.1 1.9 1.7-4.6 4-10.2 6.5-3.6.4-5.2 4.6-1 3-4.9 4.9-3.3 2 .9 1.2-1.4 3.6-6.8 3.8-4.7.2-1.9 1.9-6.8-.1-.3 4 2.9 2.4 4.7-1.9 3.1 4.4-1.5 3.7 1.9 4.8h2.3l12.4-4.5 4.6 1.8 7.4-1.5 1.8.8 4.4-1.8 2.3-2.1.2-2.5 7.4-8.4-.3-3.5 5.6.9 16.7-9.1 4.6-.7 3.3-2.5 6.6-.9-3.4 7.7 2.6 3.3.4 2.7 1.5-1.3 1.2 3.2-2.2 2.8-5.7 1.9-1.9-.7-2 3.1-4.7 3 .9 3.3 1.3 4.3 2.1-.9 1.8-3.2 2.1-.5 3.5-4.4 2.1-1.1 2.2-4 2.7-2.1 7.6-1.8 1.5-1.7 4.2-.3 2.4 3.6 3.8 1.6 1.1-.7-5.3-5.5-1.5-5.3 7-8.1 1.9-.19zM140.9 142.46l-5.9 8-4.2 3.6 1.3 2.4.2-.1.7 2.8-1.6 2.8 10.9 1.3-.1-.2 1.1.4h.3l.1.1 2 .8 3.7-1.6 3.4 2.9 1.6-.4 3.9 4.2-1.5 1.5.5 1.5 4.2-4.9 3.3 1.2 3.9-1.4 3.3 2.3 4.4-2.2-.5-1.9 1.4-5 3 .6.5-1.9 2.9 2.7 1.3-1.5-2.5-1 4.7-2.7.2-2.1 3.6.7v-3.9l-1.2-1.8-3.4-3.4 3.3-.1.2-.5-1.1-1.3-2.4-2.3-1.1-5.3-2.8-2.1-.8-1.6-1.6 2-3-1.1-1.6-5.6-2.9-6 .9-.9-1.3-2.4-6.1-3.4 2.9-4.7 4-3.2-.5-.9-6.9 4.6-1.4-1.6-1.4.3.8 1.2-1.7 3-2.9 1.6-2.7-.5-4 1.4-5.2 3.8-1.5 2.6 2.1 6.3-2.4 5.8 3.2 2.5-6.3 4.9-1.3-.3zM18.5 332.76l-3.9-.5-.6 1.7.8 1.3h3.62l.08-2.5zM.8 301.66l1.3.3 2.1-2.4 5.3-2.7 4.1-.7.4 1.2-8.5 4.7.9 2.8-1.2 1.3 3.5 2.8v3.2l4.7 4.3 7.6 4.7 9.7 3 2.7-2.3 8.1-1.6.8-1.3 3.5 1.4 2.1-5 1.9 4.5-3.8 2.8-5 7.9-4.9.2-4.4 2.7-1-1.3-2.9 2.8-1.2-2.2-1 1.6-4.32.9h105.6l4.12-2.6 1.6-2.8-1.7-1.6-.7-3.8-1.7-2.7-5.6-4.9-2.8-1.8-4.4-.3v-3.7l-5.5-5 1.7-3.8-.9-2.8-2.2 1.7-4-5.3 1.5-3.2-.8-3.3-.8.1-1.9 3.1-4.4-.8-3.6-2.9-2.7 1.7-.8-2.6-7-4.6-2.1.9-8.6-1.2-6.5.8-3.8-1.5-1.8 1.7.2 2.3 3.2 2.1-4.9 1.2-3.9 2.9-4.8-1.8-.5-3-8.2 1.9-3.4 3.1-6.9-1.1-2.1-2.3-5.9-.7-7.1.2-1.4-1.6-2.7.3-.7 7.7-6.8-.7-5.2 2.3-.4 1.5 2.6 2.5-1.8.8z"/><path class="cls-1" d="M151.1 1.26l-5.7 3.3-3.3-.3-1.2-.5.7.6v2.8l-9.2-1.7-5.7.6.1 1.9-2.7 3.2-6 4.2-2.2.7-.7 2.4.9 2.3-1.3 2 4.5 1.6 5.7-.5.8 4.3 4.6 3.9 6.7 1 .6 2.6-2.1 3.1.5 1.7 3.3.5 4.3 3-2.8 5.7-5.1 1.6-3 5.3-3.3-.1-1 3.3 1.1 2.6.5 6 1.1 2.6.1 10.9-1.1 1.4.4 5.7 3.4 2.5 3.1 1.3 9.9 5.7 4.3-2.4-1.7 6.8 1.4 2.6 5.7.2 5.1 3.3 3-.5 1 1.2 6.4-4.2 1.4-2v-3.2l-2.5-3.8 4.3-.1 4.7-3 1.6-2.2 5.7-1.9 3.8 1.1 4.1 4.2 3.3 2.4 3.8 1.4 7.6-3.2 3 3.8 2.5 5.5 7.4-3.5.2 3.9-1.5 2.1 1.2-.2 4.2-.9 2.4-2 1.2 5 2.3 2.2 2.6-.2.7-2.4 3.4-.3 3.7-3.3.4-1.9-3.1-4.9.9-4.5-7.5-3.4-1.3-2.1-.4-6.2h2.1l-.1-2.3-2-4.8 1.4-2 8.5.1 2-1.9 1-2.9-.8-3.9 3.3-.3.8-2.7 3-2.7 3.7-.7 2.2-4.7-.1-4.1 1.8-2.8-.2-2.7 2-3.1-1.8-1.3-2.1 2.6-2.8-.4-1.6-4-4.7-1.2-.4-3.4-3.9-1.3-.1-1.9-1.9-.7-6.5 1.8-4.4-.4-3 2.7-2.1.4-5.4 3.3-.6 1.7-3.1-.5-1.3 1.8-7.8-.2-1-4.3-1.9-1.5-5-.6-1.4-2-4.4-2.4-.2-4.9-1.4-1.5-4.6-1.4-.7-1.6-2.7-.4-1.5-2.5-3.1-.6-3.4-5.9-3.6-1.9-3.4.3-1-4.2-4-1.9-3.6.5-4.3-2.3-2.5 1.9-2.6-.9zM120.5 313.86l3.2 2 5.9 5.2 1.5 2.5 2.8-.4 4-1.9-3.1-1.5 1.1-3.5 5.6-2.8 2.4-4-.4-4.7 1.4-3-1.7-4.3-3.3-.8 2.6-4.3-2.6-2.1 2.1-4.1 3.6-.4.2-.9-2.8-.4-.2-4.8 4 2.1 1.6-.4 1.2-3.4 5.4-.4-1.1 5.3-2-.2v2.6l4.5.6 7.1-1.5 2.6 7.3-3 1.9 1.2 2.5-1.2 2.6 1.2 1.8-2.2 3.5-4-1.1-.7 1.4 1.8 2.4 1.6.5 1.5-1.9 4.1-1.4.6-2.1 2.5-1.8.6-5.3 2.8 1.8 4.7.5 1.5 1 2.6-2.3 2.5 3.6 1.6-1.1-1.4-2.4v-5.9l2.8 1.9 2.3-1-1.4-3.4-4.6-2.9 2.7-1.6-.3-3.3 7.5-2.2 2.9.4 1-1.7-1-4.1-2.6 1.7-5.9.7-5.7-1.9-2.3-2.2-1.5-6.5 1.8-3.3 3.9-1.6 4-4.1 6.3-3 2.6-2.6 2.3-.4 8.3-4.4 1.6-2.1 3.5-.3.4-2.5 2.2-.6.6-1.3-2-.4-2.6.9-5.6-.7-8.2 3.8 2.6-4.6 3.9-1.4-3.8-2.2 3.7-2.9-.6-2.1-3-1.5-2.4-4.1-1-5.7h-3.5l.4 1.1-4.8 2.4.9-11.4-1.1-1.8-3.8 2.8-2.5 3-2.7-2.9.2-1.7-4.4 1.5-.4.8 1.1 4.8-5.7-.3-1.5-3.4 1.7-2.5-2.3-1.1 3.5-1.5-3.1-4.6-2.2-.7-3.8-5.5-2.5-9-2-5.8-4.9 1-5-4.1-4.5 1.5-2-3.7 1.7-.7.1-5.7-3.3.5 2.5-3.6-.3-1.4-13.2-1.7 2.2-4-.1-.4-3.8 2.8-7.3 2.3-3.4 8.8-7.7 11.5-11 4.8-2.6 3-2.8 6.6-3.6 2.8-2.1 2.7-1 3.5-6.7 1.7-5.2-.3-10.5 2.9-2.9-1.3-1.2-4.7-3.1-2.5-1.9.3-5.5 4.4-1.9 4.4-4 4.2-6.1 4.6-1.6 2.9-1.3 5.4.5 1.4 5.9 4 5 .2 2.6 1.9-1.4 8.6-1.7 4.4 3.5 6.4 1.6.5 6.4-.1-.2 6.8 3.9 7.2.4 3.2 2.9 7.2 3.6 1.4 6.3-.8 8.4 1.2 2.5-.9 8 5.2.4 1.4 1.9-1.3 4.2 3.3 3.2.6 1.7-2.9 2.6-.3 1.2 4.9-1.3 2.8 2.6 3.7 2.6-2.1 1.7 5-1.5 3.4 5.1 4.8v3.1l3.6.3zM189.8 198.66l4-.1 2.2 2.2 2-1.4-.1-4.2-1.9-3.3-2.2-.1-2.1 1.2.1 2.5-2.3 2.8.3.4z"/><path class="cls-1" d="M167.9 115.26l5.3 2.8 1.9 3.6-.9.9 2.5 5.4 1.4 5 1.6.5 2.4-2.8 1.4 3.2 3 2.1 1.1 5.5 2 1.9 2.9.3 1.9 3 2.3 1.5.2 3.7 1.2 1.4 6.1 2.3 1-.5 3.9-1.8-1.8-6.1 1.6-2.9-.7-1 4.4-5.2h2.1l5.1-2.7 4.5 1.9 5.9.4 1.5 1.9 1-.1-1.5-2.8-3.2-1 .7-2.8-1.4-1.8 2.4-2.2-2.7-3.6 1.6-4.5-5.4-6-.1-4.5-1.1-2.1-3.2.8 2.9-4.5v-1.5l-6.8 3.3-3.1-6.7-2.2-2.8-7.2 3-4.5-1.7-3.5-2.5-3.8-4-3.2-.9-4.9 1.7-1.7 2-5 3.2-2.3.1 1.3 2.2.2 4-1.5 2.1 1.3 2.2-4.9 3.7-2 3.4z"/><path class="cls-1" d="M254.6 148.86l-4.3-3.9-5 .4-3.9-2.3-2.2-2.5-1.8-4.5-2-2-1.4 2.2-1.4.3 2.3 4.1-3.8.3-1.5-2.1-5.8-.4-4-1.7-4.7 2.6h-1.9l-3.4 3.9.7.8-1.8 3.3 2 6.7-3.9 1.7h.2l6.3 4.6-4.4 6 1.3 6.2 2.1-1.1 3 1.6 1-.7-.6-5.3 2.5-.6 3.1 4.5 2 1 3.2 4.3 6.3 3.2-4 3.1 2.2 1.4.8 2.1 2.6-.9 5 4.3 1.6.1 1.4 2.6 2.2-.6 5.9.8 2 2.4 1.6-1.2-.7-2 2.2-5 2.1-.6.8-3.4-1.5-2.7 3.6-4.4-.3-3.7 2.4-1.2 2-3.4 1.8-.5 3.9-4 2-1-3.4-2-1.2-1.7-7.8-3.5-3.5-.3 1.1-4-3-1.3z"/></svg>