<?xml version="1.0" encoding="iso-8859-1"?>
<!-- Generator: Adobe Illustrator 21.0.0, SVG Export Plug-In . SVG Version: 6.00 Build 0)  -->
<svg version="1.1" id="Layer_1" xmlns="http://www.w3.org/2000/svg" xmlns:xlink="http://www.w3.org/1999/xlink" x="0px" y="0px"
	 viewBox="0 0 61.125 62.5" style="enable-background:new 0 0 61.125 62.5;" xml:space="preserve">
<path style="fill:#BFBFBF;" d="M51.563,19.676v6.926h7.466 M35.309,4.596l-4.325-4.013l-4.34,4.013 M10.78,19.266l-7.805,7.217
	c0.195,0.074,0.4,0.12,0.618,0.12h7.186v-7.338L10.78,19.266z M50.563,16H39.875V5.596h3V13h7.688 M0.875,28.557V59.97
	l16.854-15.777L0.875,28.55 M2.965,61.932h55.25L42.229,46.154l-22.396-0.01 M44.325,44.214l15.92,15.71v-30.43 M17.438,11.06
	h18.437v3H17.438L17.438,11.06z M17.438,17.523h18.437v3H17.438L17.438,17.523z M17.438,23.986h27.47v3h-27.47V23.986z"/>
<path style="fill:none;" d="M11.782,42.624V5.596h30.702l8.08,8.08v29.688"/>
<path style="fill:#BFBFBF;" d="M51.563,43.364h-3V15.09L41.07,7.596H13.782v35.028h-3V4.596h32.116l8.665,8.665"/>
</svg>
