<svg id="Twitter" data-name="Twitter" xmlns="http://www.w3.org/2000/svg" viewBox="0 0 33 32"><defs><style>.twitter-1{fill:#fff;}</style></defs><title>Twitter</title><path class="twitter-1" d="M16.45 0a15.91 15.91 0 1 0 11.29 4.66A15.94 15.94 0 0 0 16.45 0zM23 13.12v.37a8.9 8.9 0 0 1-9 9A7.91 7.91 0 0 1 9.22 21H10a6.34 6.34 0 0 0 3.92-1.35 3.17 3.17 0 0 1-2.94-2.21h.61a2.09 2.09 0 0 0 .86-.12 2.81 2.81 0 0 1-2.57-2.82l1.47.37A3 3 0 0 1 10 12.26a2.57 2.57 0 0 1 .37-1.72 8.9 8.9 0 0 0 6.5 3.31c0-.24-.12-.49-.12-.74a3.25 3.25 0 0 1 3.19-3.19 3.35 3.35 0 0 1 2.33 1 5.42 5.42 0 0 0 2-.74 3.17 3.17 0 0 1-1.35 1.72 10.22 10.22 0 0 0 1.84-.49A7.6 7.6 0 0 1 23 13.12z"/></svg>