<svg xmlns="http://www.w3.org/2000/svg" viewBox="0 0 48 48"><g data-name="Layer 2"><g data-name="Layer 1"><circle cx="24" cy="24" r="24" fill="#e87415"/><circle cx="24" cy="24" r="17.9" fill="#e87415"/><path d="M24 41.2c-5-3.9-9.8-7.8-13.3-13.3a15.031 15.031 0 0 1-2.8-8.7c.1-5.5 5.5-10 10.2-8.5 1.5.5 2.8 1.7 4.2 2.6.7.5 1.2 1.1 1.8 1.6.6-.6 1.4-1.5 2.2-2.2 3.1-2.7 6.1-3.1 9.3-1.2a9.5 9.5 0 0 1 4.4 9.4 19.128 19.128 0 0 1-4 8.8c-3.4 4.6-7.6 8.1-12 11.5z" fill="#fff"/><path d="M10.2 27.2H6.8a.5.5 0 0 0 0 1h4c0-.1-.1-.1-.1-.2a5.582 5.582 0 0 0-.5-.8zM41.1 27.3h-3.5l-.6.9h4.1a.472.472 0 0 0 .5-.5.458.458 0 0 0-.5-.4z" fill="#fff"/><path d="M29.8 27.3a.758.758 0 0 0-.4.2l-.8 1-2.1-9.8a.458.458 0 0 0-.5-.4.664.664 0 0 0-.5.4l-3 13.5-3-8.5a.55.55 0 0 0-.5-.3c-.2 0-.4.1-.4.3l-1.1 3.5H10c.2.3.3.5.5.8 0 .1.1.1.1.2h7.2c.2 0 .4-.1.4-.3l.8-2.5 3 8.7c.1.2.2.3.4.3a.43.43 0 0 0 .4-.4l2.9-13 1.8 8.7c0 .2.2.3.4.4.2 0 .4 0 .5-.2l1.3-1.6h7l.6-.9-7.5-.1z" fill="#e87415"/></g></g></svg>