<svg xmlns="http://www.w3.org/2000/svg" viewBox="4114.95 -1288.05 7.656 7.656"><defs><style>.externalLink{fill:#e87415;stroke:#e87415;stroke-width:.1px}</style></defs><path class="externalLink" d="M4122.094-1287.917l.382.382-4.045 4.042-.38-.382z"/><path class="externalLink" d="M4122.558-1285.3h-.54v-2.16h-2.16v-.54h2.7zm-1.351 4.856h-5.4a.8.8 0 01-.81-.81v-5.4a.8.8 0 01.81-.81h2.968v.54h-2.965a.255.255 0 00-.27.27v5.4a.255.255 0 00.27.27h5.4a.255.255 0 00.27-.27v-2.968h.54v2.968a.8.8 0 01-.813.81z"/></svg>