<svg xmlns="http://www.w3.org/2000/svg" viewBox="0 0 484 793"><defs><style>.cls-1{fill:#154f76}</style></defs><g id="Layer_2_copy" data-name="Layer 2 copy"><path class="cls-1" d="M469.03 201.85l-3.32 1.5-5.65-9.97-4.82-.83-11.79-8.64-3.66-1.5-.16 3.66-6.48-2.33-8.64-7.31-4.32 3.33-3.99-4.99-8.81-.99-4.65 1.32-2.66-4.98-2.32-.17-7.65-6.81-5.31 1.83-1.66-4.82-5.99-3.32 6.65-5.15-7.81-3.99-5.31-7.14-3.33-1.67-4.82-6.81-.83.34 1 8.14-3.99 2.82-4.98-2.99-5.15 2.83-2.83-14.29 6.65-8.98-8.14-5.64h-.5l.83 1.32-1.66-.66-.5 2.99-11.8 11.3-1.82 6.64-4.32 8.81 2.99 5.81-.67 10.64 1.5 9.47 3.49 6.15.33 7.64 5.65 4.98 1.16 5.99-2.32 7.64 2.32 4.15-8.97 5.48 1.66 9.47 3.66 5.65 4.98 2.49 1.99 5.82-4.81 3.82 7.31 4.32-10.14 3.66-.66 1.33 8.3-3.99 9.31 1.16 4.65-1.49 6.31 1.66-1.33 2.99 4.16-.83 6.64 3.82 4.99-1.5 8.14 3.99 4.98 14.79-3.82 2.99-.33 6.31-5.65 10.64-1.99 1.66-1 6.64-12.46 2.83-3.32 4.48 3.49 8.31-1.33 6.98-5.65 5.65 2.82 6.31-1.16 6.15 4.32 7.31 3.32-3.82 10.47 7.64 5.65-7.97-3.49-5.49h-4.65v-7.81l-3.16-5.81-.83-6.48-3.65-5.48 3.82-7.15 4.15 2.16-.17-6.48 3.66 3.82 3.82-4.48 2.49 5.48-1.83 8.14 5.32-3.15-.83 4.48 6.31.33 1-3.65 7.31.33-3.65 5.15.83 1.5 4.65-3.66 10.3 1-.33-3.16 12.79-6.48 4.16-.33 5.48 10.47-1 1.16.13-.02-2.79 3.67 3.66-.49v-3.34l15.61-2.81-2.98 8.64 6.64.16 2.99 2 2-1.83 2.32-7.98 11.63-1.32 2 4.81 6.82 1.46V212.57l-13.47-8.06-1.5-2.66z"/><path class="cls-1" d="M223.97 400.9l-3.66 6.64-8.47 5.15-2.66.67 7.48 5.81h-7.65v4.49l2.17 4.98-.5 3.99 1.49.67 7.81-3.66 3.32 3.99.5 8.31 6.32 4.48 6.47.17 6.15 2.66 2.66 4.65 5.98 2.16 7.98.66 12.29-.83 8.14 1.66 3.33 10.8 7.97-.5 5.82-2.99.83-5.31 3.65-2.66 2.49-6.48 12.47-5.65 3.65 1 3.99-2.83 5.48.5 3.66 3.32v7.31l-3.99 1.5 1.16 2.33 7.31.49 11.13-1.82 13.13-7.48 2.33 5.15 8.8 1.16 6.65-.99.66-2.33 10.63-2.99 1.17-2.49 7.31.99 4.82 5.32 8.97-1.33 1.49 2 4.99-.34 7.14-3.82 8.98 7.48v2.49l7.8 1.33 1.17-3.65.33-9.31 3.82-5.15v-3.99l3.65-6.98 1.83 1.5 1.17-3.99 3.48-3.82 2.33-7.64 6.98-.83 2.49 1.99 7.15-3.82 4.15-3.99.66-7.47 1.18-.75v-23.35l-1.67-.49-3.99 2.65-2.99-4.48 3.49-5.15-2.99-8.64 7.64 3.32.51-.14v-44.39l-.35-.66-8.14-1.66-1.66-4.49-8.64 1-1.99 7.31-3.99 3.16-3.65-2.66-8.98-.17 2.66-7.97-10.63 2.16 1.99 2.99-11.96 1.49 5.65-7.81-4.15-7.81H428l-11.14 5.82.34 4.15-11.97-.99-5.98 4.32-2.82-4.49 2.32-3.16h-1.66l-.99 3.66-10.64-.67.5-2.16-5.32 3.49 2.5-12.46-.83-1.83-3.16 3.83-1.33-1.5.17 4.49-5.49-2.83-2.16 4.16 2.99 4.81.83 6.65 3.33 5.65v6.31h3.82l4.82 7.65-7.65 10.96-10.79-7.64-3.99 4.48-6.32-10.63 1.17-6.15-3.16-6.98 6.31-6.31 1-5.65-3.49-8.97 4.32-6.15 11.8-2.49.99-5.98 2.5-2.16 5.15-9.8.33-6.65 3.16-2.66-3.99-12.46-6.81-3.32-4.99 1.49-6.64-3.82-5.49.83-2.66.83-.99 4.49-6.48.5-2.33 3.16-14.62 7.64-3.32.66-4.15 4.16-10.47 4.98-6.48 6.98-6.15 2.33-2.33 4.15 2.17 9.47 2.82 2.66 8.81 2.82 8.8-.83 6.31-4.48 2.66 10.8-2.66 4.81-5.81-.66-10.47 2.99.5 4.82-2.82 1.66 5.31 3.49 3.66 7.97-7.15 2.99-2.16-1.49v5.15l3.16 5.32-6.31 4.15-3.82-5.65-3.66 3.16-3.49-2.33-7.81-.83-2.32-1.33-.67 6.48-4.15 2.99-1.33 3.82-7.15 2.66-3.15 3.49-4.65-1.16-4.32-5.65 2.82-5.32 6.65 1.83 1.99-3.16-1.99-2.66 2.32-4.65-2.32-4.82 4.98-3.49-2.99-8.47-10.47 2.16-9.47-1.33v-8.64l3.66.33.83-4.15-4.65.33-2 5.65-4.65 1-3.99-2.16v2.33l4.99.66-.67 5.48-6.64.67-2.16 4.15 4.65 3.82-3.99 6.15 3.82.66 3.49 9.14-2.32 5.32.66 8.14-4.65 7.64-9.31 4.66-.83 3.15 7.48 3.49-11.13 5.15-4.32.67.83 4.81 3.49 3.33z"/><path class="cls-1" d="M436.3 518.7l.83 2.32 2-1.49 6.98 8.97 7.14 4.48-2.66 6.65-4.82 3.65-5.48-4.65-5.32 4.49-4.65 9.8 2.66 4.82-2.66 5.32 2.33 3.48 5.48-.33 7.48 8.14 2.66 6.48 6.31 5.82 1.66 9.47 1.33 1.66 3.49-2.16 8.81 1.16 1.32-2.16 3.49-14.95 7.65-3.82 1.67-1.96v-57.01l-.01-.01.01-.02V412.18l-4.83 4.67-8.64 4.65-2.83-2.33-4.65.5-1.99 6.65-3.49 3.82-1.83 6.65-2.49-1.83-2.33 4.32v3.98l-3.82 5.16-.33 9.13-1 3.49h.17l-.67 1.16-.33.84-1.82 3.82-4.82 2.82-1.67 5.32 3.99 2.99 1 9.3-1.83 2.5 3.49-.17v12.29l-7.31 3.49v1.66l3.99.5v10.14l-3.66 1zM479 378.63l2.99-1.99 2.01.55v-8.42l-.84.23-3.66-1.66 1.66 4.98-3.15 4.82.99 1.49zM316.01 98.18h-.33l.33.33v-.33z"/><path class="cls-1" d="M484 577.11l-.35.4-6.97 3.49-3.66 14.79-.66 1.16 4.32.17 7.32-4.44v-15.57zM351.07 791.84l-6.31-3.32-8.64-.34-3.73 6.32h22.42l-3.74-2.66zm74.77 2.49l2.16-15.12 1.66-4.82-.17-8.14-5.98-10.3-1.99 2.49 3.17 6.98h-2.34l-10.14 5.98-1.49 3.66-5.32-3.16-7.31-1-.66 3.49-6.65 2.83-3.82 4.15-8.48-1.83-7.97 1.33-2.33 1.83-2.32 8.31-4.15 3.49h64.06l.07-.17zM322.16 144.7l4.65-9.64 1.83-6.81 11.8-11.3.5-2.82-12.13-4.65-2.66-3.33-.33-5.48-3.49-2.16-2.83-4.65-1.49-.17.83 1.17-.67 2.32v3.66l2.5 3.32-.34 9.8-5.98-1.16-.33 2.16-4.82 2.82 2.83 1-5.49 6.48-3.82-3.49-.5 1.83-4.98-1-1.66 5.65 1.16 4.49-10.3 4.65-5.48-3.82-6.15 2.32-4.82-1.66-8.31 9.8-2.82-7.47 2.16-1.83-4.15-4.65-2.66.66-5.32-4.48-5.82 2.32-2.82-1.16.5 1.99-1.83 2.66 3.16-.5-.5 13.46-1.83.83 1.33 2.49 6.81-2.16 8.64 6.82 8.81-2 3.99 11.63 4.15 14.79 5.65 7.98 3.65 1.16 7.15 10.63-3.82 1.5 1.83.83-3.83 5.48 1.5 3.32 5.48.17-1.49-5.98 1.33-2.66 11.29-3.82-.33 5.15 2.16 2.16 2.83-3.32 8.3-5.99 3.49 5.32-1.49 15.95 2.99-1.33-1.33-3.15 9.63.16 7.48-4.48-1.66-3.16 2.33-7.97-.83-4.99-4.82-4.15-4.66 3.15-4.31-3.98-6.98.16-1.83-3.32 4.15-4.99-.16-4.81 5.48-2.99 3.32.33-1.49-8.64.66-10.3-2.99-6.15z"/><path class="cls-1" d="M235.1 89.87l-9.8 13.29-6.98 5.98 2.16 3.99.33-.16 1.16 4.65-2.65 4.65 18.11 2.16-.17-.33 1.83.66h.5l.16.17 3.32 1.33 6.15-2.66 5.65 4.82 2.66-.67 6.48 6.98-2.49 2.49.83 2.5 6.98-8.15 5.48 2 6.48-2.33 5.48 3.82 7.31-3.65-.83-3.16 2.33-8.31 4.98 1 .83-3.16 4.82 4.49 2.16-2.49-4.15-1.66 7.81-4.49.33-3.49 5.98 1.17v-6.48l-1.99-3-5.65-5.64 5.48-.17.33-.83-1.83-2.16-3.98-3.82-1.83-8.81-4.65-3.49-1.33-2.66-2.66 3.33-4.98-1.83-2.66-9.31-4.82-9.96 1.49-1.5-2.16-3.99-10.13-5.65 4.82-7.8 6.64-5.32-.83-1.5-11.46 7.65-2.33-2.66-2.32.5 1.32 1.99-2.82 4.99-4.82 2.65-4.48-.83-6.65 2.33-8.64 6.31-2.49 4.32 3.49 10.47-3.99 9.64 5.32 4.15-10.47 8.14-2.16-.5zM2.33 354.38l2.16.5 3.49-3.99 8.8-4.49 6.82-1.16.66 1.99-14.12 7.81 1.49 4.65-1.99 2.16 5.82 4.65v5.32l7.8 7.15 12.63 7.8 16.12 4.99 4.48-3.82 13.46-2.66 1.33-2.16 5.81 2.33 3.49-8.31 3.16 7.48-6.31 4.65-8.31 13.12-8.14.34-7.31 4.48-1.66-2.16-4.82 4.65-1.99-3.65-1.67 2.66-11.96 2.49.17-5.15-6.48-.83-1 2.82 7.81 12.63 14.62 15.28 14.29 19.28 9.63 9.14 6.82 4.98 10.3 4.65h3.99l.49-1.16 1.5.33 16.61-4.65 23.43-10.63.33-4.16 5.32-6.15 2.16-5.98-3.66-4.65-5.81.5-.83-5.82 5.98 1-1-4.82 6.82-3.32.33-5.65 6.14-8.64-.83 6.98 4.66-.67 12.95 3-5.98 4.48-4.15-2.16-2.49 1.33-1.5 5.48 4.49.67-3.99 9.8 2 .83 14.45.83-14.29 8.64-1.83 3.16 1.17 3.82 4.15 2.99-1 4.99 5.49 6.97.99 6.98-2.32 10.14 1.49 3.82-3.32.5-2.33 3.15-1.33 5.82.67-.17 4.98-.66-1.33-3.16 8.14-5.48 3.33 8.64 3.32-2.33 2.49.67.17-6.48 3.66-5.98-3.33-4.32 4.65-4.16 6.48 6.65 4.99-1.17 4.15-5.81-1-6.81-6.31-6.32 4.65-7.14 4.32-.17 1.5-3.82 8.8-2.99-6.31-1.16-6.98 1.49-3.32-5.64 3.16-1.67-.34-7.31 11.97-3.99.33-3.48-2.16-4.99.33-6.81h3.32l-6.14-4.82 6.81-1.66 7.64-4.82 2.66-4.65-2.82-2.66-1.17-6.31-2.82-4.49-9.31-8.14-4.65-2.99-7.31-.5v-6.15l-9.14-8.3 2.83-6.32-1.5-4.65-3.65 2.83-6.65-8.81 2.49-5.32-1.33-5.48-1.32.17-3.16 5.15-7.31-1.33-5.98-4.82-4.49 2.82-1.33-4.31-11.63-7.65-3.49 1.5-14.29-2-10.8 1.33-6.31-2.49-2.99 2.82.33 3.83 5.32 3.48-8.14 2-6.48 4.82-7.98-2.99-.83-4.99-13.62 3.16-5.65 5.15-11.47-1.83-3.48-3.82-9.81-1.16-11.79.33-2.33-2.66-4.48.5-1.17 12.79-11.3-1.16-8.63 3.82-.67 2.49 4.32 4.16-2.99 1.33z"/><path class="cls-1" d="M223.64 5.14l5.15 2.16 16.45 9.47 7.14-3.99-2.82 11.3 2.32 4.32 9.47.33 8.47 5.48 4.99-.83 1.66 2 10.63-6.98 2.33-3.33v-5.31l-4.15-6.32 7.14-.16 7.81-4.99 2.66-3.65 9.47-3.16 6.31 1.83 6.81 6.98 5.49 3.99 6.31 2.32 12.63-5.31 4.98 6.31 4.16 9.14 12.29-5.82.33 6.48-2.49 3.49 1.99-.33 6.98-1.5 3.99-3.32 1.99 8.31 3.82 3.65 4.32-.33 1.17-3.99 5.65-.5 6.14-5.48.67-3.16-5.15-8.14 1.49-7.47-12.46-5.65L387.94 0H217.92l.07.98 5.65 4.16zm-22.43 369.51l5.31 3.32 9.81 8.64 2.49 4.15 4.65-.66 6.65-3.16-5.15-2.49 1.82-5.82 9.31-4.65 3.98-6.64-.66-7.81 2.33-4.99-2.83-7.14-5.48-1.33 4.32-7.14-4.32-3.49 3.49-6.82 5.98-.66.33-1.5-4.65-.66-.33-7.98 6.64 3.49 2.66-.66 2-5.65 8.97-.67-1.83 8.81-3.32-.33v4.32l7.47 1 11.8-2.5 4.32 12.13-4.99 3.16 2 4.15-2 4.32 2 2.99-3.66 5.82-6.64-1.83-1.17 2.33 2.99 3.98 2.66.83 2.49-3.15 6.82-2.33.99-3.49 4.16-2.99 1-8.8 4.65 2.99 7.81.83 2.49 1.66 4.32-3.82 4.15 5.98 2.66-1.83-2.33-3.99v-9.8l4.66 3.16 3.82-1.66-2.33-5.65-7.64-4.82 4.48-2.66-.49-5.48 12.46-3.66 4.81.67 1.67-2.83-1.67-6.81-4.32 2.83-9.8 1.16-9.47-3.16-3.82-3.65-2.49-10.8 2.99-5.49 6.48-2.65 6.65-6.82 10.46-4.98 4.32-4.32 3.82-.66 13.79-7.31 2.66-3.49 5.82-.5.66-4.16 3.66-.99.99-2.16-3.32-.67-4.32 1.5-9.3-1.17-13.63 6.32 4.32-7.64 6.48-2.33-6.31-3.66 6.15-4.81-1-3.49-4.98-2.49-3.99-6.82-1.66-9.47h-5.82l.66 1.83-7.97 3.99 1.5-18.94-1.83-2.99-6.32 4.65-4.15 4.98-4.49-4.82.34-2.82-7.31 2.49-.67 1.33 1.83 7.98-9.47-.5-2.49-5.65 2.82-4.15-3.82-1.83 5.82-2.49-5.16-7.65-3.65-1.16-6.31-9.14-4.16-14.95-3.32-9.64-8.14 1.66-8.31-6.81-7.48 2.49-3.32-6.14 2.83-1.17.16-9.47-5.48.83 4.15-5.98-.5-2.32-21.93-2.83 3.66-6.64-.17-.67-6.31 4.65-12.13 3.82-5.65 14.63-12.79 19.1-18.28 7.98-4.32 4.98-4.65 10.97-5.98 4.65-3.49 4.48-1.66 5.82-11.13 2.83-8.64-.5-17.45 4.81-4.82-2.15-1.99-7.81-5.15-4.16-3.16.5-9.14 7.31-3.15 7.31-6.65 6.98-10.13 7.64-2.66 4.82-2.16 8.97.83 2.33 9.8 6.64 8.31.34 4.32 3.15L78.92 261l-2.82 7.31 5.81 10.64 2.66.83 10.63-.17-.33 11.3 6.48 11.96.67 5.32 4.81 11.96 5.99 2.33 10.46-1.33 13.96 1.99 4.15-1.49 13.3 8.64.66 2.32 3.16-2.16 6.98 5.48 5.31 1 2.83-4.82 4.32-.49 1.99 8.14-2.16 4.65 4.32 6.15 4.32-3.49 2.82 8.3-2.49 5.65 8.47 7.98v5.15l5.99.5zm115.14-191.4l6.64-.17 3.66 3.66 3.32-2.33-.17-6.98-3.15-5.48-3.66-.17-3.49 2 .17 4.15-3.82 4.65.5.67z"/><path class="cls-1" d="M279.96 44.68l8.8 4.65 3.16 5.98-1.49 1.5 4.15 8.97 2.33 8.31 2.65.83 3.99-4.65 2.33 5.31 4.98 3.49 1.83 9.14 3.32 3.16 4.82.49 3.16 4.99 3.82 2.49.33 6.15 2 2.32 10.13 3.83 1.66-.83 6.48-3-2.99-10.13 2.66-4.82-1.16-1.66 7.31-8.64h3.49l8.47-4.48 7.48 3.15 9.8.67 2.49 3.15 1.66-.16-2.49-4.66-5.32-1.66 1.17-4.65-2.33-2.99 3.99-3.65-4.49-5.98 2.66-7.48-8.97-9.97-.17-7.48-1.82-3.49-5.32 1.33 4.82-7.47v-2.5l-11.3 5.49-5.15-11.14-3.66-4.65-11.96 4.99-7.48-2.83-5.81-4.15-6.31-6.65-5.32-1.49-8.14 2.82-2.83 3.33-8.31 5.31-3.82.17 2.16 3.65.34 6.65-2.5 3.49 2.16 3.65-8.14 6.15-3.32 5.65z"/><path class="cls-1" d="M424.01 100.5l-7.15-6.47-8.3.66-6.48-3.82-3.66-4.15-2.99-7.48-3.32-3.32-2.33 3.65-2.32.5 3.82 6.81-6.32.5-2.49-3.49-9.64-.66-6.64-2.83-7.81 4.32h-3.16l-5.65 6.48 1.17 1.33-2.99 5.48 3.32 11.13-6.48 2.83h.33l10.47 7.64-7.31 9.97 2.16 10.3 3.49-1.83 4.98 2.66 1.66-1.16-.99-8.81 4.15-.99 5.15 7.47 3.32 1.66 5.32 7.15 10.47 5.32-6.65 5.15 3.66 2.32 1.33 3.49 4.32-1.49 8.3 7.14 2.66.17 2.33 4.32 3.65-1 9.81 1.33 3.32 3.99 2.66-2-1.17-3.32 3.66-8.31 3.49-.99 1.33-5.65-2.49-4.49 5.98-7.31-.5-6.15 3.99-1.99 3.32-5.65 2.99-.83 6.48-6.65 3.32-1.66-5.65-3.32-1.99-2.83-12.96-5.81-5.81-.5 1.82-6.64-4.98-2.17zM169.97 504.07l.17-1.32-2.66-7.15-4.49 2.83 2.66 5.64h4.32zm57.32 285.28l-1.66.16 2.1 4.99h5.18l-5.62-5.15z"/><path class="cls-1" d="M162 580.83l4.48 13.96 1.17 12.13 3.48 13.29.5 19.77 4.49 18.94 8.31 12.8 4.81-2.16 4.32 6.14h4.82l3.33-4.82 5.31.34 5.15-12.3-.33-4.48-4.65-1.17.66-4.81-4.48-7.32h5.64l3.33-4.15 4.48 3.66 3.33-1.33.99-3.82 6.15-1.67-.33-3.32 5.48-4.65 7.48 3.49 3.15-2.99 12.96-.33 1-3.49-3.32-11.63 3.49-4.49 6.31 4.32 3.49-1.66 2.66 3.65 9.64-2.16 3.65 1.17-.5-9.14 8.14-6.65 5.82 2.66 7.31-9.14.33-6.97 7.64-2.16 8.64-10.64 5.32 7.48 1.99-.5-1.33-1.99 4.16-7.48 2.99-.67 1.16-4.31 6.81-4.99-5.64-8.14 3.48-3.32 2.99-8.48 9.31 2.5.33-3.33 4.98-4.32 3.33-8.97-3.66-8.97 7.81 5.32 1.66-.83 9.64 2.16 6.98 7.47 6.64-2.49 9.31 4.32 11.46-2.49 7.64 5.15 1.67 3.65-1.33 13.46.99 7.48-1.16 1.16 4.99 3.99 5.64-.5 2.16-4.32-2.65-4.82 5.31-11.13 6.98-6.15 5.48 4.99 3.16-2.33 1.66-4.32-5.98-3.99-5.81-7.47-2.99 1.82-2.17-7.31 4.16-.99v-6.48l-3.82-.5v-4.99l7.14-3.49v-8.63l-5.65.16 3.82-5.48-.66-7.64-4.32-3.33 1.99-7.31 5.15-3.15 1.17-2.5-8.98-1.32v-3.49l-7.14-5.82-6.15 3.16-6.64.66-1.5-1.99-8.97 1.33-4.82-5.65-4.98-.67-.83 1.83-10.64 2.99-.66 2.66-8.31 1.33-10.47-1.5-1.66-4.15-11.63 6.48-11.63 2.16-8.64-.83-2.82-5.65 4.98-1.83v-4.65l-2.66-2.32-3.82-.17-4.32 2.82-3.65-.99-11.13 4.98-2.5 6.15-3.32 2.66-.83 5.31-7.14 3.66-10.31.83-3.32-11.13-6.48-1.33-12.46.5-8.31-.67-6.81-2.49-2.99-4.65-4.82-2.33-6.81-.16-7.64-5.16-.5-8.63-1.99-2.33-7.15 3.32-2.66-1.16-10.63 3.65.33 6.98-2.49 1.33 1.33 2.33 5.98-1.5 14.62 3.16-15.45 4.98-1.83 4.16-4.32.16-3.32 4.82 5.65 5.65 1.33 8.47-5.15 7.15-6.98 1.49-5.82-5.98-1.66 1.5 2.99 3.99-4.32 6.64-.16 8.47-4.16-.99-3.15 2.32-.34 3.16h-7.64l-1.66-3.49-5.48.67-1.83.66-2.33 7.98 4.99 26.08-1 6.15 8.14-.17-4.15 4.65 3.65 1.17-6.14 4.48 1.82 7.81-.49 6.81 8.14 8.31-5.98-1.49v4.81z"/><path class="cls-1" d="M198.05 704.45l4.32-2 2.32-11.3-1.99-12.79-3.82-.33h-6.31l-3.99-5.82-3.16 1.5 2.83 9.64 3.49 4.15 1.99 7.81-1.16 2.82 5.48 6.32z"/><path class="cls-1" d="M323.49 666.73l.83-1 .5-13.29-9.8-3.49 7.64-6.14-.66-4.49 2.15-12.13-3.32-7.31 9.97-11.13-.33.17-8.47-4.16 4.81-4.98-.83-2.66 4.49-4.32-1.83-12.96-3.99.66-4.32-6.14-7.31 8.97-6.98 1.83-.33 5.98-8.64 11.13-6.14-2.66-6.15 4.99.5 11.13-5.98-1.83-10.64 2.16-2.32-3.32-2.83 1.33-5.98-3.66-1.5 1.83 3.33 11.3-1.66 5.48-13.63.33-3.82 3.66-7.48-3.49-3.49 2.99.34 3.99-6.65 1.66-.83 3.82-5.65 2.16-3.82-3.16-2.66 3.49h-2.66l2.83 4.65-.67 3.49 4.32 1.16.67 6.48-6.15 14.29-5.65-.33-1.83 2.83 3.82.33 2.33 14.78-2.66 12.96-5.65 2.33v2.33l6.15 3.82 1.16 6.64 3.33 2.66 3.82 17.78 2.82 4.49 3.16 14.62 4.65 25.58 1 2.99 3.16-.33 6.31 5.82 6.31 1.32.13.34h86.02l.58-1.66 3.66-.17 3.82-6.81 10.63.66 5.32 2.66.33-2.66 6.65-3.65 5.31-9.14-7.81-5.98.67-7.81-6.15-.33-3.99-4.16-1.82-6.31-4.82 2.33.66-5.65-3.15.5v1.99l-8.15 5.48-6.81 1.83-2.16-6.15-7.14-1.99-.5 4.65h-9.3l2.49-5.81-5.65-10.47 6.31-1 1.17 4.49 3.65 1.99 6.81-.17 1.33 1.67-1.49-5.65 4.32-1.83-5.99-4.49-3.48-.16-3.83 4.15-6.31-1.16-2.16-6.48 2.16-1.83-5.81-3.99-.5-4.81 2.99-8.98-3.82-2.82 2.65-5.65 9.97 3.49 2.99-3.82-.66-5.65-2.66-1.83-2.33-6.65 4.33-6.31-1.67-8.31 4.99-3.82 11.13.5z"/><path class="cls-1" d="M474.48 603.3a1.08 1.08 0 01.45-1 15.5 15.5 0 013.11-1.66 11 11 0 002.89-1.66 1.08 1.08 0 01.7-.25c.47 0 .56-.15.6-.48a2.31 2.31 0 00-.66-1.76l-4.2 2.63-6.48-.33-.66-.17h-1.83l.17-.17-7.14-.83-4.15 2.49-3-3.32-1.66-9.47-6-5.48-3-6.81-6.48-6.81-5.48.33-3-4.65-6.48.66-7.64-6 2.16-2.16-1-6.81 1.3-13.13-1-2.66-6.31-4.15-11.46 2.49-9-4.32-7.23 2.82-7.31-8.14-8.31-1.83-2.38 1.17-2.84-1.64 1.33 3-4 10.3-4.65 4-.33 5-10-2.49-2.33 7.14-2.49 2.33 5.65 8.14-7.81 6-1.5 5-3.32.66-2.71 5.41 1 1.66.33-.17.17 1 .83 1.16h-.66l2.16 14.12-4.49 4.32.83 2.66-3.49 3.66 5.15 2.49 6-1.16-13.29 14.79 3 6.65-2.16 12.46.66 5.48-5.65 4.49 7.81 2.49-.83 15.62-.43.61h.1c2.34.13 5.25.3 6.65-.37a1.08 1.08 0 011 0 19.94 19.94 0 009.29.81 1.66 1.66 0 011.2-1.2c1-.23 1.66.6 2.39 1.4a9.58 9.58 0 00.73.8 1.08 1.08 0 011.23-.56 1.23 1.23 0 00.5 0 1.18 1.18 0 01.08-.43 3 3 0 012.08-2.31 3 3 0 00.55-1.3c.23-.83.5-1.78 1.43-2.09a1.93 1.93 0 011.53.2c.35-.18.71-.42 1.1-.66a19.29 19.29 0 011.66-1 5.12 5.12 0 014.49 0 3.94 3.94 0 002.23.37 2.76 2.76 0 011.83-1.26 3.65 3.65 0 012.82 1.31 4.1 4.1 0 001.26.9 1.1 1.1 0 01.33.15c.9.43 5.15-1.66 6.18-2.53a1.66 1.66 0 00-.18-.53 2.31 2.31 0 01-.28-2 2.09 2.09 0 011.38-1.11 1.06 1.06 0 01.43 0 2.24 2.24 0 001.53-.61 3.42 3.42 0 013.52-.65c.53.12 1 .2 1.55.27a15.19 15.19 0 012.58.53c.5 0 .63-.22.75-1.66q0-.53.12-1l-.12-.17a3.49 3.49 0 01-.68-3.32 5.83 5.83 0 00.38-3.32 1.08 1.08 0 01.43-.95 3 3 0 00.68-.88 2.59 2.59 0 013.36-1.47h.07c1.45-.32 5-1.43 6.65-2a1.08 1.08 0 01.88 0c.32.18.47.15 1.25-.42a3 3 0 012.51-.81 31.32 31.32 0 013.46-1.13c1.2-1.21 3.64-.75 5-.23s2.46 1.46 2.49 2.43c.08.22.18.22.23.2A2.16 2.16 0 00416 639a1.08 1.08 0 01.55-.7 3.9 3.9 0 002.09-2.61c-1.15-.8-2.44-1.66-2.44-3.11a3.21 3.21 0 011.53-2.49 3.32 3.32 0 012.82-1.84c1-.2 1.5-.33 1.91-1.11a1.08 1.08 0 01.52-.48c2-.88 5.55 1.83 5.58 1.86a1.08 1.08 0 01.38.58 11 11 0 002.06 4.14l.1.15a2 2 0 01.93-.37 3 3 0 012.39 1.3 3.19 3.19 0 001.43 1.08 4.55 4.55 0 001.93.28 2.34 2.34 0 00-.53-.9 1.08 1.08 0 01.1-1.51 1.3 1.3 0 00.28-1.45c-.1-.17-.37-.18-.78 0a5.78 5.78 0 01-4.4-.45c-.66-.23-1.41-.5-2.26-.71a1.08 1.08 0 01-.25-2c.15 0 .22-.58.22-1.5s0-1.66.88-2 1.66.58 2.31 1.26l.17.2c.17-.22.35-.56.48-.78.5-.86 1.11-1.93 2.14-2.19a3.21 3.21 0 012.91-.61c1.3.27 2.79 1.08 3 2.26h1a11 11 0 015 .93c.58.15 1.56-1 2.43-2a8.31 8.31 0 014-3.19 5 5 0 013.09-1.15 4.82 4.82 0 001.91-.48 2.06 2.06 0 01.17-1.45c.7-1.35 2.72-1.66 5.08-2 1.84-.27 4.14-.6 4.85-1.45a1 1 0 01.23-.2c1.08-.71 1.3-1.66 1.66-3.17a11.17 11.17 0 01.58-2.21c-.56-1.38.48-2.64 1.2-3.51s1.32-1.42 1.23-2.12z"/><path class="cls-1" d="M484 600.09a2.5 2.5 0 01-1.92 1.11 13.84 13.84 0 01-3.14 1.66 16.38 16.38 0 00-2.24 1.1A5.88 5.88 0 01475 607c-.83 1-.93 1.25-.8 1.45a1.08 1.08 0 01.08 1.16 7.43 7.43 0 00-.61 2.14 6.28 6.28 0 01-2.39 4.49c-1.28 1.38-3.72 1.66-6.1 2.08a10.72 10.72 0 00-3.46.81v.18a1.08 1.08 0 010 .95 4.37 4.37 0 01-3.8 2c-.75.1-1.66.23-1.86.56a1.08 1.08 0 01-.86.53c-1 0-2.08 1.36-3 2.49-1.35 1.66-2.89 3.44-5 2.64h-.2a9.24 9.24 0 00-4-.7 6.73 6.73 0 01-2.81-.43 1.08 1.08 0 01-.45-1.43 3.19 3.19 0 00-1.66-.53c-.1 0-.48 0-.58.17a1.13 1.13 0 01-.91.48 5.32 5.32 0 00-.81 1.18c-.53.91-1.13 1.94-2.23 2a2 2 0 01-1.38-.5 4.53 4.53 0 01-.12.56l1 .35c1.31.47 2.24.78 2.82.5a2.66 2.66 0 013.47.88 3.32 3.32 0 010 3.32 2.61 2.61 0 01.23 2.79c-.68 1-2.11 1.26-4.27.61a4.74 4.74 0 01-2.51-1.66 7.55 7.55 0 00-.58-.56 2.94 2.94 0 00-.32.47 1.08 1.08 0 01-.91.53.93.93 0 01-.93-.5c-.3-.47-.58-.86-.86-1.25a13.13 13.13 0 01-2.28-4.47 8.31 8.31 0 00-2.91-1.36 4.49 4.49 0 01-3.09 1.66c-.95.18-1.16.28-1.33.75a1.08 1.08 0 01-.4.55c-.86.61-.88.91-.88.91 0 .32 1 1 1.55 1.38l.55.38a1.08 1.08 0 01.45 1 6 6 0 01-2.94 4.65 4.27 4.27 0 01-3.42 2.53 2.43 2.43 0 01-2.41-1.89 1.08 1.08 0 010-.27 5 5 0 00-2.44-.95 2.21 2.21 0 00-1.38.1 1 1 0 01-.65.47 27.27 27.27 0 00-3.85 1.26 1.08 1.08 0 01-.93 0c-.12 0-.35.08-.81.43a3.22 3.22 0 01-3.11.76c-1.38.45-5.45 1.78-6.91 2a1.1 1.1 0 01-.6 0c-.47-.2-.61-.15-.61-.15a2.54 2.54 0 00-.43.6 6.08 6.08 0 01-.76 1.06 7.36 7.36 0 01-.52 3.57c-.17.52 0 .78.43 1.45.15.22.28.43.42.65a1.08 1.08 0 01.08.85 5.71 5.71 0 00-.15 1.1c-.1 1.25-.28 3.57-3 3.62a.68.68 0 01-.37 0 12.61 12.61 0 00-2.39-.5 15.17 15.17 0 01-1.83-.33h-.18c-.5-.22-.73-.13-1.53.42a4.7 4.7 0 01-2.38 1 2.56 2.56 0 01.17 2.56c-.35.91-4.07 2.74-5.85 3.32a4.35 4.35 0 01-3.32 0 5.8 5.8 0 01-2-1.33 4.13 4.13 0 00-1.1-.8c-.2 0-.18 0-.5.56a1.08 1.08 0 01-.38.37 5 5 0 01-4.17-.12c-1.26-.42-2.08-.65-2.76-.22a17.81 17.81 0 01-1.66.91 12.47 12.47 0 01-1.93 1.06 1.08 1.08 0 01-1.06-.15l-.12.4a3.67 3.67 0 01-1.86 2.72h-.18c-.33 0-.42.18-.61.86a2.29 2.29 0 01-2.39 2 1.83 1.83 0 01-1.18.66H347c-1 0-1.79-.9-2.46-1.66l-.2-.23a2.16 2.16 0 01-1 .66 21.6 21.6 0 01-10.53-.73 19.94 19.94 0 01-7.16.37 24 24 0 00-3.84 0 1.08 1.08 0 01-.8-.22l-8-.46-3.32 2.49 1.66 7.64L307 685l1.66 5 3 1.83 1 7.64-4.66 5.81-9.64-3.49-1 2.33 3.82 2.49-3.32 10.3.17 3.16 7.48 5-3.32 2.82 1.33 3.82 4 .83 3.49-4.15 5.15.5 9.64 6.81-6 2.82 2 8-.76.47-4.72-3.46-6.48.17-5-3-.83-3.49-1.33.33 4.65 8.81-1.5 3.49h4l.5-5 10.82 3L323 753l4.65-1.16 7-4.49v-3l7.81-1.16-.66 4.65 3.49-1.66 2.49 8.31 3 3.16 7.48.33-.66 8.81 8.14 6.31-6.31 11.46-6.31 3.32-.33 2.49 5.82 4.15 5.32-4.82 2.33-8.31 3.32-2.49 9-1.66 7.81 1.83 3.16-3.49 6-2.82 1-4.15 9.64 1.33 3.66 2.16.83-2 11.13-6.65h.17l-2.98-5.17 4.82-6.15 1.83 3.16.33-5.15-2.49-5.65L422 734l2.66-11.63-3-5.48-2.33-12 1.67-11.58 6.66-14.31 3.82-4.32 7.48-4 9.3-.33.83 4.15 2.16-4.82 4.32 2 5-4.65 3.66-13 6.65-2.82 13 2.33.18-.07zm0-3.63v-1.13l-.51.32a4.4 4.4 0 01.51.81z"/></g></svg>