<svg xmlns="http://www.w3.org/2000/svg" viewBox="0 0 664.5 615.2"><style>.st0{fill:#004165;} .st1{fill:#154F76;} .st2{fill:#F0F0F0;} .st3{fill:#E5E5E5;}</style><g id="Layer_1"><path id="background" class="st0" d="M0 0h332.3v614.7H0z"/><title>map-full</title><path class="st1" d="M329.5 119.4l-2.9-.5-7.1-5.2-2.2-.9-.1 2.2-3.9-1.4-5.2-4.4-2.6 2-2.4-3-5.3-.6-2.8.8-1.6-3-1.4-.1-4.6-4.1-3.2 1.1-1-2.9-3.6-2 4-3.1-4.7-2.4-3.2-4.3-2-1-2.9-4.1-.5.2.6 4.9-2.4 1.7-3-1.8-3.1 1.7-1.7-8.6 4-5.4-4.9-3.4h-.3l.5.8-1-.4-.3 1.8-7.1 6.8-1.1 4-2.6 5.3 1.8 3.5-.4 6.4.9 5.7 2.1 3.7.2 4.6 3.4 3 .7 3.6-1.4 4.6 1.4 2.5-5.4 3.3 1 5.7 2.2 3.4 3 1.5 1.2 3.5-2.9 2.3 4.4 2.6-6.1 2.2-.4.8 5-2.4 5.6.7 2.8-.9 3.8 1-.8 1.8 2.5-.5 4 2.3 3-.9 4.9 2.4 3 8.9-2.3 1.8-.2 3.8-3.4 6.4-1.2 1-.6 4-7.5 1.7-2 2.7 2.1 5-.8 4.2-3.4 3.4 1.7 3.8-.7 3.7 2.6 4.4 2-2.3 6.3 4.6 3.4-4.8-2.1-3.3h-2.8v-4.7l-1.9-3.5-.5-3.9-2.2-3.3 2.3-4.3 2.5 1.3-.1-3.9 2.2 2.3 2.3-2.7 1.5 3.3-1.1 4.9 3.2-1.9-.5 2.7 3.8.2.6-2.2 4.4.2-2.2 3.1.5.9 2.8-2.2 6.2.6-.2-1.9 7.7-3.9 2.5-.2 3.3 6.3-.6.7h.1l-1.7 2.2 2.2-.3v-2l9.4-1.7-1.8 5.2 4 .1 1.8 1.2 1.2-1.1 1.4-4.8h.7v-67.9z"/><path class="st1" d="M187.4 244.3l-2.2 4-5.1 3.1-1.6.4 4.5 3.5h-4.6v2.7l1.3 3-.3 2.4.9.4 4.7-2.2 2 2.4.3 5 3.8 2.7 3.9.1 3.7 1.6 1.6 2.8 3.6 1.3 4.8.4 7.4-.5 4.9 1 2 6.5 4.8-.3 3.5-1.8.5-3.2 2.2-1.6 1.5-3.9 7.5-3.4 2.2.6 2.4-1.7 3.3.3 2.2 2v4.4l-2.4.9.7 1.4 4.4.3 6.7-1.1 7.9-4.5 1.4 3.1 5.3.7 4-.6.4-1.4 6.4-1.8.7-1.5 4.4.6 2.9 3.2 5.4-.8.9 1.2 3-.2 4.3-2.3 5.4 4.5v1.5l4.7.8.7-2.2.2-5.6 2.3-3.1V267l2.2-4.2 1.1.9.7-2.4 2.1-2.3 1.4-4.6 2-.2v-59.4l-.9 3-2.4 1.9-2.2-1.6-5.4-.1 1.6-4.8-6.4 1.3 1.2 1.8-7.2.9 3.4-4.7-2.5-4.7h-1.3l-6.7 3.5.2 2.5-7.2-.6-3.6 2.6-1.7-2.7 1.4-1.9h-1l-.6 2.2-6.4-.4.3-1.3-3.2 2.1 1.5-7.5-.5-1.1-1.9 2.3-.8-.9.1 2.7-3.3-1.7-1.3 2.5 1.8 2.9.5 4 2 3.4v3.8h2.3l2.9 4.6-4.6 6.6-6.5-4.6-2.4 2.7-3.8-6.4.7-3.7-1.9-4.2 3.8-3.8.6-3.4-2.1-5.4 2.6-3.7 7.1-1.5.6-3.6 1.5-1.3 3.1-5.9.2-4 1.9-1.6-2.4-7.5-4.1-2-3 .9-4-2.3-3.3.5-1.6.5-.6 2.7-3.9.3-1.4 1.9-8.8 4.6-2 .4-2.5 2.5-6.3 3-3.9 4.2-3.7 1.4-1.4 2.5 1.3 5.7 1.7 1.6 5.3 1.7 5.3-.5 3.8-2.7 1.6 6.5-1.6 2.9-3.5-.4-6.3 1.8.3 2.9-1.7 1 3.2 2.1 2.2 4.8-4.3 1.8-1.3-.9v3.1l1.9 3.2-3.8 2.5-2.3-3.4-2.2 1.9-2.1-1.4-4.7-.5-1.4-.8-.4 3.9-2.5 1.8-.8 2.3-4.3 1.6-1.9 2.1-2.8-.7-2.6-3.4 1.7-3.2 4 1.1 1.2-1.9-1.2-1.6 1.4-2.8-1.4-2.9 3-2.1-1.8-5.1-6.3 1.3-5.7-.8v-5.2l2.2.2.5-2.5-2.8.2-1.2 3.4-2.8.6-2.4-1.3v1.4l3 .4-.4 3.3-4 .4-1.3 2.5 2.8 2.3-2.4 3.7 2.3.4 2.1 5.5-1.4 3.2.4 4.9-2.8 4.6-5.6 2.8-.5 1.9 4.5 2.1-6.7 3.1-2.6.4.5 2.9z"/><path class="st1" d="M315.2 315.2l.5 1.4 1.2-.9 4.2 5.4 4.3 2.7-1.6 4-2.9 2.2-3.3-2.8-3.2 2.7-2.8 5.9 1.6 2.9-1.6 3.2 1.4 2.1 3.3-.2 4.5 4.9 1.6 3.9 3.8 3.5 1 5.7.8 1 2.1-1.3 2.2.3V255.5l-1 .1-1.2 4-2.1 2.3-1.1 4-1.5-1.1-1.4 2.6v2.4l-2.3 3.1-.2 5.5-.6 2.1h.1l-.4.7-.2.5-1.1 2.3-2.9 1.7-1 3.2 2.4 1.8.6 5.6-1.1 1.5 2.1-.1v7.4l-4.4 2.1v1l2.4.3v6.1zM242.8 62.1h-.2l.2.2zM299.4 499.9l.1-.5.4-1.1-2-.6.2 1.9z"/><path class="st1" d="M300.7 467.3l-.9 2.2-3.2-1.9-4.4-.6-.4 2.1-4 1.7-2.3 2.5-5.1-1.1-4.8.8-1.4 1.1-1.4 5-4.4 3.7-4.5-3.2-3.8-2-5.2-.2-2.3 3.9-2 .1-.8 2 1.2 1.8-2.7 5.8 3.3.1 2.7 2.5-2.6 4.1-4.2 1-1.3 2.7-4.2-.2-4.2 1.4-3.6-1-2 3.9-9.4-1.1-1.8 1.7-1.7-.2.2 1.6 3.2.9 3.6 2.9-1.9 2.3 3.5.2 3.3 4.3-1.6 2.4 2.3 1.1 1.7 2.4.3.2-1.7 3.7.3 6.9 2.7 1.5 4.9-2.8 2.4 4.1-1.2 3.6.8 2.2-1.7 7.6 3.1.7 1.6 2.3-3.6 9.2-1.8 2.4 1.8 3.3-1.6 3.8 2.2 3.9-2.8 5.5-.5.2 3.7 2.9 4.1 1.1 12.3-6.5 1.4-2.4-.3-3.8 3.1-7.4 5.2-3.6 3.8-.5 7.9-3.2 1.5.2-3.1-4 1.8-5 5.2-7 1.4-1.2-.9-3 4.1-4.1 4.8-.5 5.2 1.4v-11.1l-3.4-2.5 1.2-2.6 2.1.2-.1-6.8-4.1 1.1 2.9-4-.8-3.4 1.3-5.4-2.2-.6-.6-4.7 4 1.2.3-1.2 6.6-10.3 1.7-4.5 1.3-9.1 1-2.9-.1-4.9-3.6-6.2-1.2 1.5 1.9 4.2h-1.4z"/><path class="st1" d="M298.2 521.7l1.7 1.3-.1-2-1.2-.1zM246.5 90.1l2.8-5.8 1.1-4.1 7.1-6.8.3-1.7-7.3-2.8-1.6-2-.2-3.3-2.1-1.3-1.7-2.8-.9-.1.5.7-.4 1.4v2.2l1.5 2-.2 5.9-3.6-.7-.2 1.3-2.9 1.7 1.7.6-3.3 3.9-2.3-2.1-.3 1.1-3-.6-1 3.4.7 2.7-6.2 2.8-3.3-2.3-3.7 1.4-2.9-1-5 5.9-1.7-4.5 1.3-1.1-2.5-2.8-1.6.4-3.2-2.7-3.5 1.4-1.7-.7.3 1.2-1.1 1.6 1.9-.3-.3 8.1-1.1.5.8 1.5 4.1-1.3 5.2 4.1 5.3-1.2 2.4 7 2.5 8.9 3.4 4.8 2.2.7 4.3 6.4-2.3.9 1.1.5-2.3 3.3.9 2 3.3.1-.9-3.6.8-1.6 6.8-2.3-.2 3.1 1.3 1.3 1.7-2 5-3.6 2.1 3.2-.9 9.6 1.8-.8-.8-1.9 5.8.1 4.5-2.7-1-1.9 1.4-4.8-.5-3-2.9-2.5-2.8 1.9-2.6-2.4-4.2.1-1.1-2 2.5-3-.1-2.9 3.3-1.8 2 .2-.9-5.2.4-6.2z"/><path class="st1" d="M194.1 57.1l-5.9 8-4.2 3.6 1.3 2.4.2-.1.7 2.8-1.6 2.8 10.9 1.3-.1-.2 1.1.4h.3l.1.1 2 .8 3.7-1.6 3.4 2.9 1.6-.4 3.9 4.2-1.5 1.5.5 1.5 4.2-4.9 3.3 1.2 3.9-1.4 3.3 2.3 4.4-2.2-.5-1.9 1.4-5 3 .6.5-1.9 2.9 2.7 1.3-1.5-2.5-1 4.7-2.7.2-2.1 3.6.7v-3.9l-1.2-1.8-3.4-3.4 3.3-.1.2-.5L242 59l-2.4-2.3-1.1-5.3-2.8-2.1-.8-1.6-1.6 2-3-1.1-1.6-5.6-2.9-6 .9-.9-1.3-2.4-6.1-3.4 2.9-4.7 4-3.2-.5-.9-6.9 4.6-1.4-1.6-1.4.3.8 1.2-1.7 3-2.9 1.6-2.7-.5-4 1.4-5.2 3.8-1.5 2.6 2.1 6.3-2.4 5.8 3.2 2.5-6.3 4.9zM54 216.3l1.3.3 2.1-2.4 5.3-2.7 4.1-.7.4 1.2-8.5 4.7.9 2.8-1.2 1.3 3.5 2.8v3.2l4.7 4.3 7.6 4.7 9.7 3 2.7-2.3 8.1-1.6.8-1.3L99 235l2.1-5 1.9 4.5-3.8 2.8-5 7.9-4.9.2-4.4 2.7-1-1.3-2.9 2.8-1.2-2.2-1 1.6-7.2 1.5.1-3.1-3.9-.5-.6 1.7 4.7 7.6 8.8 9.2 8.6 11.6 5.8 5.5 4.1 3 6.2 2.8h2.4l.3-.7.9.2 10-2.8 14.1-6.4.2-2.5 3.2-3.7 1.3-3.6-2.2-2.8-3.5.3-.5-3.5 3.6.6-.6-2.9 4.1-2 .2-3.4 3.7-5.2-.5 4.2 2.8-.4 7.8 1.8-3.6 2.7-2.5-1.3-1.5.8-.9 3.3 2.7.4-2.4 5.9 1.2.5 8.7.5-8.6 5.2-1.1 1.9.7 2.3 2.5 1.8-.6 3 3.3 4.2.6 4.2-1.4 6.1.9 2.3-2 .3-1.4 1.9-.8 3.5.4-.1 3-.4-.8-1.9 4.9-3.3 2 5.2 2-1.4 1.5.4.1-3.9 2.2-3.6-2-2.6 2.8-2.5 3.9 4 3-.7 2.5-3.5-.6-4.1-3.8-3.8 2.8-4.3 2.6-.1.9-2.3 5.3-1.8-3.8-.7-4.2.9-2-3.4 1.9-1-.2-4.4 7.2-2.4.2-2.1-1.3-3 .2-4.1h2l-3.7-2.9 4.1-1 4.6-2.9 1.6-2.8-1.7-1.6-.7-3.8-1.7-2.7-5.6-4.9-2.8-1.8-4.4-.3v-3.7l-5.5-5 1.7-3.8-.9-2.8-2.2 1.7-4-5.3 1.5-3.2-.8-3.3-.8.1-1.9 3.1-4.4-.8-3.6-2.9-2.7 1.7-.8-2.6-7-4.6-2.1.9-8.6-1.2-6.5.8-3.8-1.5-1.8 1.7.2 2.3 3.2 2.1-4.9 1.2-3.9 2.9-4.8-1.8-.5-3-8.2 1.9-3.4 3.1-6.9-1.1-2.1-2.3-5.9-.7-7.1.2-1.4-1.6-2.7.3-.7 7.7-6.8-.7-5.2 2.3-.4 1.5 2.6 2.5z"/><path class="st1" d="M187.2 6.1l3.1 1.3 9.9 5.7 4.3-2.4-1.7 6.8 1.4 2.6 5.7.2 5.1 3.3 3-.5 1 1.2 6.4-4.2 1.4-2v-3.2l-2.5-3.8 4.3-.1 4.7-3 1.6-2.2 5.7-1.9 3.8 1.1 4.1 4.2 3.3 2.4 3.8 1.4 7.6-3.2 3 3.8 2.5 5.5 7.4-3.5.2 3.9-1.5 2.1 1.2-.2 4.2-.9 2.4-2 1.2 5 2.3 2.2 2.6-.2.7-2.4 3.4-.3 3.7-3.3.4-1.9-3.1-4.9.9-4.5-7.5-3.4-1.3-2.1-.1-2.7H183.6l.2 3.6zM173.7 228.5l3.2 2 5.9 5.2 1.5 2.5 2.8-.4 4-1.9-3.1-1.5 1.1-3.5 5.6-2.8 2.4-4-.4-4.7 1.4-3-1.7-4.3-3.3-.8 2.6-4.3-2.6-2.1 2.1-4.1 3.6-.4.2-.9-2.8-.4-.2-4.8 4 2.1 1.6-.4 1.2-3.4 5.4-.4-1.1 5.3-2-.2v2.6l4.5.6 7.1-1.5 2.6 7.3-3 1.9 1.2 2.5-1.2 2.6 1.2 1.8-2.2 3.5-4-1.1-.7 1.4 1.8 2.4 1.6.5 1.5-1.9 4.1-1.4.6-2.1 2.5-1.8.6-5.3 2.8 1.8 4.7.5 1.5 1 2.6-2.3 2.5 3.6 1.6-1.1-1.4-2.4v-5.9l2.8 1.9 2.3-1-1.4-3.4-4.6-2.9 2.7-1.6-.3-3.3 7.5-2.2 2.9.4 1-1.7-1-4.1-2.6 1.7-5.9.7-5.7-1.9-2.3-2.2-1.5-6.5 1.8-3.3 3.9-1.6 4-4.1 6.3-3 2.6-2.6 2.3-.4 8.3-4.4 1.6-2.1 3.5-.3.4-2.5 2.2-.6.6-1.3-2-.4-2.6.9-5.6-.7-8.2 3.8 2.6-4.6 3.9-1.4-3.8-2.2 3.7-2.9-.6-2.1-3-1.5-2.4-4.1-1-5.7h-3.5l.4 1.1-4.8 2.4.9-11.4-1.1-1.8-3.8 2.8-2.5 3-2.7-2.9.2-1.7-4.4 1.5-.4.8 1.1 4.8-5.7-.3-1.5-3.4 1.7-2.5-2.3-1.1 3.5-1.5-3.1-4.6-2.2-.7-3.8-5.5-2.5-9-2-5.8-4.9 1-5-4.1-4.5 1.5-2-3.7 1.7-.7.1-5.7-3.3.5 2.5-3.6-.3-1.4-13.2-1.7 2.2-4-.1-.4-3.8 2.8-7.3 2.3-3.4 8.8-7.7 11.5-11 4.8-2.6 3-2.8 6.6-3.6 2.8-2.1 2.7-1 3.5-6.7 1.7-5.2-.3-10.5 2.9-2.9-1.3-1.2-4.7-3.1-2.5-1.9.3-5.5 4.4-1.9 4.4-4 4.2-6.1 4.6-1.6 2.9-1.3 5.4.5 1.4 5.9 4 5 .2 2.6 1.9-1.4 8.6-1.7 4.4 3.5 6.4 1.6.5 6.4-.1-.2 6.8 3.9 7.2.4 3.2 2.9 7.2 3.6 1.4 6.3-.8 8.4 1.2 2.5-.9 8 5.2.4 1.4 1.9-1.3 4.2 3.3 3.2.6 1.7-2.9 2.6-.3 1.2 4.9-1.3 2.8 2.6 3.7 2.6-2.1 1.7 5-1.5 3.4 5.1 4.8v3.1zM243 113.3l4-.1 2.2 2.2 2-1.4-.1-4.2-1.9-3.3-2.2-.1-2.1 1.2.1 2.5-2.3 2.8z"/><path class="st1" d="M221.1 29.9l5.3 2.8 1.9 3.6-.9.9 2.5 5.4 1.4 5 1.6.5 2.4-2.8 1.4 3.2 3 2.1 1.1 5.5 2 1.9 2.9.3 1.9 3 2.3 1.5.2 3.7 1.2 1.4 6.1 2.3 1-.5 3.9-1.8-1.8-6.1 1.6-2.9-.7-1 4.4-5.2h2.1L273 50l4.5 1.9 5.9.4 1.5 1.9 1-.1-1.5-2.8-3.2-1 .7-2.8-1.4-1.8 2.4-2.2-2.7-3.6 1.6-4.5-5.4-6-.1-4.5-1.1-2.1-3.2.8 2.9-4.5v-1.5l-6.8 3.3-3.1-6.7-2.2-2.8-7.2 3-4.5-1.7-3.5-2.5-3.8-4-3.2-.9-4.9 1.7-1.7 2-5 3.2-2.3.1 1.3 2.2.2 4-1.5 2.1 1.3 2.2-4.9 3.7z"/><path class="st1" d="M307.8 63.5l-4.3-3.9-5 .4-3.9-2.3-2.2-2.5-1.8-4.5-2-2-1.4 2.2-1.4.3 2.3 4.1-3.8.3-1.5-2.1-5.8-.4-4-1.7-4.7 2.6h-1.9l-3.4 3.9.7.8-1.8 3.3 2 6.7-3.9 1.7h.2l6.3 4.6-4.4 6 1.3 6.2 2.1-1.1 3 1.6 1-.7-.6-5.3 2.5-.6 3.1 4.5 2 1 3.2 4.3 6.3 3.2-4 3.1 2.2 1.4.8 2.1 2.6-.9 5 4.3 1.6.1 1.4 2.6 2.2-.6 5.9.8 2 2.4 1.6-1.2-.7-2 2.2-5 2.1-.6.8-3.4-1.5-2.7 3.6-4.4-.3-3.7 2.4-1.2 2-3.4 1.8-.5 3.9-4 2-1-3.4-2-1.2-1.7-7.8-3.5-3.5-.3 1.1-4zM196.3 494.5l.7-.5.6-.6-1.4.3v.8zM154.9 306.4l.1-.8-1.6-4.3-2.7 1.7 1.6 3.4z"/><path class="st1" d="M219.3 547.2l.8 6.7 1.1 3.8 4.4 10 9.8 12 2.2 1.7.7-.3 2.4-4.5-2.2-3.9 1.6-3.8-2-3.3 2.3-3.1 3.3-8.3-1-1.3-3.9-.9 1.9-8.6-.8-2.2 1.2-3.4-1.4-2.5-4.5 2.6-3.9-2.3-.5-7.9 1.5-3.1-4-3.2-.7-.3.1-.2 1.9-2.8-2.3-3.1-5.7-.2 2.9-3.3-2.4-1.9-3.8-1.1-.4-3.8v-.4l.6.1 2.8-.9-7-6.1-4.9.2-2-2.9-2.9-.8-3-2.6-2.6-2.2-2.5-6.9-3.4-.8-3.6-3.3-1 .1 1.9 4.5 4.8 9.9 2.9-.3 3.1-.6-3.1 3.1v2.1l5 5.6 1.8 5 1.7 1.2 3.2 7.8 1.9 7.7 2.9 5.8 4 12.1 2.8 1.7 1.2 5.7-1.1.5zM150.1 352.6l2.7 8.4.7 7.3 2.1 8 .3 11.9 2.7 11.4 5 7.7 2.9-1.3 2.6 3.7h2.9l2-2.9 3.2.2 3.1-7.4-.2-2.7-2.8-.7.4-2.9-2.7-4.4h3.4l2-2.5 2.7 2.2 2-.8.6-2.3 3.7-1-.2-2 3.3-2.8 4.5 2.1 1.9-1.8 7.8-.2.6-2.1-2-7 2.1-2.7 3.8 2.6 2.1-1 1.6 2.2 5.8-1.3 2.2.7-.3-5.5 4.9-4 3.5 1.6 4.4-5.5.2-4.2 4.6-1.3 5.2-6.4 3.2 4.5 1.2-.3-.8-1.2 2.5-4.5 1.8-.4.7-2.6 4.1-3-3.4-4.9 2.1-2 1.8-5.1 5.6 1.5.2-2 3-2.6 2-5.4-2.2-5.4 4.7 3.2 1-.5 5.8 1.3 4.2 4.5 4-1.5 5.6 2.6 6.9-1.5 4.6 3.1 1 2.2-.8 8.1.6 4.5-.7.7 3 2.4 3.4-.3 1.3-2.6-1.6-2.9 3.2-6.7 4.2-3.7 3.3 3 1.9-1.4 1-2.6-3.6-2.4-3.5-4.5-1.8 1.1-1.3-4.4 2.5-.6v-3.9l-2.3-.3v-3l4.3-2.1v-5.2l-3.4.1 2.3-3.3-.4-4.6-2.6-2 1.2-4.4 3.1-1.9.7-1.5-5.4-.8v-2.1l-4.3-3.5-3.7 1.9-4 .4-.9-1.2-5.4.8-2.9-3.4-3-.4-.5 1.1-6.4 1.8-.4 1.6-5 .8-6.3-.9-1-2.5-7 3.9-7 1.3-5.2-.5-1.7-3.4 3-1.1v-2.8l-1.6-1.4-2.3-.1-2.6 1.7-2.2-.6-6.7 3-1.5 3.7-2 1.6-.5 3.2-4.3 2.2-6.2.5-2-6.7-3.9-.8-7.5.3-5-.4-4.1-1.5-1.8-2.8-2.9-1.4-4.1-.1-4.6-3.1-.3-5.2-1.2-1.4-4.3 2-1.6-.7-6.4 2.2.2 4.2-1.5.8.8 1.4 3.6-.9 8.8 1.9-9.3 3-1.1 2.5-2.6.1-2 2.9 3.4 3.4.8 5.1-3.1 4.3-4.2.9-3.5-3.6-1 .9 1.8 2.4-2.6 4-.1 5.1-2.5-.6-1.9 1.4-.2 1.9h-4.6l-1-2.1-3.3.4-1.1.4-1.4 4.8 3 15.7-.6 3.7 4.9-.1-2.5 2.8 2.2.7-3.7 2.7 1.1 4.7-.3 4.1 4.9 5-3.6-.9z"/><path class="st1" d="M171.8 427l2.6-1.2 1.4-6.8-1.2-7.7-2.3-.2h-3.8l-2.4-3.5-1.9.9 1.7 5.8 2.1 2.5 1.2 4.7-.7 1.7z"/><path class="st1" d="M247.3 404.3l.5-.6.3-8-5.9-2.1 4.6-3.7-.4-2.7 1.3-7.3-2-4.4 6-6.7-.2.1-5.1-2.5 2.9-3-.5-1.6 2.7-2.6-1.1-7.8-2.4.4-2.6-3.7-4.4 5.4-4.2 1.1-.2 3.6-5.2 6.7-3.7-1.6-3.7 3 .3 6.7-3.6-1.1-6.4 1.3-1.4-2-1.7.8-3.6-2.2-.9 1.1 2 6.8-1 3.3-8.2.2-2.3 2.2-4.5-2.1-2.1 1.8.2 2.4-4 1-.5 2.3-3.4 1.3-2.3-1.9-1.6 2.1h-1.6l1.7 2.8-.4 2.1 2.6.7.4 3.9-3.7 8.6-3.4-.2-1.1 1.7 2.3.2 1.4 8.9-1.6 7.8-3.4 1.4v1.4l3.7 2.3.7 4 2 1.6 2.3 10.7 1.7 2.7 1.9 8.8 2.8 15.4.6 1.8 1.9-.2 3.8 3.5 3.8.8 2.7 7.3 5 4.4 3.1.8 1.8 2.7 4.7-.2 8.2 7.1 8.5 1 2.2-4.1 4.2 1.2 4-1.4 3.6.2 1.3-2.5 4.2-1 1.8-2.7-1.7-1.5-4.7-.1 3.3-6.8-1.2-1.8 1.2-3.4 2.2-.1 2.3-4.1 6.4.4 3.2 1.6.2-1.6 4-2.2 3.2-5.5-4.7-3.6.4-4.7-3.7-.2-2.4-2.5-1.1-3.8-2.9 1.4.4-3.4-1.9.3v1.2l-4.9 3.3-4.1 1.1-1.3-3.7-4.3-1.2-.3 2.8h-5.6l1.5-3.5-3.4-6.3 3.8-.6.7 2.7 2.2 1.2 4.1-.1.8 1-.9-3.4 2.6-1.1-3.6-2.7-2.1-.1-2.3 2.5-3.8-.7-1.3-3.9 1.3-1.1-3.5-2.4-.3-2.9 1.8-5.4-2.3-1.7 1.6-3.4 6 2.1 1.8-2.3-.4-3.4-1.6-1.1-1.4-4 2.6-3.8-1-5 3-2.3z"/><path class="st1" d="M332.1 373.8h.1v-10.7l-2.1-.2-2.5 1.5-1.8-2-1-5.7-3.6-3.3-1.8-4.1-3.9-4.1-3.3.2-1.8-2.8-3.9.4-4.6-3.6 1.3-1.3-.6-4.1.8-7.9-.6-1.6-3.8-2.5-6.9 1.5-5.4-2.6-4.4 1.7-4.4-4.9-5-1.1-1.4.7-1.7-1 .8 1.8-2.4 6.2-2.8 2.4-.2 3-6-1.5-1.4 4.3-1.5 1.4 3.4 4.9-4.7 3.6-.9 3-2 .4-1.7 3.3.6 1 .2-.1.1.6.5.7h-.4l1.3 8.5-2.7 2.6.5 1.6-2.1 2.2 3.1 1.5 3.6-.7-8 8.9 1.8 4-1.3 7.5.4 3.3-3.4 2.7 4.9 1.4-.5 9.4-.3.4h.1c1.4.1 3.2.2 4-.2.2-.1.4-.1.6 0 1.8.6 3.7.8 5.6.5.1-.4.4-.6.7-.7.6-.1 1 .4 1.4.8.1.2.3.3.4.5.1-.3.4-.4.7-.3h.3s0-.2.1-.3c.1-.7.6-1.2 1.2-1.4.2-.2.3-.5.3-.8.1-.5.3-1.1.9-1.3.3-.1.6 0 .9.1.2-.1.4-.2.7-.4.3-.2.7-.4 1-.6.9-.4 1.8-.4 2.7 0 .4.2.9.3 1.3.2.2-.4.6-.7 1.1-.8.7 0 1.3.3 1.7.8.2.2.5.4.8.5.1 0 .1 0 .2.1.5.3 3.1-1 3.7-1.5 0-.1-.1-.2-.1-.3-.2-.4-.3-.8-.2-1.2.2-.3.5-.6.8-.7h.3c.3 0 .7-.1.9-.4.6-.5 1.4-.7 2.1-.4.3.1.6.1.9.2.5.1 1 .2 1.6.3.3 0 .4-.1.4-1 0-.2 0-.4.1-.6l-.1-.1c-.5-.6-.6-1.3-.4-2 .3-.6.4-1.3.2-2 0-.2.1-.4.3-.6.2-.1.3-.3.4-.5.3-.8 1.2-1.2 2-.9.9-.2 3-.9 4-1.2.2-.1.4-.1.5 0 .2.1.3.1.8-.2.4-.4 1-.6 1.5-.5.7-.3 1.4-.5 2.1-.7.7-.7 2.2-.5 3-.1.8.4 1.5.9 1.5 1.5l.1.1c.4-.1.8-.4.9-.8 0-.2.2-.3.3-.4.6-.3 1.1-.9 1.3-1.6-.7-.5-1.5-1-1.5-1.9 0-.6.4-1.2.9-1.5.3-.7 1-1.1 1.7-1.1.6-.1.9-.2 1.1-.7l.3-.3c1.2-.5 3.3 1.1 3.4 1.1.1.1.2.2.2.4.2.9.7 1.8 1.2 2.5l.1.1c.2-.1.4-.2.6-.2.6 0 1.1.3 1.4.8.2.3.5.5.9.6.4.1.8.2 1.2.2-.1-.2-.2-.4-.3-.5-.2-.3-.2-.7.1-.9.2-.2.3-.6.2-.9-.1-.1-.2-.1-.5 0-.9.3-1.8.2-2.6-.3-.4-.1-.9-.3-1.4-.4-.3-.1-.6-.4-.5-.8 0-.2.2-.3.3-.4.1 0 .1-.4.1-.9s0-1 .5-1.2 1 .4 1.4.8l.1.1c.1-.1.2-.3.3-.5.3-.5.7-1.2 1.3-1.3.5-.4 1.1-.5 1.8-.4.8.2 1.7.6 1.8 1.4h.6c1 0 2.1.1 3 .6.4.1.9-.6 1.5-1.2.6-.9 1.4-1.6 2.4-1.9.5-.4 1.2-.7 1.9-.7.4 0 .8-.1 1.1-.3-.1-.3 0-.6.1-.9.4-.9 1.6-1.1 3.1-1.3z"/><path class="st1" d="M332.3 375.2c-.6 0-1.3.2-1.9.5v.1c.1.2.1.4 0 .6-.5.8-1.4 1.2-2.3 1.2-.5.1-1 .1-1.1.3-.1.2-.3.3-.5.3-.6 0-1.2.8-1.8 1.5-.8 1-1.7 2.1-3 1.6h-.1c-.8-.3-1.6-.5-2.4-.4-.6 0-1.2-.1-1.7-.3-.3-.2-.4-.5-.3-.9-.3-.2-.6-.3-1-.3-.1 0-.3 0-.4.1-.1.2-.3.3-.5.3-.2.2-.4.5-.5.7-.3.5-.7 1.2-1.3 1.2-.3 0-.6-.1-.8-.3 0 .1 0 .2-.1.3l.6.2c.8.3 1.4.5 1.7.3.7-.4 1.6-.2 2.1.5.4.6.4 1.4 0 2 .4.5.4 1.1.1 1.7-.4.6-1.3.8-2.6.4-.6-.2-1.1-.5-1.5-1-.1-.1-.2-.2-.4-.3-.1.1-.1.2-.2.3-.1.2-.3.3-.5.3s-.5-.1-.6-.3c-.2-.3-.4-.5-.5-.8-.6-.8-1.1-1.7-1.4-2.7-.5-.4-1.1-.7-1.7-.8-.5.6-1.1.9-1.9 1-.6.1-.7.2-.8.5 0 .1-.1.2-.2.3-.5.4-.5.5-.5.5 0 .2.6.6.9.8l.3.2c.2.1.3.4.3.6-.1 1.2-.8 2.2-1.8 2.8-.4.8-1.2 1.4-2.1 1.5-.7 0-1.3-.5-1.4-1.1v-.2c-.4-.3-.9-.5-1.5-.6-.3-.1-.6 0-.8.1-.1.1-.2.2-.4.3-.8.2-1.6.4-2.3.8-.2.1-.4.1-.6 0-.1 0-.2 0-.5.3-.5.5-1.2.6-1.9.5-.8.3-3.3 1.1-4.2 1.2h-.4c-.3-.1-.4-.1-.4-.1-.1.1-.2.2-.3.4-.1.2-.3.4-.5.6.1.7 0 1.5-.3 2.1-.1.3 0 .5.3.9.1.1.2.3.2.4.1.2.1.3.1.5-.1.2-.1.4-.1.7-.1.8-.2 2.1-1.8 2.2h-.2c-.5-.1-1-.2-1.4-.3-.4 0-.7-.1-1.1-.2h-.1c-.3-.1-.4-.1-.9.2-.4.3-.9.5-1.4.6.3.5.3 1 .1 1.5s-2.4 1.6-3.5 2c-.6.3-1.4.3-2 0-.5-.2-.9-.5-1.2-.8-.2-.2-.5-.5-.7-.5-.2 0-.1 0-.3.3-.1.1-.1.2-.2.2-.8.3-1.7.3-2.5-.1-.8-.2-1.2-.4-1.7-.1s-.7.4-1 .5c-.4.2-.8.5-1.2.6-.2.1-.5.1-.6-.1l-.1.2c-.1.7-.5 1.3-1.1 1.6h-.1c-.2 0-.2.1-.4.5-.1.7-.7 1.2-1.4 1.2-.2.2-.4.4-.7.4h-.1c-.6 0-1.1-.5-1.5-1l-.1-.1c-.2.2-.4.3-.6.4-2.1.4-4.3.2-6.3-.4-1.4.3-2.9.4-4.3.2-.8-.1-1.5-.1-2.3 0-.2 0-.3 0-.5-.1l-4.8-.3-2 1.5 1 4.6-2.6 3.8 1 3 1.8 1.1.6 4.6-2.8 3.5-5.8-2.1-.6 1.4 2.3 1.5-2 6.2.1 1.9 4.5 3-2 1.7.8 2.3 2.4.5 2.1-2.5 3.1.3 5.8 4.1-3.6 1.7 1.2 4.8-.5.3-2.8-2.1-3.9.1-3-1.8-.5-2.1-.8.2 2.8 5.3-.9 2.1h2.4l.3-3 6.5 1.8 1.1 3.1 2.8-.7 4.2-2.7v-1.8l4.7-.7-.4 2.8 2.1-1 1.5 5 1.8 1.9 4.5.2-.4 5.3 4.9 3.8-3.8 6.9-3.8 2-.2 1.5 3.5 2.5 3.2-2.9 1.4-5 2-1.5 5.4-1 4.7 1.1 1.9-2.1 3.6-1.7.6-2.5 5.8.8 2.2 1.3.5-1.2 6.7-4h.1l-1.7-3.1 2.9-3.7 1.1 1.9.2-3.1-1.5-3.4-.9-6.3 1.6-7-1.8-3.3-1.4-7.2 1-7 4-8.6 2.3-2.6 4.5-2.4 5.6-.2.5 2.5 1.3-2.9 2.6 1.2 3-2.8 2.2-7.8.4-.2v-21z"/></g><g id="Layer_1_copy"><path id="background_1_" class="st2" d="M332.3 0h332.3v614.7H332.3z"/><title>map-full</title><path class="st3" d="M380.9 217.4l.9 3.1 3.1 2.6 1.8 5.1 1.8.4 2-2.5 1.3 3.4-1.1 3.4 1.1-.2.5 6 1.7 3 4.7.5.7 2.8-3.7 4.6-4 3.4 3.2 2.8 5.4 1.1 2.2-2.1 8.2-.2 4-2.3.9 6.2-1.8 3.2 1.8.1 2.3 1.5 4.2-3.1 5.5 1.9 3.2-1.8v3.2l1.7-.3.9-1.5v-6.4l-1.2-2.9 2.9-1.8 7.5 5.1 2.4-.3 4.4 2.5 2.4-1.5-2.7-3.4.5-1.5-2.7-1.2-.6-1.8-4.3-2.4.8-4.8-6.1-.3-2.7-2.8-3-.2-1.6-2.7 1.2-3.5-2-2.1 4.4-.9.5-2.5 3.1.7 1.8 2.7 1.9-1.1 2.5-3.2 7.1-2.2 1.6-4.8 4.9 2.3 2.7-.8.6-2.7 4.4-2-.1-1.8 3.5-1.5-.7-1.9 2.1-1.3 1.3-3.9-1.5-2.8h3l-.1-6.2-2.4-4.5-.1-2.7-4.8-1.9-2.1 3.3-2.2.2-.4 2.2-3.1 2.4-1 9.2-2.9-.3-.6 2.1-3.5-1.4-3 .7-3 5.5-4.6-2.5.2-2.5h-2.4l-3-4-2 1-3.4-1.5-1.5 2.2.4 2.1-3.3 2-3-.1-9.2 4.1-3.4-3.2-2.7 2.6-4.2 1.8-4-3.7-.2-1.4-4.2.7-1.1-2.5-2 1.6-5 1-3.5-.5-1.8.5 1 2.8-2.2 4.8z"/><path class="st3" d="M380.3 140h-4.2l-1.3 3.4-4.1-2.9-8-1-2.2-4.7-4.9.6-7.2-5.2-3.4 1.4-9.2-5.5-.9-1.6-2 .9-.6-1.1v67.9l6.3-.8 1.2 2.9 4.7 1 1.5 2.7 8.1 3.1.8 2.9 2-1.6 8.3 1.3-.9 3.2.7 3.8-.7 4.4-1 .6 2.4 3.5 3.1 1.7 4.6-.7 2.5-4.3 2.3-4.8-1.4-3.6 2.8-.9-.3-4.4-3.2-2.3-.8-7.7 1.2-1.8 10.9-7 5.3-5.3 2.1 2 2.6-2.7 2.6 1.5 1.4-.7-1.1-1.8-2.9-1.6-2.5.3-4.6-4.3-1.9-3.8 4.2-1.4-.1-1.6-6-1.7 4.5-5.1h4.5l-1.8-1.6-.2-2.5-3.4-1.1-3-7-1.7-2.6z"/><path class="st3" d="M400.4 142.5l-5.8-.9-4.1-2.7-1.2 1.3-3.1.3.2 1.1 1.4 2.2.5.6 2.8 6.6 3.6 1.1.2 2.9 4 3.5h-7.3l-2.7 3.2 4.8 1.3.3 3.6-3.8 1.2 1.2 2.3 3.9 3.6 2.3-.3 3.7 2 1.9 3.4-3.2 1.5-2.4-1.3-2.8 2.9-2.1-2-4.5 4.5-10.7 7-.8 1.2.6 6.5 3.2 2.3.4 5.1 3 .4 4.4-.8 3.2-2.4 1.3 3.1 4.6-.7.2 2.2 3 2.7 3.4-1.4 3.3-3.2 3.6 3.4 8.8-3.9 2.8.1 2.3-1.2-.4-1.7 2.5-3.6 3.8 1.7 2.4-1.2 3.2 4.3h3.2l-.2 3 2.6 1.5 2.8-4.9 4-.9 2.5 1 .4-1.7 2.7.3 1-8.4 3.1-2.6.4-2.6 2.6-.2 2.5-3.7 5.6 2.3.5-.7-2.2-2.9 5.1-3.9 1.7.6-.5-2.8-5.4-4.5.5-3.8 3.1-3.5 6.1-5-2-3.5-1.5.3-2.3 4.5-2.7-2.3-5.6 2.2-4.1-.7-1.1 1.7-6-1.9-.9-2.9-6.3 3.8-9.1-4.2-1.7.8-4-1.5-4 2.2-2.8-2.2-.7-3.7-1.3-.6-6.5 3-2.7-2.6-3.1.2-2.2-2.6-6.2-1.6.2-4.4zM472.5 140.4l2.1 2.2 4.9.8 2.9-2.3 4.4.4 2.5-3.3-2.3-1.7-1-3.6 1.9-7-.8-3.1-3.9-1.9-4.5 2.9-4.7 1.1 1 3.5-2.5 6.7zM357.3 203.8l-3.2 2.4-1-4.1-8.1-3.1-1.3-2.5-4.9-1-1-2.7-5.2.6-.3 1.4v59.4l2.2-.3 1.5 1.2 4.3-2.3 2.5-2.4.4-4.5 3.3-2.1.1-2.4 4-1.3.9-3.6-3.9-2.4-1.3-2-3.4-1-2.4 1.6-1.8-2.7 2.1-3.1-1.8-5.2 4.6 2 3.2-.9 3.1 1 9.4.4 4.7-3.3.5-1.1-3-4.5 1.6-1 .5-3.6-.7-3.8.7-2.2z"/><path class="st3" d="M374.2 221.4l-5.6.9-3.1-1.7-.5 1.1-5.3 3.9-10.1-.6-2.8-.8-3.4.9-2.2-1 1 3-1.9 2.9.6.9 1.8-1.2 4.4 1.2 1.5 2.2 4.5 2.8-1.5 5.2-3.8 1.3-.1 2.2-3.3 2.1-.4 4.3-3 2.9-5.2 2.8-1.7-1.4-1.8.2v106.3l3.1.4.8-1.3 2.1-9 4.6-2.3 3.5-4.1 1.4-3.5 3.7-1.4 1.6-5.6-1.4-2.4.1-6-2.9-3-.1-6-4.9-3.5 3.3-5.2 7.1 3.7 1.1 2.4 1.6-1 5 1.2v1l1.7-1.1-.3-2.3-1.4.2-4.9-2 .1-8.6-1.7-2.9v-8l2.7.3 2.1-2.2 2.4-4.8 6.9-.7 2.4 1.4 2.1-1.2 1.8-4.6 1.3.4-.6-3 3.2-7.5 1.5-.6-.9-2.6 2.1-5.7 8.1-5.8-.5-1.5-.4-.4.3-.2-.5-1.7 1.2 1 4.1-3.5 3.2-4-.3-1.2-4.5-.5-2.1-3.8-.5-4.8-1.7.4 1.5-5.2-.3-.8-1 1.3-3.4-.6-2-5.5-3.1-2.6-.7-2.9-3.1-1.4zM602.3 490.2l.4-2.1-1.2-.5-2.3 3.6 5.4 3.7-2.3-4.7zm-1.3.7l.1-.2.3.5-.4-.3z"/><path class="st3" d="M601 490.9l.4.3-.3-.5zM591.2 525.7l.9-1.3v-4.5l-.9-1.6-2.4 1.9 1 3.4-.6 1.6zM599.2 486.5l2.1-7.9-1.1-8.5-1.5-.8 1.1-.9 1.5-1.6 1.2-5.9-1.7-1.5 1.1-1.7-.8-4.8-3.2 1.3-2.4 5.6.7 2.2-1 8.6-1.6 1.3 1.3 3.4-1.3 1.5.2 6 1.4 2.7-1.9-.2-1 2.5-.2 5.6-2.4-.5 2.1 5.1 1.7 10.7 3.4-8.5.6-6.2-1.5-2.2.2-2.2zM617.6 577.8l-3.2 2.8 1.5 2.8.6 1.4 1.2-.3-.1-6.7zm-1.2 3.8l-.4-.6.4-.3v.9zM620.7 603.4l-.6 5 1.9.5 3 5.8h.8l1.5-1.6.9-5.5-2.2-5.4zM614.1 583.5l-3.3 2.7 5.9 2.9-1-3.4z"/><path class="st3" d="M616.4 581.6v-.9l-.4.3zM457.8 275.1l3.1-2 5.2-1.4-1.2-3-2.9-.5-1.8-3-2.8 1.2-1.6-3.4-6.4-3.5-.3-.2-1-.6h.1l-3.4-1.9-2.6.3-7.1-4.9-1.3.8 1 2.1v7l-1.5 2.3-3.9.5v-2.4l-1.6 1-5.5-1.9-4.4 3.3-2.7-1.9-3.6-.1 2.6-4.6-.5-4-2.6 1.5-8 .2-2.4 2.3-6.4-1.3-2.4-2.1.1.6-8.5 6-1.7 4.9 1.1 3.4-2.1.8-2.8 6.7.8 4.6-2.1-.6-1.6 4-3.1 1.6-2.6-1.4-5.9.5-2.2 4.4-2.5 2.8-2-.3v6.2l1.8 2.9-.1 8.2 3.7 1.4 2.2-.3.7 4.4-4.3 2.9v-2.4l-3.6-.8-2.4 1.4-1.5-3.2-5.7-2.9-1.9 3 4.3 3.3.1 6 3.1 3-.1 6.2 1.4 2.6-2 6.8-3.7 1.4-1.3 3.2-3.8 4.4-4.2 2.1-2.2 8.9-.4.7 2.6.1 7.6-4.6 2.9-1.2 4.2 1.2 1.4-.8-.5-3.2 1.5-5.5 2.3-3.2 4 5.4-.1.8 3.3-1.9 5.3-.9.7-2.4-1.3-2.8 2.6-3.4 1.9.4 3.4-2.4-2.7-3.6 4.6.7 3.8-4.2 2.8 4.6 1.4-1.8 2.6 5.1 5.3.3 3.1-.6 4.4-5.1 3.9-3.3 1.9.9 8.2-8.1-2.2-.3 3-5.7 5.6-4.3 3.1.8v3.5l3-1.2 7.3-2 6.6-3.4 2-4.7 4.7-2.4 1-5.3 4.5-3.7-3.8-11.3 1.8-4zM513.5 183.3l1-.4 10 2.8 7.8-1 1.8.5 8.7-2.1 5.1 1.2 11.2-2 7 2.1 1.4 1.2 3.3-3.4 4.7-2.1-.5-2.1-4.6-3.1-.1-2.1-4.3-3.4-5.2 2.3 1.4-9.1-1.4-.4-5 1.6-2-.9-1.9 3-3-1.1-1.8 3.7-2.5.8-3.8 3.4-.5-3.5-3.2 1-1.5-2.7h-4l-5.5 1.8.1-2-2.9-.4-4.6 1.6-3 3.6-.4 2.2 1.5 2.6-3.9 3.8z"/><path class="st3" d="M472 144l2.3 2.2 2.3 6.1-1.2 4 1.6-.3 1.4 2.3 1.6 2.8-6.8 5.8-2.8 3.1-.3 2.6 5.2 4.5.9 5.4-3.1-1.2-3.5 2.7 2 2.7-1.2 1.7v2.5l2.4 4.5.3 7.8h-2.2l.7 1.4-1.7 4.9-1.5 1.1.7 1.9-3.7 1.7.1 1.8-4.6 2.2-.6 2.7-4.1 1.2-3.9-1.9-1.4 4-7.3 2.4-2.6 3.1-3 1.8-2.2-3.3-1.3-.3-.5 1.9-2.8.7 1 .9-1.4 3.7 1 1.7 2.8.2 2.7 2.8 7.1.3-1 5.4 3.9 2.2.6 1.6 3.3 1.4-.7 2.1 3.3 3.8-3.1 2.1 6.1 3.3 1.2 2.8 2.8-1.2 2 3.4 3.1.5 1.5 3.8 4.2-1 5.4-4.3 4.2-8.4 2.3 2.9-1.6 2.9 1.4 3.4-.4 2.8 1 1.8 1.9-2.8 1.8 1.1-.2-2.3 3.1-3-.6 7.6.5-.2 2.7-11 1.2.2-.4 7.7 1.2 2.3 2.3-2.5 2.6 1.4 1.1-1.1-1.9-5.3 1.2-.9V258l-4.4-13.6.7-2.3-2.4-2.6.2-3 1.5-2.1-4.7-.8-.7-1.8 1.3-3.5h-.4l-4.5-4.4 1-5.7 2.4-1.4-1.1-5.2 1.1-1.3-1.7-1.1-3.5-.3-7.5-3.9-3.1-3.8 4-8.1 2.5 1.6 1.7-3.6v-3.2l4.2-.8 6.4.2.6-2-2.3-.4-1.8-3.6-1.5.7-3.7-.7-2.6-3.5-3.9-3.1-2.2.9-1.7-3.8 1.7-5.9 3-1.8 2.4-5-.8-3.5.1-.1 6.3 3.4 3.3 3.7 2.9-.4-2.6-2 1.8-2.7 4 2.7 1.1 4.6 4.4 2.7 3.3.3V164l2.3-1.2 3.1-3.3.8-4.6-.7-3.7-5.9.4.4-1.3-5-1.4-5.3 1.1-4.9-3.7-3.2-3.5-4-.3-2.9 2.3-5.9-1-1.7-1.7zM623.8 141.5l-1.3-4.5-.7-2.8-2.3 2.2-2.4-.2-4.1 5.3-4 2-2.5 4.8-1.9-1.1-1.4 4-2.9 4.6.1 5.6-1.9 2.6-3.8 1.4.2-1.7-7.2 8.4 2.7 3.3v1.7l2.7 1.4 3.2-5.3-.3-2.6 5.4-.9 4.1.9 2.1-.5 6-5.7-.5 5.4 1.9 1 1.9-1.1 4.3-6-.6-4.4 2.8-3.2-2.6-4.1-.8-5.7 1.5-3.6zM563.9 199.2l-.4 2.3-3.9 1.7-.9 5.1-3.6-2-1.7.7-1.3 2.9-4 .1-.3 2.1-2.5 2.3-1.1 6.5 2.1 3.2 2.1 7.4.2.3-.2-4.3 3.4 2.8 2.7 4.7 3.3-2.9-1.4-4 1.1-2.7 2.8-3.1-.6-6.9 2.5 2.6 2.7-2 2.1.4.8-2.9-.4-7.6-.5-.7-2-.6.5-3.5z"/><path class="st3" d="M594.1 134.9l-2.9 2.7-5 2-2-.8-7.4 1.5-4.4-1.8-12.2 4.4h-2.5l-.8 1.6-3.3-.3-3.9 2-4 .6-2.3-1.4-2.4 2.4-2-.6-9.9 1.7-3-.2-4.2-2.2-3.8 1.5-1.7 2.3-4.4.7.8 3.9-1 5.2-3.1 3.3 4 5.5-.9 2.3 1.3 4.6-.2 3.1 2.3-2.2-1.3-2.2.6-3 3.4-4.2 5.2-1.8 4.5.8-.1 1.2 4-1.3h4.9l1.3 2.4 3.6-1.2.5 2.7 2.2-2 2.1-.6 2.2-4.3 3 1.1 2.1-3 2.4 1.1 5-1.6 2.8.8-1.2 7.9 3.8-1.5 5.3 4.2.1 1.9 4.6 3.1.7 3.7-5.3 2.3-3 3.2 2.3 1.6-2.8 3.2-2.6-1.2-1.3 7.5 2.6 3.2-.5 2.9 1.1.3 2.8-.3.9 2.1 2.7-2.1 2.3-6.5 2.5 2.5 3.3-.7 1.2-3.9v-6l1.6-.1 3.4-10.1.9-1.5v-1.5l-3.1-3.7 10.8-12.4-.4 3.7 1.4-.4 1.3-2-.1-5.6 3.2-4.9 1.7-5.1 2.1 1.1 2.1-4 4.2-2 4.3-5.7 2.6.2 2.3-2.2v-.1l.3-.2.7-.7.1.2 4-2.7 2.4-3.7 2.5.9 4.9-1.7 1.6-1.8-.4-.8-1.9 1.5-.6-4.5-3-3.7 2.8-6.3-3.8.5-3.3 2.5-4.9.7-16.8 9.3-4.4-.7.3 2.3-7.6 8.6z"/><path class="st3" d="M589.9 178.4l-.6 1-3.6 10.7-1.2.1-.1 5.1-1.3 4.3.1 6.6 1.9.7 3.9-.1 1.7-1.4 2.3 2.7 3-1.3 4.4 1.4 4.3.1 1.9 1.1 1.3-3 1.5-7.7 4-9.8 1.4-1.2 1.8-6.4-.6-2.2-3.4-2.3 1.6-5-2.5-1.2.3-2.8-3.8 3.5-2.7.7-4.1-.9-4 .5.3 1.8-4.2 6.9z"/><path class="st3" d="M568.2 219.2l2.8 7.4-.4 2.9.9 4.7 3.6 6 2.7 12.2.3 3.4.4-.3.5-3.9 4.8 3.2 1.9.3.6-4.8 2.6.1v-3.8l-1.6-2.8-1-6.5 1.9-2.6-1.3-3.3 4-.7 1.2-2.3.1-11.9-1.3-2-2.1-6.4-3.9.2-2.9-1.3-.2-6.7-3.6.7-1.5-1.5-1.9 4.9-4.3 3.5-1.1-2.9-1 .1.2.4.6 8.2-1 3.5zM662.9 99.7l-4.1-2.6-3.1 1.4-6.5-5.5-2.1.4-1.2 5.6-2.9-6.6 3.2-2.8-.6-1.8-5.1-5.6-3.2 2.2-1.2-3.2 2.9-1.9V78l-2.2.8-1.7-2.6-7.2 1.6-.2 3.1-2.9-.4-1.3 2.9-4 .4-.4 2.2-7.6-2-3.8.5-3.2-2.9-1.5 1.9-2.7.9-1.8 2.1 1.9 1.7-4.6 4-10.2 6.5-3.6.4-5.2 4.6-1 3-4.9 4.9-3.3 2 .9 1.2-1.4 3.6-6.8 3.8-4.7.2-1.9 1.9-6.8-.1-.3 4 2.9 2.4 4.7-1.9 3.1 4.4-1.5 3.7 1.9 4.8h2.3l12.4-4.5 4.6 1.8 7.4-1.5 1.8.8 4.4-1.8 2.3-2.1.2-2.5 7.4-8.4-.3-3.5 5.6.9 16.7-9.1 4.6-.7 3.3-2.5 6.6-.9-3.4 7.7 2.6 3.3.4 2.7 1.5-1.3 1.2 3.2-2.2 2.8-5.7 1.9-1.9-.7-2 3.1-4.7 3 .9 3.3 1.3 4.3 2.1-.9 1.8-3.2 2.1-.5 3.5-4.4 2.1-1.1 2.2-4 2.7-2.1 7.6-1.8 1.5-1.7 4.2-.3 2.4 3.6 3.8 1.6 1.1-.7-5.3-5.5-1.5-5.3 7-8.1 2-.2.2-1.6-1.8-2.2zM337.9 366.2c0-.2.1-.5.3-.6.6-.4 1.2-.7 1.9-1 .6-.2 1.2-.6 1.7-1 .1-.1.3-.2.4-.1.3 0 .3-.1.4-.3 0-.4-.1-.8-.4-1.1l-2.5 1.6-3.9-.2-.4-.1h-1.1l.1-.1-2.2-.3v10.7c1.1-.2 2.4-.4 2.8-.9l.1-.1c.6-.4.8-1 1-1.9.1-.5.2-.9.4-1.3-.3-.8.3-1.6.7-2.1s.7-.8.7-1.2z"/><path class="st3" d="M335.8 394.7l7.8 1.4 5-1.9 6.6-3.8.4-2.2-1 .7-1.9-.7.2-1.3h1.1l1.6-.2.2.5.4-2.3-2.1-.1.9-4.7 4.2-4.4 5.4-3.3 3.9-1.5 7.3-4.2 4.9-7.2 3.5-3.4 9.9-5.3 1.5-2.4 6-6.2 5.2-6.8 2-3.7-.7-.1-3.2 2.7-4.7 5.3-3.7.8-6.1-.5-2-3.9-1.4 1.6-2.8-4.6-3.2 3.4-2-.3 1.5 2-5 3.6-1.5-.4-1.6 2.2 1.1 2.4-1.1 3.8-6 .9-5.4 3.3.5-3-2.6-3.6-1.2 1.7-1.2 4.8.5 3.8-2.6 1.6-4.4-1.2-2.4 1-4 2.5c.5.6.7 1.4.5 2.1-.1.7-.7 1.2-1.4 1.2-.6.4-1.2.7-1.9 1-.5.2-.9.4-1.4.7-.1.7-.5 1.3-1 1.9-.5.6-.6.8-.5.9.2.2.2.5 0 .7-.2.4-.3.8-.4 1.3-.1 1.1-.6 2-1.4 2.7-.8.8-2.2 1-3.7 1.2h-.2v21l3.6-1.5z"/></g></svg>