<svg id="Layer_2" data-name="Layer 2" xmlns="http://www.w3.org/2000/svg" viewBox="0 0 486.65 367.08"><defs><style>.cls-1{fill:#154f76}</style></defs><path class="cls-1" d="M260.88 50.39l.72 2.47 2.46 2.07 1.44 4.06 1.43.32 1.59-1.99 1.04 2.7-.88 2.71.88-.16.4 4.78 1.35 2.38 3.74.4.56 2.23-2.95 3.66-3.18 2.71 2.55 2.23 4.29.87 1.76-1.67 6.53-.16 3.18-1.83.71 4.94-1.43 2.55 1.43.08 1.84 1.19 3.34-2.47 4.38 1.51 2.55-1.43v2.55l1.35-.24.72-1.19v-5.1l-.96-2.31 2.31-1.43 5.97 4.06 1.91-.24 3.5 1.99 1.91-1.19-2.14-2.71.39-1.19-2.15-.96-.47-1.43-3.43-1.91.64-3.82-4.86-.24-2.15-2.23-2.39-.16-1.27-2.15.96-2.79-1.59-1.67 3.5-.71.4-2 2.46.56 1.44 2.15 1.51-.87 1.99-2.55 5.65-1.75 1.27-3.82 3.91 1.83 2.15-.64.47-2.15 3.51-1.59-.08-1.44 2.78-1.19-.55-1.51 1.67-1.04 1.03-3.1-1.19-2.23h2.39l-.08-4.94-1.91-3.58-.08-2.15-3.83-1.51-1.67 2.63-1.75.15-.32 1.76-2.46 1.91-.8 7.32-2.31-.24-.48 1.68-2.78-1.12-2.39.56-2.39 4.38-3.66-1.99.16-1.99h-1.91l-2.39-3.19-1.59.8-2.71-1.2-1.19 1.75.31 1.68-2.62 1.59-2.39-.08-7.32 3.26-2.71-2.54-2.15 2.06-3.35 1.44-3.18-2.95-.16-1.11-3.34.56-.88-2-1.59 1.28-3.98.79-2.79-.39-1.43.39.8 2.23-1.75 3.83 2.78 1.19z"/><path class="cls-1" d="M184.06 1.91l2.39 7.08-1.83 1.43-.16 3.03-2.71 5.09-.96.8-.47 3.19-5.98 1.35-1.59 2.15 1.68 3.98-.64 3.34-2.71 2.71 1.36 3.02-.56 2.95 2.07 3.5 1.59-1.83 5.02 3.66 2.7-3.82-1.67-2.62h-2.23v-3.75l-1.51-2.78-.4-3.11-1.75-2.62 1.83-3.43 1.99 1.04-.08-3.11 1.75 1.83 1.83-2.15 1.2 2.63-.88 3.9 2.55-1.51-.4 2.15 3.03.16.47-1.75 3.51.16-1.75 2.46.39.72 2.23-1.75 4.94.48-.16-1.52 6.13-3.1 1.99-.16 2.63 5.02-.48.55h.06l-1.34 1.75 1.76-.24V31.2l7.48-1.35-1.43 4.14 3.18.08 1.43.96.96-.88 1.11-3.82 5.58-.64.95 2.31 3.74.79 1.2 2.16 6.44 2.46.64 2.31 1.6-1.27 6.6 1.03-.71 2.55.55 3.03-.55 3.5-.8.48 1.91 2.78 2.47 1.36 3.66-.56 1.99-3.42 1.83-3.83-1.11-2.86 2.23-.72-.24-3.5-2.55-1.83-.64-6.13.96-1.44 8.68-5.57 4.21-4.22 1.68 1.6 2.07-2.16 2.07 1.2 1.11-.56-.88-1.43-2.3-1.27-1.99.23-3.67-3.42-1.51-3.02 3.34-1.12-.07-1.27-4.78-1.36 3.58-4.06h3.58l-1.43-1.27-.1-1.19h-90.81l3.9 1.91z"/><path class="cls-1" d="M177.77.71l2.39-.71h-3.63l1.24.71zm94.26 0l3.18 2.79h-5.81l-2.15 2.55 3.82 1.03.24 2.87-3.02.95.95 1.83 3.11 2.87 1.83-.24 2.94 1.59 1.51 2.71-2.54 1.19-1.91-1.03-2.23 2.31-1.68-1.59-3.58 3.58-8.52 5.57-.63.96.47 5.17 2.55 1.83.32 4.06 2.39.32 3.5-.64 2.55-1.91 1.03 2.47 3.67-.56.16 1.75 2.38 2.15 2.71-1.11 2.63-2.55 2.86 2.71 7.01-3.11 2.23.08 1.83-.95-.32-1.35 1.99-2.87 3.03 1.35 1.91-.95 2.55 3.42h2.54l-.16 2.39 2.07 1.19 2.23-3.9 3.19-.72 1.99.8.32-1.35 2.14.24.8-6.69 2.47-2.07.32-2.07 2.07-.16 1.99-2.95 4.46 1.84.39-.56-1.75-2.31 4.06-3.1 1.36.47-.4-2.23-4.3-3.58.4-3.02 2.46-2.79 4.86-3.98-1.59-2.79-1.2.24-1.83 3.59-2.15-1.84-4.46 1.75-3.26-.55-.87 1.35-4.78-1.51-.72-2.31-5.01 3.02-7.25-3.34-1.35.64-3.18-1.2-3.19 1.76-2.23-1.76-.47-2.46h-3.2l-3.09 1.43L287.18 0h-15.2l.05.71z"/><path class="cls-1" d="M108.99 61.93l-.4 1.52 3.58 1.67-5.33 2.46-2.07.32.39 2.31 1.68 1.59-1.76 3.19-4.05 2.47-1.28.31 3.58 2.79h-3.66v2.15l1.04 2.39-.24 1.91.71.32 3.75-1.75 1.59 1.91.24 3.98 3.02 2.15 3.11.08 2.94 1.27 1.28 2.23 2.86 1.04 3.82.31 5.89-.4 3.91.8 1.59 5.18 3.82-.24 2.78-1.44.4-2.54 1.75-1.28 1.2-3.1 5.97-2.71 1.75.48 1.91-1.35 2.63.23 1.75 1.6v3.5l-1.91.72.56 1.11 3.5.24 5.33-.88 6.29-3.58 1.12 2.47 4.22.56 3.18-.48.32-1.12 5.09-1.43.56-1.19 3.5.48 2.31 2.54 4.3-.64.72.96 2.39-.16 3.42-1.83 4.3 3.58v1.2l3.74.63.56-1.75.16-4.46 1.83-2.46v-1.91l1.75-3.35.87.72.56-1.91 1.67-1.83 1.12-3.67 3.34-.39 1.2.95 3.42-1.83 1.99-1.91.32-3.58 2.63-1.67.07-1.91 3.19-1.04.72-2.87-3.11-1.91-1.03-1.59-2.71-.79-1.91 1.27-1.43-2.15 1.67-2.47-1.44-4.14 3.67 1.6 2.54-.72 2.47.79 7.49.32 3.74-2.62.39-.88-2.38-3.58 1.27-.8.4-2.86-.56-3.03.56-1.75-5.02-.72-2.55 1.91-.79-3.26-6.45-2.47-1.03-1.99-3.9-.8-.8-2.14-4.14.47-.96 3.51-1.91 1.51-1.75-1.27-4.3-.08 1.28-3.83-5.1 1.04.96 1.43-5.74.72 2.71-3.74-1.99-3.75h-1.03l-5.34 2.79.16 1.99-5.73-.48-2.87 2.07-1.35-2.15 1.12-1.51h-.8l-.48 1.75-5.09-.32.24-1.03-2.55 1.67 1.19-5.97-.4-.87-1.51 1.83-.63-.72.07 2.15-2.62-1.35-1.04 1.99 1.44 2.3.39 3.19 1.6 2.71v3.02h1.83l2.3 3.66-3.66 5.26-5.17-3.67-1.91 2.15-3.03-5.09.56-2.95-1.51-3.34 3.02-3.02.48-2.71-1.67-4.3 2.07-2.95 5.65-1.19.48-2.87 1.19-1.03 2.47-4.7.16-3.18 1.51-1.28-1.91-5.97L180 1.11l-2.39.72L174.43 0l-2.63.39-1.28.4-.47 2.15-3.11.24-1.11 1.51-7.01 3.66-1.59.32-1.99 1.99-5.02 2.39-3.1 3.35-2.95 1.11-1.11 1.99 1.03 4.54 1.36 1.27 4.22 1.36 4.21-.4 3.03-2.15 1.27 5.17-1.27 2.31-2.79-.32-5.01 1.44.24 2.31-1.36.79 2.55 1.67 1.75 3.82-3.42 1.44-1.03-.72v2.47l1.51 2.55-3.03 1.99-1.83-2.71-1.75 1.51-1.67-1.11-3.74-.4-1.12-.64-.32 3.11-1.99 1.43-.63 1.83-3.43 1.27-1.51 1.68-2.23-.56-2.07-2.71 1.36-2.54 3.18.87.96-1.51-.96-1.28 1.11-2.22-1.11-2.31 2.39-1.68-1.43-4.06-5.02 1.04-4.54-.64v-4.14l1.75.16.4-1.99-2.23.16-.95 2.71-2.23.48-1.91-1.04v1.11l2.39.32-.32 2.63-3.19.32-1.03 1.99 2.23 1.83-1.91 2.95 1.83.32 1.67 4.37-1.12 2.55.32 3.9-2.23 3.66-4.45 2.23z"/><path class="cls-1" d="M255.55 53.57l-4.46.72-2.47-1.35-.4.87-4.22 3.11-8.04-.48-2.23-.64-2.7.72-1.75-.8.79 2.39-1.51 2.31.48.72 1.43-.96 3.5.96 1.2 1.75 3.58 2.23-1.19 4.14-3.03 1.03-.08 1.75-2.63 1.67-.32 3.43-2.38 2.31-4.14 2.23-1.36-1.12-2.23.24-.95 3.19-1.67 1.83-.88 3.18-1.19-.88-1.12 2.07v1.92l-1.83 2.46-.16 4.38-.47 1.67h.07l-.31.56-.16.4-.88 1.83-2.31 1.35-.79 2.55 1.91 1.43.48 4.46-.88 1.19 1.67-.07v5.89l-3.5 1.67v.8l1.91.23v4.86l-1.75.48.39 1.11.96-.71 3.34 4.29 3.43 2.15-1.28 3.19-2.3 1.75-2.63-2.23-2.55 2.15-2.23 4.7 1.28 2.31-1.28 2.54 1.12 1.68 2.62-.16 3.58 3.9 1.28 3.1 3.02 2.79.8 4.54.64.79 1.67-1.03 4.22.55.63-1.03 1.68-7.17 3.66-1.83 2.79-3.26 1.11-2.79 2.95-1.11 1.27-4.46-1.12-1.91.08-4.78-2.3-2.38-.08-4.78-3.9-2.79 2.62-4.14 5.66 2.95.87 1.91 1.27-.8 3.99.96v.79l1.35-.87-.24-1.83-1.11.16-3.91-1.6.08-6.84-1.35-2.31v-6.37l2.15.24 1.67-1.75 1.91-3.82 5.49-.56 1.92 1.11 1.67-.95 1.43-3.66 1.04.32-.48-2.39 2.54-5.97 1.2-.48-.72-2.07 1.67-4.54 6.45-4.62-.4-1.19-.31-.32.24-.16-.4-1.35.95.79 3.27-2.78 2.54-3.19-.24-.95-3.58-.4-1.67-3.02-.4-3.83-1.35.32 1.19-4.14-.24-.64-.79 1.04-2.71-.48-1.59-4.38-2.47-2.07-.56-2.3-2.46-1.12-2.07 3.5zM436.46 265.5l-1.83 2.87 4.3 3-1.83-3.74.36-1.68zm-.36 2.62l.08-.16.24.4z"/><path class="cls-1" d="M436.1 268.12l.32.24-.24-.4-.08.16zm-7.8 27.71l.72-1.04v-3.58l-.72-1.27-1.91 1.51.8 2.7-.48 1.28 1.59.4zm.88-30.18l-.16 4.46-1.91-.4 1.67 4.06 1.35 8.52 2.71-6.77.47-4.93-1.19-1.75.16-1.75 2.39-2.47 1.67-6.29-.88-6.77-1.19-.63.88-.72 1.19-1.27.96-4.7-1.36-1.19.88-1.36-.64-3.82-2.55 1.03-1.91 4.46.56 1.75-.8 6.85-1.27 1.04 1.04 2.7-1.04 1.2.16 4.77 1.11 2.15-1.51-.16-.79 1.99zm19.26 77.23l1-.24-.08-5.33-2.59 2.23 1.19 2.23.48 1.11zm-1.91-1.04l-2.59 2.15 4.7 2.31-.8-2.71-1.31-1.75zM196 275.29l.08-.4.32-.88-1.59-.48.15 1.52 1.04.24zM322.1 96.32l2.47-1.59 4.14-1.11-.96-2.39-2.31-.4-1.43-2.39-2.23.96-1.27-2.71-5.1-2.79-.23-.15-.8-.48h.08l-2.71-1.51-2.07.23-5.65-3.9-1.04.64.8 1.67v5.57l-1.19 1.84-3.11.39v-1.91l-1.27.8-4.38-1.51-3.5 2.62-2.15-1.51-2.87-.08 2.07-3.66-.4-3.19-2.07 1.2-6.37.16-1.91 1.83-5.09-1.03-1.91-1.68.08.48-6.77 4.78-1.35 3.9.87 2.71-1.67.63-2.23 5.33.64 3.67-1.67-.48-1.28 3.18-2.46 1.28-2.07-1.12-4.7.4-1.75 3.5-1.99 2.23-1.6-.23v4.93l1.44 2.31-.08 6.53 2.94 1.11 1.76-.24.55 3.51-3.42 2.3v-1.91l-2.87-.63-1.91 1.11-1.19-2.55-4.54-2.3-1.51 2.38 3.42 2.63.08 4.78 2.47 2.38-.08 4.94 1.11 2.07-1.59 5.41-2.94 1.12-1.04 2.55-3.02 3.5-3.35 1.67-1.75 7.09-.32.55 2.07.08 6.05-3.66 2.31-.95 3.35.95 1.11-.64-.4-2.54 1.2-4.38 1.83-2.55 3.18 4.3-.08.64 2.63-1.52 4.22-.71.56-1.91-1.04-2.23 2.07-2.71 1.51.32 2.71-1.91-2.15-2.87 3.66.56 3.03-3.34 2.23 3.66 1.11-1.43 2.07 4.06 4.22.24 2.47-.48 3.5-4.06 3.11-2.63 1.51.72 6.53-6.45-1.75-.24 2.38-4.54 4.46-3.42 2.47.64v2.78l2.39-.95 5.81-1.6 5.25-2.7 1.59-3.75 3.75-1.9.79-4.23 3.58-2.94-3.02-9 1.43-3.18 2.55-2.95zm44.34-73.08l.8-.32 7.96 2.23 6.21-.79 1.43.4 6.93-1.68 4.06.96 8.92-1.59 5.57 1.67 1.11.95 2.63-2.7 3.74-1.67-.4-1.68-3.66-2.46-.08-1.68-3.42-2.7-4.14 1.83 1.11-7.25-1.11-.31-3.98 1.27-1.59-.72-1.52 2.39-2.38-.88-1.44 2.95-1.99.64-3.02 2.7-.4-2.78-2.55.79-1.19-2.15h-3.19l-4.38 1.44.08-1.59-2.3-.32-3.67 1.27-2.39 2.87-.31 1.75 1.19 2.07-3.1 3.02.47 2.07z"/><path class="cls-1" d="M196.95 272.1l5.26-8.2 1.35-3.58 1.04-7.25.79-2.3-.08-3.9-2.86-4.94-.96 1.19 1.52 3.35h-1.12l-4.86 2.86-.71 1.75-2.55-1.51-3.5-.48-.32 1.68-3.19 1.35-1.83 1.99-4.06-.87-3.82.63-1.11.88-1.12 3.98-3.5 2.94-3.58-2.54-3.03-1.6-4.14-.16-1.83 3.11-1.59.08-.64 1.59.96 1.43-2.15 4.62 2.63.08 2.14 1.99-2.06 3.26-3.35.8-1.03 2.15-3.35-.16-3.34 1.12-2.87-.8-1.59 3.11-7.48-.88-1.43 1.35-1.36-.16.16 1.28 2.55.71 2.86 2.31-1.51 1.83 2.79.16 2.63 3.43-1.28 1.91 1.83.87 1.36 1.91.23.16-1.35 2.95.24 5.49 2.15 1.19 3.9-2.23 1.91 3.27-.95 2.87.63 1.75-1.35 6.05 2.47.55 1.27 1.84-2.86 7.32-1.44 1.91 1.44 2.63-1.28 3.02 1.75 3.11-2.23 4.38-.39.16 2.94 2.3 3.27.88 9.79-5.17 1.11-1.92-.24-3.02 2.47-5.89 4.14-2.87 3.03-.4 6.29-2.54 1.19.16-2.47-3.19 1.43-3.98 4.14-5.57 1.12-.96-.72-2.39 3.27-3.26 3.82-.4 4.14 1.12v-8.84l-2.71-1.99.95-2.07 1.68.16-.08-5.41-3.27.87 2.31-3.18-.64-2.71 1.04-4.3-1.75-.48-.48-3.74 3.19.96.23-.96z"/><path class="cls-1" d="M195.04 292.64l1.36 1.04-.08-1.6-.96-.07-.32.63zM337.39 1.51l1.11 1.83.01-.01 1.26 2.24-5.41 4.62-2.23 2.46-.24 2.07 4.14 3.59.72 4.29-2.47-.95-2.78 2.15 1.59 2.15-.96 1.35v1.99l1.91 3.59.24 6.2h-1.75l.56 1.12-1.36 3.9-1.19.88.56 1.51-2.95 1.35.08 1.44-3.66 1.75-.48 2.15-3.26.95-3.11-1.51-1.11 3.18-5.81 1.91-2.07 2.47-2.39 1.43-1.75-2.62-1.04-.24-.4 1.51-2.22.56.79.72-1.11 2.94.79 1.35 2.23.16 2.15 2.23 5.65.24-.79 4.3 3.1 1.75.48 1.27 2.63 1.12-.56 1.67 2.63 3.03-2.47 1.67 4.86 2.62.95 2.23 2.23-.95 1.59 2.71 2.47.39 1.19 3.03 3.35-.8 4.3-3.42 3.34-6.69 1.83 2.31-1.27 2.31 1.11 2.71-.32 2.23.8 1.43 1.51-2.23 1.43.87-.15-1.83 2.46-2.38-.48 6.05.4-.16 2.15-8.76.96.16-.32 6.13.96 1.83 1.83-1.99 2.07 1.11.87-.87-1.51-4.22.95-.72v-3.66l-3.5-10.83.56-1.83-1.91-2.07.16-2.39 1.19-1.67-3.74-.63-.56-1.44 1.04-2.78h-.32l-3.58-3.51.79-4.53 1.91-1.12-.87-4.14.87-1.03-1.35-.88-2.79-.24-5.97-3.1-2.46-3.03 3.18-6.45 1.99 1.28 1.35-2.87V26.9l3.35-.63 5.09.16.48-1.6-1.83-.31-1.44-2.87-1.19.56-2.94-.56-2.07-2.79-3.11-2.46-1.75.71-1.35-3.02 1.35-4.7 2.39-1.43 1.91-3.98-.61-2.81.05-.06 5.02 2.71 2.62 2.94 2.31-.31-2.07-1.6 1.44-2.15 3.18 2.15.88 3.66 3.5 2.15 2.63.24V7.88l1.83-.96 2.46-2.63.64-3.66-.12-.63h-28.01l-.53 1.75 1.28-.24zM452.94.03l-.02-.03h-16.53l-.85 1.35.08 4.46-1.51 2.07-3.02 1.11.16-1.35-5.74 6.69 2.15 2.62v1.36l2.15 1.11 2.55-4.22-.24-2.07 4.3-.72 3.26.72 1.68-.4 4.77-4.53-.39 4.3 1.51.79 1.51-.88 3.42-4.77-.48-3.5 1.24-1.42V.03zm-45.58 49.25l1.67.31.64-2.31-.32-6.05-.4-.55-1.59-.48.4-2.79-1.19-1.51-.32 1.83-3.11 1.35-.71 4.06-2.87-1.59-1.35.56-1.04 2.31-3.18.08-.24 1.67-1.99 1.83-.88 5.18 1.68 2.54 1.67 5.89.16.24-.16-3.42 2.7 2.23 2.15 3.74 2.63-2.31-1.11-3.18.87-2.15 2.23-2.47-.48-5.49 1.99 2.07 2.15-1.59z"/><path class="cls-1" d="M365.89.63l-.8 4.14-2.47 2.63 3.19 4.38-.72 1.83 1.04 3.66-.16 2.47 1.83-1.75-1.04-1.75.48-2.39 2.71-3.34 4.14-1.44 3.58.64-.08.95 3.18-1.03h3.9l1.04 1.91 2.86-.96.4 2.15 1.75-1.59 1.68-.48 1.75-3.42 2.39.88 1.67-2.39 1.91.87 3.98-1.27 2.23.64-.96 6.29 3.03-1.2 4.22 3.35.08 1.51 3.66 2.47.56 2.94-4.22 1.83-2.39 2.55 1.83 1.27-2.23 2.55-2.07-.95-1.03 5.97 2.07 2.54-.4 2.31.87.24 2.23-.24.72 1.67 2.15-1.67 1.83-5.17 1.99 1.99 2.63-.56.95-3.1v-4.78l1.28-.08 2.7-8.04.72-1.19v-1.2l-2.47-2.94 8.6-9.88-.32 2.95 1.12-.32 1.03-1.59-.08-4.46.67-1.03h-69.34l.13.63z"/><path class="cls-1" d="M447.09 26.75l1.43-5.1-.48-1.75-2.7-1.83 1.27-3.98-1.99-.96.24-2.23-3.03 2.79-2.15.56-3.26-.72-3.18.4.24 1.43-3.35 5.49-2.87-1.51-.47.8-2.87 8.52-.95.07-.08 4.06-1.04 3.43.08 5.25 1.51.56 3.11-.08 1.35-1.11 1.83 2.15 2.39-1.04 3.5 1.12 3.43.07 1.51.88 1.04-2.39 1.19-6.13 3.18-7.8 1.12-.95z"/><path class="cls-1" d="M426.39 42.99l-3.1.15-2.31-1.03-.16-5.33-2.87.55-1.19-1.19-1.52 3.9-3.42 2.79-.88-2.31-.79.08.16.32.48 6.52-.8 2.79v1.59l2.23 5.89-.32 2.31.72 3.74 2.86 4.78 2.15 9.71.24 2.71.32-.24.4-3.1 3.82 2.54 1.51.24.48-3.82 2.07.08v-3.03l-1.28-2.22-.79-5.18 1.51-2.07-1.03-2.62 3.18-.56.96-1.83.08-9.48-1.04-1.59-1.67-5.09zM6.93 55.32v2.55l3.74 3.43 6.05 3.74 7.72 2.39 2.15-1.84 6.45-1.27.63-1.03 2.79 1.11 1.67-3.98L39.65 64l-3.03 2.23-3.98 6.29-3.9.16-3.5 2.15-.8-1.04-2.31 2.23-.95-1.75-.8 1.28-5.73 1.19.08-2.47-3.11-.4-.48 1.36 3.75 6.05 7 7.32 6.85 9.24 4.62 4.37 3.26 2.39 4.94 2.23h1.91l.24-.56.71.16 7.96-2.23 11.23-5.09.16-1.99 2.54-2.94 1.04-2.87-1.75-2.23-2.79.24-.4-2.79 2.87.48-.48-2.31 3.27-1.59.15-2.71 2.95-4.14-.4 3.35 2.23-.32 6.21 1.43-2.86 2.15-1.99-1.04-1.2.64-.72 2.63 2.15.32-1.91 4.69.96.4 6.92.4-6.84 4.14-.88 1.51.56 1.83 1.99 1.44-.48 2.38 2.63 3.35.48 3.34-1.12 4.86.72 1.83-1.59.24-1.12 1.51-.63 2.79.31-.08 2.39-.32-.63-1.51 3.9-2.63 1.59 4.14 1.59-1.11 1.2.31.07-3.1 1.76-2.87-1.6-2.07 2.23-1.99 3.11 3.19 2.39-.56 1.99-2.79-.48-3.26-3.03-3.03 2.23-3.42 2.07-.08.72-1.83 4.22-1.43-3.03-.56-3.34.72-1.59-2.71 1.51-.8-.16-3.5 5.73-1.91.16-1.67-1.03-2.39.16-3.26h1.59l-2.95-2.31 3.27-.8 3.66-2.31 1.27-2.23-1.35-1.27-.56-3.02-1.35-2.16-4.46-3.9-2.23-1.43-3.5-.24V57l-4.38-3.98 1.35-3.03-.71-2.23-1.76 1.35-3.18-4.21 1.2-2.55-.64-2.63-.64.08-1.51 2.47-3.5-.64-2.87-2.31-2.15 1.36-.64-2.07-5.57-3.66-1.67.71-6.85-.95-5.17.63-3.03-1.19-1.43 1.35.16 1.83 2.55 1.68-3.9.95-3.11 2.31-3.82-1.43-.4-2.39-6.53 1.51-2.7 2.47-5.5-.88-1.67-1.83-4.7-.56-5.65.16-1.11-1.27-2.15.24-.56 6.13-5.41-.56-.52.23v3.44l3.62-1.84 3.27-.56.31.96-6.76 3.74.71 2.23-.95 1.04 2.79 2.22z"/><path class="cls-1" d="M35.98 8.28l2.79 5.09 1.27.4 5.1-.08-.16 5.41 3.1 5.73.32 2.55 2.31 5.73 2.87 1.12 5.01-.64 6.69.96 1.99-.72 6.37 4.14.32 1.11 1.51-1.03 3.34 2.63 2.55.48 1.35-2.31 2.07-.24.96 3.9-1.04 2.23 2.08 2.94 2.06-1.67 1.36 3.98L89 52.7l4.06 3.82v2.47l2.87.24 2.55 1.59 4.69 4.14 1.2 1.99 2.23-.32 3.18-1.51-2.47-1.2.88-2.78 4.46-2.23 1.91-3.19-.32-3.74 1.11-2.39-1.35-3.42-2.63-.64 2.07-3.42-2.07-1.67 1.68-3.27 2.86-.31.16-.72-2.23-.32-.16-3.82 3.19 1.67 1.27-.32.96-2.7 4.29-.32-.87 4.22-1.59-.16v2.07l3.58.48 5.65-1.2 2.07 5.81-2.39 1.52.96 1.99-.96 2.07.96 1.43-1.75 2.79-3.19-.88-.55 1.11 1.43 1.91 1.27.4 1.2-1.51 3.26-1.12.48-1.67 1.99-1.43.48-4.22 2.23 1.43 3.74.4 1.19.8 2.07-1.83 1.99 2.86 1.27-.87-1.11-1.91v-4.7l2.23 1.51 1.83-.79-1.11-2.71-3.67-2.31 2.15-1.27-.24-2.63 5.98-1.75 2.3.32.8-1.36-.8-3.26-2.07 1.35-4.69.56-4.54-1.51-1.83-1.75-1.2-5.18 1.44-2.63 3.1-1.27 3.19-3.26 5.01-2.39 2.07-2.07 1.83-.32 6.61-3.5 1.27-1.67 2.79-.24.32-1.99h-9.51l-2.91 1.35.76-1.35H38.11l-.77 4.77-1.36 3.51zm77.94 262.71l.56-.4.48-.48-1.12.24v.64h.08zM80.96 121.24l.08-.63-1.27-3.43-2.15 1.35 1.27 2.71h2.07z"/><path class="cls-1" d="M132.23 312.94l.64 5.34.87 3.02 3.51 7.96 7.8 9.56 1.75 1.35.56-.24 1.91-3.58-1.75-3.11 1.27-3.02-1.59-2.63 1.83-2.47 2.63-6.61-.8-1.03-3.1-.72 1.51-6.84-.64-1.75.96-2.71-1.12-1.99-3.58 2.07-3.11-1.83-.39-6.29 1.19-2.47-3.18-2.55-.56-.24.08-.15 1.51-2.23-1.83-2.47-4.54-.16 2.31-2.63-1.91-1.51-3.02-.88-.32-3.02v-.32l.47.08 2.23-.72-5.57-4.85-3.9.16-1.59-2.31-2.31-.64-2.39-2.07-2.07-1.75-1.99-5.49-2.71-.64-2.86-2.63-.8.08 1.51 3.58 3.83 7.88 2.31-.27 2.45-.43-2.45 2.46v1.67l3.97 4.46 1.44 3.98 1.35.95 2.55 6.21 1.51 6.13 2.31 4.62 3.18 9.63 2.23 1.36.96 4.53-.88.4-1.67-2.23zM77.14 158.02l2.15 6.69.56 5.81 1.67 6.37.24 9.47 2.15 9.08 3.98 6.13 2.31-1.04 2.07 2.95h2.31l1.59-2.31 2.55.16 2.46-5.89-.15-2.15-2.23-.56.31-2.31-2.14-3.5h2.7l1.59-1.99 2.15 1.75 1.59-.64.48-1.83 2.95-.79-.16-1.6 2.63-2.22 3.58 1.67 1.51-1.44 6.21-.15.48-1.68-1.59-5.57 1.67-2.15 3.02 2.07 1.67-.79 1.28 1.75 4.62-1.04 1.75.56-.24-4.38 3.9-3.18 2.79 1.27 3.5-4.38.16-3.34 3.66-1.04 4.14-5.09 2.55 3.58.95-.24-.63-.95 1.99-3.59 1.43-.31.56-2.07 3.26-2.39-2.71-3.9 1.68-1.6 1.43-4.06 4.46 1.2.16-1.59 2.38-2.07 1.6-4.3-1.75-4.3 3.74 2.55.79-.4 4.62 1.03 3.34 3.59 3.19-1.2 4.46 2.07 5.49-1.19 3.66 2.46.8 1.76-.64 6.44.48 3.59-.56.55 2.39 1.91 2.71-.23 1.03-2.07-1.27-2.31 2.54-5.34 3.35-2.94 2.63 2.39 1.51-1.12.79-2.07-2.86-1.91-2.79-3.58-1.43.87-1.04-3.5 1.99-.48v-3.1l-1.83-.24v-2.39l3.43-1.67v-4.14l-2.71.08 1.83-2.63-.32-3.66-2.07-1.59.96-3.5 2.46-1.52.56-1.19-4.3-.64v-1.67l-3.42-2.79-2.94 1.52-3.19.31-.72-.95-4.29.64-2.31-2.71-2.39-.32-.4.88-5.1 1.43-.31 1.27-3.98.64-5.02-.72-.79-1.99-5.58 3.11-5.57 1.03-4.14-.39-1.35-2.71 2.38-.88v-2.23l-1.27-1.11-1.83-.08-2.07 1.35-1.75-.47-5.33 2.38-1.2 2.95-1.59 1.27-.4 2.55-3.42 1.75-4.94.4-1.59-5.33-3.11-.64-5.97.24-3.98-.32-3.26-1.19-1.43-2.23-2.31-1.12-3.27-.08-3.66-2.46-.24-4.15-.95-1.11-3.43 1.59-1.27-.56-5.1 1.76.16 3.34-1.19.64.64 1.11 2.86-.72 7.01 1.52-7.4 2.39-.88 1.99-2.07.08-1.59 2.31 2.7 2.7.64 4.06-2.47 3.43-3.34.71-2.79-2.87-.79.72 1.43 1.91-2.07 3.19-.08 4.06-1.99-.48-1.51 1.11-.16 1.52h-3.66l-.8-1.67-2.63.31-.87.32-1.12 3.82 2.39 12.5-.48 2.95 3.9-.08-1.99 2.23 1.76.55-2.95 2.15.88 3.75-.24 3.26 3.9 3.98-2.87-.72v2.31z"/><path class="cls-1" d="M94.42 217.25l2.07-.95 1.11-5.42-.95-6.13-1.84-.16h-3.02l-1.91-2.78-1.51.71 1.35 4.62 1.67 1.99.96 3.74-.56 1.36 2.63 3.02z"/><path class="cls-1" d="M98.24 224.34l1.59 1.27 1.83 8.52 1.36 2.15 1.51 7 2.23 12.26.47 1.44 1.52-.16 3.02 2.78 3.03.64 2.15 5.81 3.98 3.51 2.46.63 1.44 2.15 3.74-.16 6.53 5.65 6.76.8 1.76-3.26 3.34.95 3.18-1.11 2.87.16 1.03-1.99 3.35-.8 1.43-2.15-1.35-1.19-3.74-.08 2.62-5.42-.95-1.43.95-2.71 1.75-.08 1.84-3.26 5.09.32 2.55 1.27.16-1.27 3.18-1.75 2.55-4.38-3.74-2.87.32-3.74-2.95-.16-1.91-1.99-.88-3.02-2.3 1.11.31-2.71-1.51.24v.96l-3.9 2.62-3.26.88-1.04-2.95-3.42-.95-.24 2.23h-4.46l1.2-2.79-2.71-5.01 3.02-.48.56 2.15 1.75.95 3.27-.08.63.8-.71-2.71 2.07-.87-2.87-2.15-1.67-.08-1.83 1.99-3.03-.56-1.03-3.1 1.03-.88-2.78-1.91-.24-2.31 1.43-4.3-1.83-1.35 1.27-2.71 4.78 1.68 1.43-1.84-.32-2.7-1.27-.88-1.11-3.18 2.07-3.03-.8-3.98 2.39-1.83 5.33.24.4-.48.24-6.37-4.7-1.67 3.66-2.94-.31-2.15 1.03-5.81-1.59-3.51 4.78-5.33-.16.08-4.06-1.99 2.31-2.39-.4-1.27 2.15-2.07-.88-6.21-1.91.31-2.07-2.94-3.5 4.3-3.35.87-.16 2.87-4.14 5.33-2.94-1.27-2.95 2.39.24 5.33-2.86-.87-5.1 1.03-1.11-1.59-1.36.64-2.86-1.76-.72.88 1.59 5.41-.79 2.63-6.53.16-1.83 1.75-3.58-1.67-1.68 1.43.16 1.91-3.18.8-.4 1.83-2.71 1.04-1.83-1.52-1.27 1.67h-1.27l1.35 2.23-.32 1.68 2.07.55.32 3.11-2.95 6.84-2.7-.16-.88 1.36 1.83.16 1.12 7.08-1.28 6.21-2.7 1.12v1.11l2.94 1.83.56 3.19zM206 183.17a.94.94 0 01.45-.18 1.43 1.43 0 011.15.62 1.53 1.53 0 00.68.52 2.18 2.18 0 00.92.14 1.12 1.12 0 00-.25-.43.52.52 0 010-.72.62.62 0 00.14-.69c0-.08-.18-.09-.37 0a2.77 2.77 0 01-2.11-.21c-.32-.11-.68-.24-1.08-.34a.52.52 0 01-.34-.2 5.28 5.28 0 00.81 1.42zm-.84-1.49c0-.1-.07-.2-.1-.3a.52.52 0 00.1.3z"/><path class="cls-1" d="M226.68 168.69a.52.52 0 01.21-.49 7.43 7.43 0 011.49-.8 5.25 5.25 0 001.39-.8.52.52 0 01.33-.12c.22 0 .27-.07.29-.23a1.11 1.11 0 00-.32-.84l-2 1.26-3.1-.16-.32-.08h-.71l.08-.08-3.42-.4-2 1.19-1.43-1.59-.8-4.54-2.87-2.63-1.43-3.26-3.1-3.26-2.63.16-1.4-2.12-3.1.32-3.66-2.87 1-1-.48-3.26.64-6.29-.48-1.27-3-2-5.49 1.19-4.3-2.07-3.5 1.35-3.5-3.9-4-.88-1.11.56-1.36-.78.64 1.43-1.91 4.94-2.23 1.91-.16 2.39-4.78-1.19-1.16 3.41-1.14 1.11 2.71 3.9-3.74 2.87-.72 2.39-1.59.32-1.37 2.6.48.8.16-.08.08.48.4.56h-.33l1 6.77-2.15 2.07.4 1.27-1.67 1.75 2.47 1.19 2.87-.56-6.37 7.09 1.43 3.18-1 6 .32 2.63-2.71 2.15 3.74 1.16-.4 7.48-.21.29a8.33 8.33 0 003.18-.18.52.52 0 01.49 0 9.55 9.55 0 004.45.39.8.8 0 01.57-.57c.49-.11.8.29 1.15.67a4.6 4.6 0 00.35.38.52.52 0 01.59-.27.59.59 0 00.24 0 .56.56 0 010-.21 1.42 1.42 0 011-1.11 1.44 1.44 0 00.26-.62c.11-.4.24-.85.68-1a.92.92 0 01.73.1c.17-.09.34-.2.53-.32a9.23 9.23 0 01.8-.47 2.45 2.45 0 012.15 0 1.89 1.89 0 001.07.18 1.32 1.32 0 01.88-.61 1.75 1.75 0 011.35.63 2 2 0 00.61.43.53.53 0 01.16.07c.43.21 2.47-.8 3-1.21a.8.8 0 00-.09-.25 1.11 1.11 0 01-.14-1 1 1 0 01.66-.53.51.51 0 01.21 0 1.07 1.07 0 00.73-.29 1.64 1.64 0 011.69-.31 6.37 6.37 0 00.74.13 7.28 7.28 0 011.23.25c.24 0 .3-.1.36-.8a2.13 2.13 0 01.06-.5l-.06-.08a1.67 1.67 0 01-.33-1.59 2.79 2.79 0 00.18-1.59.52.52 0 01.21-.45 1.43 1.43 0 00.33-.42 1.24 1.24 0 011.6-.71 28 28 0 003.18-1 .52.52 0 01.42 0c.15.09.22.07.6-.2a1.46 1.46 0 011.2-.39 15 15 0 011.66-.54c.57-.58 1.74-.36 2.39-.11s1.18.7 1.19 1.16a.1.1 0 00.11.1 1 1 0 00.74-.64.52.52 0 01.26-.33 1.87 1.87 0 001-1.25c-.55-.38-1.17-.8-1.17-1.49a1.54 1.54 0 01.73-1.19 1.59 1.59 0 011.35-.88c.46-.1.72-.16.92-.53a.52.52 0 01.25-.23c1-.42 2.66.88 2.67.89a.52.52 0 01.18.28c0 .1.06.19.09.28a.49.49 0 010-.09.52.52 0 01.33-.42c.07 0 .1-.28.1-.72s0-.8.42-1 .8.28 1.11.61l.08.1a3.73 3.73 0 00.23-.37c.24-.41.53-.92 1-1a1.54 1.54 0 011.39-.29c.62.13 1.34.52 1.46 1.08h.49a5.26 5.26 0 012.39.45c.28.07.75-.49 1.16-1a4 4 0 011.93-1.53 2.39 2.39 0 011.48-.55 2.31 2.31 0 00.92-.23 1 1 0 01.08-.69c.33-.64 1.31-.8 2.44-.95a4.65 4.65 0 002.32-.69l.11-.1c.52-.34.62-.8.8-1.52a5.35 5.35 0 01.28-1.06c-.27-.66.23-1.27.57-1.68s.58-.73.54-1.04z"/><path class="cls-1" d="M243.75 176.78l4.3-2.63 3.1-1.19 5.81-3.34 3.9-5.73 2.79-2.71 7.88-4.22 1.19-1.91 4.78-4.94 4.14-5.41 1.59-3-.69-.44-2.6 2.15-3.74 4.22-3 .64-4.86-.4-1.59-3.1-1.06 1.26-2.23-3.66-2.57 2.66-1.59-.24 1.19 1.59-4 2.87-1.19-.32-1.27 1.75.88 1.91-.88 3-4.78.72-4.25 2.77.4-2.39-2.07-2.87-1 1.35-1 3.82.4 3-2.07 1.27-3.5-1-1.91.8-3.18 2a2.11 2.11 0 01.43 1.69 1.2 1.2 0 01-1.11 1 6.63 6.63 0 01-1.5.8 7.84 7.84 0 00-1 .53 2.82 2.82 0 01-.8 1.47c-.4.49-.45.6-.38.69a.52.52 0 010 .56 3.56 3.56 0 00-.29 1 3 3 0 01-1.15 2.15c-.61.66-1.78.8-2.92 1a5.13 5.13 0 00-1.66.39v.09a.52.52 0 010 .45 2.09 2.09 0 01-1.82.95c-.36 0-.8.11-.89.27a.52.52 0 01-.41.25c-.47 0-1 .65-1.46 1.19-.64.8-1.39 1.65-2.39 1.27h-.08a4.43 4.43 0 00-1.92-.33 3.22 3.22 0 01-1.35-.21.52.52 0 01-.21-.68 1.53 1.53 0 00-.8-.25s-.23 0-.28.08a.54.54 0 01-.44.23 2.55 2.55 0 00-.39.57c-.25.44-.54.93-1.07 1a1 1 0 01-.66-.24 2.16 2.16 0 01-.06.27l.49.17c.63.22 1.07.37 1.35.24a1.27 1.27 0 011.66.42 1.59 1.59 0 010 1.59 1.25 1.25 0 01.11 1.34c-.33.5-1 .61-2 .29a2.27 2.27 0 01-1.2-.8l-.28-.27a1.41 1.41 0 00-.15.22.52.52 0 01-.44.25.45.45 0 01-.45-.24c-.14-.22-.28-.41-.41-.6a6.29 6.29 0 01-1.09-2.14 4 4 0 00-1.39-.65 2.15 2.15 0 01-1.48.8c-.45.09-.56.14-.64.36a.52.52 0 01-.19.26c-.41.29-.42.44-.42.44s.5.49.74.66l.26.18a.52.52 0 01.21.49 2.89 2.89 0 01-1.41 2.23 2 2 0 01-1.64 1.21 1.16 1.16 0 01-1.15-.91.52.52 0 010-.13 2.39 2.39 0 00-1.17-.45 1.06 1.06 0 00-.66 0 .49.49 0 01-.31.22 13.06 13.06 0 00-1.8.57.52.52 0 01-.45 0c-.06 0-.17 0-.39.21a1.54 1.54 0 01-1.49.37c-.66.21-2.61.85-3.31 1a.53.53 0 01-.29 0c-.22-.1-.29-.07-.29-.07a1.22 1.22 0 00-.21.29 2.91 2.91 0 01-.37.51 3.53 3.53 0 01-.26 1.73c-.08.25 0 .37.21.69l.2.31a.52.52 0 010 .41 2.75 2.75 0 00-.07.53c0 .6-.14 1.71-1.45 1.74a.33.33 0 01-.18 0 6 6 0 00-1.15-.24 7.27 7.27 0 01-.88-.16h-.09c-.24-.1-.35-.06-.73.2a2.25 2.25 0 01-1.14.47 1.23 1.23 0 01.08 1.23c-.17.44-2 1.31-2.8 1.59a2.09 2.09 0 01-1.59 0 2.78 2.78 0 01-1-.64 2 2 0 00-.53-.38c-.1 0-.09 0-.24.27a.52.52 0 01-.18.18 2.39 2.39 0 01-2-.06c-.61-.2-1-.31-1.32-.1a8.55 8.55 0 01-.8.44 6 6 0 01-.92.51.52.52 0 01-.51-.07l-.06.19a1.76 1.76 0 01-.89 1.31c-.16 0-.2.09-.29.41a1.1 1.1 0 01-1.15.94.88.88 0 01-.57.32h-.11c-.49 0-.86-.43-1.18-.8l-.1-.11a1 1 0 01-.5.32 10.35 10.35 0 01-5-.35 9.55 9.55 0 01-3.43.18 11.47 11.47 0 00-1.84 0 .52.52 0 01-.38-.1l-3.83-.22-1.62 1.16.8 3.66-2.07 3 .8 2.39 1.43.88.48 3.66-2.23 2.79-4.58-1.59-.48 1.11 1.83 1.19-1.59 4.94.08 1.51 3.57 2.37-1.59 1.35.64 1.83 1.91.4 1.67-2 2.47.24 4.62 3.26-2.87 1.35 1 3.82-.37.22-2.26-1.66-3.1.08-2.39-1.43-.4-1.67-.64.16 2.23 4.22-.72 1.67H148l.24-2.39 5.18 1.46.87 2.44 2.23-.56 3.34-2.15v-1.43l3.74-.56-.32 2.23 1.67-.8 1.19 4 1.43 1.51 3.58.16-.36 4.25 3.9 3-3 5.49-3 1.59-.16 1.19 2.79 2 2.55-2.31 1.11-4 1.59-1.19 4.3-.8 3.74.88 1.51-1.67 2.87-1.35.48-2 4.62.64 1.75 1 .4-1 5.33-3.18h.08l-1.4-2.29 2.31-3 .88 1.51.16-2.47-1.19-2.71-.72-5 1.27-5.57-1.43-2.63-1.11-5.73.8-5.57 3.17-6.88 1.83-2.07 3.58-1.91 4.46-.16.4 2 1-2.31 2.07 1 2.39-2.23 1.75-6.21 3.18-1.35 6.21 1.11 4-1.51 5.25-3 .32-1.75-.8.56-1.51-.56.16-1h.88l1.27-.16.16.4.32-1.83-1.67-.08.72-3.74z"/></svg>