<svg xmlns="http://www.w3.org/2000/svg" viewBox="0 0 612 335.52"><defs><style>.cls-1{fill:#e5e5e5;}</style></defs><title>map-homepage-blue-mobile-01</title><g id="Layer_1_copy" data-name="Layer 1 copy"><path class="cls-1" d="M338.5 3.1l3.2 2.8 5.4 1.1 2.2-2.1 8.2-.2 4-2.3.9 6.2-1.8 3.2 1.8.1 2.3 1.5 4.2-3.1 5.5 1.9 3.2-1.8v3.2l1.7-.3.9-1.5V5.4L379 2.5l2.9-1.8 7.5 5.1 2.4-.3 4.4 2.5 2.4-1.5-2.7-3.4.5-1.5-2.7-1.2-.13-.4h-51.42l-3.65 3.1zM129.8 5.4h-4.6v2.7l1.3 3-.3 2.4.9.4 4.7-2.2 2 2.4.3 5 3.8 2.7 3.9.1 3.7 1.6 1.6 2.8 3.6 1.3 4.8.4 7.4-.5 4.9 1 2 6.5 4.8-.3 3.5-1.8.5-3.2 2.2-1.6 1.5-3.9 7.5-3.4 2.2.6 2.4-1.7 3.3.3 2.2 2v4.4l-2.4.9.7 1.4 4.4.3 6.7-1.1 7.9-4.5 1.4 3.1 5.3.7 4-.6.4-1.4 6.4-1.8.7-1.5 4.4.6 2.9 3.2 5.4-.8.9 1.2 3-.2 4.3-2.3 5.4 4.5v1.5l4.7.8.7-2.2.2-5.6 2.3-3.1v-2.4l2.2-4.2 1.1.9.7-2.4 2.1-2.3 1.4-4.6 4.2-.5 1.5 1.2 4.3-2.3 2.5-2.4.04-.5H129.37l-2.47 1.5-1.6.4 4.5 3.5z"/><path class="cls-1" d="M340.08 0H290.9l-.1 1.1-3 2.9-5.2 2.8-1.7-1.4-2.8.3-1.2 4-2.1 2.3-1.1 4-1.5-1.1-1.4 2.6v2.4l-2.3 3.1-.2 5.5-.6 2.1h.1l-.4.7-.2.5-1.1 2.3-2.9 1.7-1 3.2 2.4 1.8.6 5.6-1.1 1.5 2.1-.1v7.4l-4.4 2.1v1l2.4.3v6.1l-2.2.6.5 1.4 1.2-.9 4.2 5.4 4.3 2.7-1.6 4-2.9 2.2-3.3-2.8-3.2 2.7-2.8 5.9 1.6 2.9-1.6 3.2 1.4 2.1 3.3-.2 4.5 4.9 1.6 3.9 3.8 3.5 1 5.7.8 1 2.1-1.3 5.3.7.8-1.3 2.1-9 4.6-2.3 3.5-4.1 1.4-3.5 3.7-1.4 1.6-5.6-1.4-2.4.1-6-2.9-3-.1-6-4.9-3.5L294 59l7.1 3.7 1.1 2.4 1.6-1 5 1.2v1l1.7-1.1-.3-2.3-1.4.2-4.9-2 .1-8.6-1.7-2.9v-8l2.7.3 2.1-2.2 2.4-4.8 6.9-.7 2.4 1.4 2.1-1.2 1.8-4.6 1.3.4-.6-3 3.2-7.5 1.5-.6-.9-2.6 2.1-5.7 8.1-5.8-.5-1.5-.4-.4.3-.2-.5-1.7 1.2 1 2.58-2.2zM548.3 237.7l-2.3 3.6 5.4 3.7-2.3-4.7.4-2.1zm-.5 3.3l.1-.2.3.5z"/><path class="cls-1" d="M547.8 241l.4.3-.3-.5-.1.2zM536.6 273.7l-.6 1.6 2 .5.9-1.3V270l-.9-1.6-2.4 1.9 1 3.4zM539.1 237.9l-.2 5.6-2.4-.5 2.1 5.1 1.7 10.7 3.4-8.5.6-6.2-1.5-2.2.2-2.2 3-3.1 2.1-7.9-1.1-8.5-1.5-.8 1.1-.9 1.5-1.6 1.2-5.9-1.7-1.5 1.1-1.7-.8-4.8-3.2 1.3-2.4 5.6.7 2.2-1 8.6-1.6 1.3 1.3 3.4-1.3 1.5.2 6 1.4 2.7-1.9-.2-1 2.5zM561.2 330.7l1.5 2.8.6 1.4 1.2-.3-.1-6.7zm2 1l-.4-.6.4-.3zM559.19 335h2.73l-1.02-1.4-1.71 1.4z"/><path class="cls-1" d="M563.2 331.7v-.9l-.4.3.4.6zM246.2 250l.1-.5.4-1.1-2-.6.2 1.9 1.3.3zM404.6 25.2l3.1-2 5.2-1.4-1.2-3-2.9-.5-1.8-3-2.8 1.2-1.6-3.4-6.4-3.5-.3-.2-1-.6h.1l-3.4-1.9-2.6.3-7.1-4.9-1.3.8 1 2.1v7l-1.5 2.3-3.9.5v-2.4l-1.6 1-5.5-1.9-4.4 3.3-2.7-1.9-3.6-.1 2.6-4.6-.5-4-2.6 1.5-8 .2-2.4 2.3-6.4-1.3-2.4-2.1.1.6-8.5 6-1.7 4.9 1.1 3.4-2.1.8-2.8 6.7.8 4.6-2.1-.6-1.6 4-3.1 1.6-2.6-1.4-5.9.5-2.2 4.4-2.5 2.8-2-.3v6.2l1.8 2.9-.1 8.2 3.7 1.4 2.2-.3.7 4.4-4.3 2.9v-2.4l-3.6-.8-2.4 1.4-1.5-3.2-5.7-2.9-1.9 3 4.3 3.3.1 6 3.1 3-.1 6.2 1.4 2.6-2 6.8-3.7 1.4-1.3 3.2-3.8 4.4-4.2 2.1-2.2 8.9-.4.7 2.6.1 7.6-4.6 2.9-1.2 4.2 1.2 1.4-.8-.5-3.2 1.5-5.5 2.3-3.2 4 5.4-.1.8 3.3-1.9 5.3-.9.7-2.4-1.3-2.8 2.6-3.4 1.9.4 3.4-2.4-2.7-3.6 4.6.7 3.8-4.2 2.8 4.6 1.4-1.8 2.6 5.1 5.3.3 3.1-.6 4.4-5.1 3.9-3.3 1.9.9 8.2-8.1-2.2-.3 3-5.7 5.6-4.3 3.1.8v3.5l3-1.2 7.3-2 6.6-3.4 2-4.7 4.7-2.4 1-5.3 4.5-3.7-3.8-11.3 1.8-4 3.2-3.7z"/><path class="cls-1" d="M205.7 329.9l1.4-2.4-.3-3.8 3.1-7.4 5.2-3.6 3.8-.5 7.9-3.2 1.5.2-3.1-4 1.8-5 5.2-7 1.4-1.2-.9-3 4.1-4.1 4.8-.5 5.2 1.4v-11.1l-3.4-2.5 1.2-2.6 2.1.2-.1-6.8-4.1 1.1 2.9-4-.8-3.4 1.3-5.4-2.2-.6-.6-4.7 4 1.2.3-1.2 6.6-10.3 1.7-4.5 1.3-9.1 1-2.9-.1-4.9-3.6-6.2-1.2 1.5 1.9 4.2h-1.4l-6.1 3.6-.9 2.2-3.2-1.9-4.4-.6-.4 2.1-4 1.7-2.3 2.5-5.1-1.1-4.8.8-1.4 1.1-1.4 5-4.4 3.7-4.5-3.2-3.8-2-5.2-.2-2.3 3.9-2 .1-.8 2 1.2 1.8-2.7 5.8 3.3.1 2.7 2.5-2.6 4.1-4.2 1-1.3 2.7-4.2-.2-4.2 1.4-3.6-1-2 3.9-9.4-1.1-1.8 1.7-1.7-.2.2 1.6 3.2.9 3.6 2.9-1.9 2.3 3.5.2 3.3 4.3-1.6 2.4 2.3 1.1 1.7 2.4.3.2-1.7 3.7.3 6.9 2.7 1.5 4.9-2.8 2.4 4.1-1.2 3.6.8 2.2-1.7 7.6 3.1.7 1.6 2.3-3.6 9.2-1.8 2.4 1.8 3.3-1.6 3.8 2.2 3.9-2.8 5.5-.5.2 3.32 2.6h7.13l9.65-5.1z"/><path class="cls-1" d="M245 271.8l1.7 1.3-.1-2-1.2-.1-.4.8zM398 .8l-.7 2.1 3.3 3.8-3.1 2.1 6.1 3.3 1.2 2.8 2.8-1.2 2 3.4 3.1.5 1.5 3.8 4.2-1 5.4-4.3 4.2-8.4 2.3 2.9-1.6 2.9 1.4 3.4-.4 2.8 1 1.8 1.9-2.8 1.8 1.1-.2-2.3 3.1-3-.6 7.6.5-.2 2.7-11 1.2.2-.4 7.7 1.2 2.3 2.3-2.5 2.6 1.4 1.1-1.1-1.9-5.3 1.2-.9V8.1L444.58 0h-48.47l1.89.8zM524.6 2.5l.3 3.4.4-.3.5-3.9 4.8 3.2 1.9.3.6-4.8 2.6.1V0h-11.65l.55 2.5zM91.7 3.8l7.8 1.8-3.6 2.7L93.4 7l-1.5.8-.9 3.3 2.7.4-2.4 5.9 1.2.5 8.7.5-8.6 5.2-1.1 1.9.7 2.3 2.5 1.8-.6 3 3.3 4.2.6 4.2-1.4 6.1.9 2.3-2 .3-1.4 1.9-.8 3.5.4-.1 3-.4-.8-1.9 4.9-3.3 2 5.2 2-1.4 1.5.4.1-3.9 2.2-3.6-2-2.6 2.8-2.5 3.9 4 3-.7 2.5-3.5-.6-4.1-3.8-3.8 2.8-4.3 2.6-.1.9-2.3 5.3-1.8-3.8-.7-4.2.9-2-3.4 1.9-1-.2-4.4 7.2-2.4.2-2.1-1.3-3 .2-4.1h2l-3.7-2.9 4.1-1 .48-.3H89.4l-.5 4.2 2.8-.4z"/><path class="cls-1" d="M27.5 15.5l8.6 11.6 5.8 5.5 4.1 3 6.2 2.8h2.4l.3-.7.9.2 10-2.8 14.1-6.4.2-2.5 3.2-3.7 1.3-3.6-2.2-2.8-3.5.3-.5-3.5 3.6.6-.6-2.9 4.1-2 .2-3.4L89.4 0H21.28L18.4.6l.02-.6H14.8l3.9 6.3 8.8 9.2zM143.1 244.6l.7-.5.6-.6-1.4.3v.8h.1zM101.7 56.5l.1-.8-1.6-4.3-2.7 1.7 1.6 3.4h2.6z"/><path class="cls-1" d="M165.3 254.5l2.8-.9-7-6.1-4.9.2-2-2.9-2.9-.8-3-2.6-2.6-2.2-2.5-6.9-3.4-.8-3.6-3.3-1 .1 1.9 4.5 4.8 9.9 2.9-.3 3.1-.6-3.1 3.1v2.1l5 5.6 1.8 5 1.7 1.2 3.2 7.8 1.9 7.7 2.9 5.8 4 12.1 2.8 1.7 1.2 5.7-1.1.5-2.1-2.8.8 6.7 1.1 3.8 4.4 10 9.8 12 2.2 1.7.7-.3 2.4-4.5-2.2-3.9 1.6-3.8-2-3.3 2.3-3.1 3.3-8.3-1-1.3-3.9-.9 1.9-8.6-.8-2.2 1.2-3.4-1.4-2.5-4.5 2.6-3.9-2.3-.5-7.9 1.5-3.1-4-3.2-.7-.3.1-.2 1.9-2.8-2.3-3.1-5.7-.2 2.9-3.3-2.4-1.9-3.8-1.1-.4-3.8v-.4l.6.1zM96.9 102.7l2.7 8.4.7 7.3 2.1 8 .3 11.9 2.7 11.4 5 7.7 2.9-1.3 2.6 3.7h2.9l2-2.9 3.2.2 3.1-7.4-.2-2.7-2.8-.7.4-2.9-2.7-4.4h3.4l2-2.5 2.7 2.2 2-.8.6-2.3 3.7-1-.2-2 3.3-2.8 4.5 2.1 1.9-1.8 7.8-.2.6-2.1-2-7 2.1-2.7 3.8 2.6 2.1-1 1.6 2.2 5.8-1.3 2.2.7-.3-5.5 4.9-4 3.5 1.6 4.4-5.5.2-4.2 4.6-1.3 5.2-6.4 3.2 4.5 1.2-.3-.8-1.2 2.5-4.5 1.8-.4.7-2.6 4.1-3-3.4-4.9 2.1-2 1.8-5.1L211 78l.2-2 3-2.6 2-5.4-2.2-5.4 4.7 3.2 1-.5 5.8 1.3 4.2 4.5 4-1.5 5.6 2.6 6.9-1.5 4.6 3.1 1 2.2-.8 8.1.6 4.5-.7.7 3 2.4 3.4-.3 1.3-2.6-1.6-2.9 3.2-6.7 4.2-3.7 3.3 3 1.9-1.4 1-2.6-3.6-2.4-3.5-4.5-1.8 1.1-1.3-4.4 2.5-.6v-3.9l-2.3-.3v-3l4.3-2.1v-5.2l-3.4.1 2.3-3.3-.4-4.6-2.6-2L262 35l3.1-1.9.7-1.5-5.4-.8v-2.1l-4.3-3.5-3.7 1.9-4 .4-.9-1.2-5.4.8-2.9-3.4-3-.4-.5 1.1-6.4 1.8-.4 1.6-5 .8-6.3-.9-1-2.5-7 3.9-7 1.3-5.2-.5-1.7-3.4 3-1.1v-2.8l-1.6-1.4-2.3-.1-2.6 1.7-2.2-.6-6.7 3-1.5 3.7-2 1.6-.5 3.2-4.3 2.2-6.2.5-2-6.7-3.9-.8-7.5.3-5-.4-4.1-1.5-1.8-2.8-2.9-1.4-4.1-.1-4.6-3.1-.3-5.2-1.2-1.4-4.3 2-1.6-.7-6.4 2.2.2 4.2-1.5.8.8 1.4 3.6-.9 8.8 1.9-9.3 3-1.1 2.5-2.6.1-2 2.9 3.4 3.4.8 5.1-3.1 4.3-4.2.9-3.5-3.6-1 .9 1.8 2.4-2.6 4-.1 5.1-2.5-.6-1.9 1.4-.2 1.9h-4.6l-1-2.1-3.3.4-1.1.4-1.4 4.8 3 15.7-.6 3.7 4.9-.1-2.5 2.8 2.2.7-3.7 2.7 1.1 4.7-.3 4.1 4.9 5-3.6-.9v2.9z"/><path class="cls-1" d="M118.6 177.1l2.6-1.2 1.4-6.8-1.2-7.7-2.3-.2h-3.8l-2.4-3.5-1.9.9 1.7 5.8 2.1 2.5 1.2 4.7-.7 1.7 3.3 3.8z"/><path class="cls-1" d="M198.6 230.2l2.3-4.1 6.4.4 3.2 1.6.2-1.6 4-2.2 3.2-5.5-4.7-3.6.4-4.7-3.7-.2-2.4-2.5-1.1-3.8-2.9 1.4.4-3.4-1.9.3v1.2l-4.9 3.3-4.1 1.1-1.3-3.7-4.3-1.2-.3 2.8h-5.6l1.5-3.5-3.4-6.3 3.8-.6.7 2.7 2.2 1.2 4.1-.1.8 1-.9-3.4 2.6-1.1-3.6-2.7-2.1-.1-2.3 2.5-3.8-.7-1.3-3.9 1.3-1.1-3.5-2.4-.3-2.9 1.8-5.4-2.3-1.7 1.6-3.4 6 2.1 1.8-2.3-.4-3.4-1.6-1.1-1.4-4 2.6-3.8-1-5 3-2.3 6.7.3.5-.6.3-8-5.9-2.1 4.6-3.7-.4-2.7 1.3-7.3-2-4.4 6-6.7-.2.1-5.1-2.5 2.9-3-.5-1.6 2.7-2.6-1.1-7.8-2.4.4-2.6-3.7-4.4 5.4-4.2 1.1-.2 3.6-5.2 6.7-3.7-1.6-3.7 3 .3 6.7-3.6-1.1-6.4 1.3-1.4-2-1.7.8-3.6-2.2-.9 1.1 2 6.8-1 3.3-8.2.2-2.3 2.2-4.5-2.1-2.1 1.8.2 2.4-4 1-.5 2.3-3.4 1.3-2.3-1.9-1.6 2.1h-1.6l1.7 2.8-.4 2.1 2.6.7.4 3.9-3.7 8.6-3.4-.2-1.1 1.7 2.3.2 1.4 8.9-1.6 7.8-3.4 1.4v1.4l3.7 2.3.7 4 2 1.6 2.3 10.7 1.7 2.7 1.9 8.8 2.8 15.4.6 1.8 1.9-.2 3.8 3.5 3.8.8 2.7 7.3 5 4.4 3.1.8 1.8 2.7 4.7-.2 8.2 7.1 8.5 1 2.2-4.1 4.2 1.2 4-1.4 3.6.2 1.3-2.5 4.2-1 1.8-2.7-1.7-1.5-4.7-.1 3.3-6.8-1.2-1.8 1.2-3.4 2.2-.1z"/><path class="cls-1" d="M284.7 116.3a.71.71 0 0 1 .3-.6 11.4 11.4 0 0 1 1.9-1 5.85 5.85 0 0 0 1.7-1c.1-.1.3-.2.4-.1.3 0 .3-.1.4-.3a1.5 1.5 0 0 0-.4-1.1l-2.5 1.6-3.9-.2-.4-.1h-1.1l.1-.1-4.3-.5-2.5 1.5-1.8-2-1-5.7-3.6-3.3-1.8-4.1-3.9-4.1-3.3.2-1.8-2.8-3.9.4-4.6-3.6 1.3-1.3-.6-4.1.8-7.9-.6-1.6-3.8-2.5-6.9 1.5-5.4-2.6-4.4 1.7-4.4-4.9-5-1.1-1.4.7-1.7-1 .8 1.8-2.4 6.2-2.8 2.4-.2 3-6-1.5-1.4 4.3-1.5 1.4 3.4 4.9-4.7 3.6-.9 3-2 .4-1.7 3.3.6 1 .2-.1.1.6.5.7h-.4l1.3 8.5-2.7 2.6.5 1.6-2.1 2.2 3.1 1.5 3.6-.7-8 8.9 1.8 4-1.3 7.5.4 3.3-3.4 2.7 4.9 1.4-.5 9.4-.3.4h.1c1.4.1 3.2.2 4-.2a.64.64 0 0 1 .6 0 11.81 11.81 0 0 0 5.6.5 1 1 0 0 1 .7-.7c.6-.1 1 .4 1.4.8.1.2.3.3.4.5a.52.52 0 0 1 .7-.3h.3a.49.49 0 0 1 .1-.3 1.74 1.74 0 0 1 1.2-1.4 1.14 1.14 0 0 0 .3-.8 1.54 1.54 0 0 1 .9-1.3 1.41 1.41 0 0 1 .9.1 5.74 5.74 0 0 0 .7-.4c.3-.2.7-.4 1-.6a3.19 3.19 0 0 1 2.7 0 2 2 0 0 0 1.3.2 1.55 1.55 0 0 1 1.1-.8 2.14 2.14 0 0 1 1.7.8 2.18 2.18 0 0 0 .8.5c.1 0 .1 0 .2.1.5.3 3.1-1 3.7-1.5 0-.1-.1-.2-.1-.3a1.72 1.72 0 0 1-.2-1.2 1.78 1.78 0 0 1 .8-.7h.3a1.09 1.09 0 0 0 .9-.4 2 2 0 0 1 2.1-.4c.3.1.6.1.9.2.5.1 1 .2 1.6.3.3 0 .4-.1.4-1a1.27 1.27 0 0 1 .1-.6l-.1-.1a2.1 2.1 0 0 1-.4-2 2.75 2.75 0 0 0 .2-2 .86.86 0 0 1 .3-.6 1 1 0 0 0 .4-.5 1.55 1.55 0 0 1 2-.9c.9-.2 3-.9 4-1.2a.45.45 0 0 1 .5 0c.2.1.3.1.8-.2a1.74 1.74 0 0 1 1.5-.5 17.23 17.23 0 0 1 2.1-.7c.7-.7 2.2-.5 3-.1s1.5.9 1.5 1.5l.1.1a1.22 1.22 0 0 0 .9-.8c0-.2.2-.3.3-.4a2.62 2.62 0 0 0 1.3-1.6c-.7-.5-1.5-1-1.5-1.9a4.17 4.17 0 0 1 2.6-2.6c.6-.1.9-.2 1.1-.7l.3-.3c1.2-.5 3.3 1.1 3.4 1.1a.52.52 0 0 1 .2.4 7.25 7.25 0 0 0 1.2 2.5l.1.1a1.42 1.42 0 0 1 .6-.2 1.6 1.6 0 0 1 1.4.8 1.46 1.46 0 0 0 .9.6 5 5 0 0 0 1.2.2 2.19 2.19 0 0 0-.3-.5.63.63 0 0 1 .1-.9 1 1 0 0 0 .2-.9c-.1-.1-.2-.1-.5 0a3 3 0 0 1-2.6-.3c-.4-.1-.9-.3-1.4-.4a.69.69 0 0 1-.5-.8c0-.2.2-.3.3-.4s.1-.4.1-.9 0-1 .5-1.2 1 .4 1.4.8l.1.1a2.18 2.18 0 0 0 .3-.5c.3-.5.7-1.2 1.3-1.3a2.23 2.23 0 0 1 1.8-.4c.8.2 1.7.6 1.8 1.4h.6a6.21 6.21 0 0 1 3 .6c.4.1.9-.6 1.5-1.2a4.48 4.48 0 0 1 2.4-1.9 3.16 3.16 0 0 1 1.9-.7 2 2 0 0 0 1.1-.3 1.41 1.41 0 0 1 .1-.9c.4-.8 1.6-1 3.1-1.2 1.1-.2 2.5-.4 2.9-.9l.1-.1a2.71 2.71 0 0 0 1-1.9 5 5 0 0 1 .4-1.3c-.3-.8.3-1.6.7-2.1a2.4 2.4 0 0 0 .7-1.3z"/><path class="cls-1" d="M306 125.8l5.4-3.3 3.9-1.5 7.3-4.2 4.9-7.2 3.5-3.4 9.9-5.3 1.5-2.4 6-6.2 5.2-6.8 2-3.7-.7-.1-3.2 2.7-4.7 5.3-3.7.8-6.1-.5-2-3.9-1.4 1.6-2.8-4.6-3.2 3.4-2-.3 1.5 2-5 3.6-1.5-.4-1.6 2.2 1.1 2.4-1.1 3.8-6 .9-5.4 3.3.5-3-2.6-3.6-1.2 1.7-1.2 4.8.5 3.8-2.6 1.6-4.4-1.2-2.4 1-4 2.5a2.34 2.34 0 0 1 .5 2.1 1.4 1.4 0 0 1-1.4 1.2 11.4 11.4 0 0 1-1.9 1 9.15 9.15 0 0 0-1.4.7 3.91 3.91 0 0 1-1 1.9c-.5.6-.6.8-.5.9a.48.48 0 0 1 0 .7 5 5 0 0 0-.4 1.3 4 4 0 0 1-1.4 2.7c-.8.8-2.2 1-3.7 1.2a5.37 5.37 0 0 0-2.1.5v.1a.64.64 0 0 1 0 .6 2.68 2.68 0 0 1-2.3 1.2c-.5.1-1 .1-1.1.3a.55.55 0 0 1-.5.3c-.6 0-1.2.8-1.8 1.5-.8 1-1.7 2.1-3 1.6h-.1a5.07 5.07 0 0 0-2.4-.4 4.67 4.67 0 0 1-1.7-.3.76.76 0 0 1-.3-.9 1.69 1.69 0 0 0-1-.3.6.6 0 0 0-.4.1.55.55 0 0 1-.5.3 3 3 0 0 0-.5.7c-.3.5-.7 1.2-1.3 1.2a1.14 1.14 0 0 1-.8-.3.37.37 0 0 1-.1.3l.6.2c.8.3 1.4.5 1.7.3a1.6 1.6 0 0 1 2.1.5 1.82 1.82 0 0 1 0 2 1.5 1.5 0 0 1 .1 1.7c-.4.6-1.3.8-2.6.4a3.07 3.07 0 0 1-1.5-1 1.38 1.38 0 0 0-.4-.3c-.1.1-.1.2-.2.3a.55.55 0 0 1-.5.3.71.71 0 0 1-.6-.3 3.51 3.51 0 0 1-.5-.8 8.67 8.67 0 0 1-1.4-2.7 3.8 3.8 0 0 0-1.7-.8 2.75 2.75 0 0 1-1.9 1c-.6.1-.7.2-.8.5 0 .1-.1.2-.2.3-.5.4-.5.5-.5.5 0 .2.6.6.9.8l.3.2a.71.71 0 0 1 .3.6 3.62 3.62 0 0 1-1.8 2.8 2.74 2.74 0 0 1-2.1 1.5 1.41 1.41 0 0 1-1.4-1.1v-.2a3.39 3.39 0 0 0-1.5-.6 1.06 1.06 0 0 0-.8.1 1.38 1.38 0 0 1-.4.3 9 9 0 0 0-2.3.8.64.64 0 0 1-.6 0c-.1 0-.2 0-.5.3a2.16 2.16 0 0 1-1.9.5 29 29 0 0 1-4.2 1.2h-.4a1.58 1.58 0 0 0-.4-.1 1.38 1.38 0 0 0-.3.4 2.65 2.65 0 0 1-.5.6 3.73 3.73 0 0 1-.3 2.1c-.1.3 0 .5.3.9a.76.76 0 0 1 .2.4.9.9 0 0 1 .1.5 1.48 1.48 0 0 0-.1.7c-.1.8-.2 2.1-1.8 2.2h-.2c-.5-.1-1-.2-1.4-.3a4.25 4.25 0 0 1-1.1-.2h-.1c-.3-.1-.4-.1-.9.2a3.51 3.51 0 0 1-1.4.6 1.6 1.6 0 0 1 .1 1.5c-.2.5-2.4 1.6-3.5 2a2.33 2.33 0 0 1-2 0 3.6 3.6 0 0 1-1.2-.8c-.2-.2-.5-.5-.7-.5s-.1 0-.3.3c-.1.1-.1.2-.2.2a3.11 3.11 0 0 1-2.5-.1c-.8-.2-1.2-.4-1.7-.1a4.53 4.53 0 0 1-1 .5 6.72 6.72 0 0 1-1.2.6c-.2.1-.5.1-.6-.1l-.1.2a2.09 2.09 0 0 1-1.1 1.6h-.1c-.2 0-.2.1-.4.5a1.4 1.4 0 0 1-1.4 1.2 1 1 0 0 1-.7.4h-.1a2.15 2.15 0 0 1-1.5-1l-.1-.1a2.09 2.09 0 0 1-.6.4 13.41 13.41 0 0 1-6.3-.4 12.46 12.46 0 0 1-4.3.2 8.85 8.85 0 0 0-2.3 0 .9.9 0 0 1-.5-.1l-4.8-.3-2 1.5 1 4.6-2.6 3.8 1 3 1.8 1.1.6 4.6-2.8 3.5-5.8-2.1-.6 1.4 2.3 1.5-2 6.2.1 1.9 4.5 3-2 1.7.8 2.3 2.4.5 2.1-2.5 3.1.3 5.8 4.1-3.6 1.7 1.2 4.8-.5.3-2.8-2.1-3.9.1-3-1.8-.5-2.1-.8.2 2.8 5.3-.9 2.1h2.4l.3-3 6.5 1.8 1.1 3.1 2.8-.7 4.2-2.7v-1.8l4.7-.7-.4 2.8 2.1-1 1.5 5 1.8 1.9 4.5.2-.4 5.3 4.9 3.8-3.8 6.9-3.8 2-.2 1.5 3.5 2.5 3.2-2.9 1.4-5 2-1.5 5.4-1 4.7 1.1 1.9-2.1 3.6-1.7.6-2.5 5.8.8 2.2 1.3.5-1.2 6.7-4h.1l-1.7-3.1 2.9-3.7 1.1 1.9.2-3.1-1.5-3.4-.9-6.3 1.6-7-1.8-3.3-1.4-7.2 1-7 4-8.6 2.3-2.6 4.5-2.4 5.6-.2.5 2.5 1.3-2.9 2.6 1.2 3-2.8 2.2-7.8 4-1.7 7.8 1.4 5-1.9 6.6-3.8.4-2.2-1 .7-1.9-.7.2-1.3h1.1l1.6-.2.2.5.4-2.3-2.1-.1.9-4.7z"/></g></svg>