<svg id="Layer_2" data-name="Layer 2" xmlns="http://www.w3.org/2000/svg" viewBox="0 0 534.24 793"><defs><style>.cls-1{fill:#e5e5e5;}</style></defs><title>map-homepage-blue</title><path class="cls-1" d="M61.46 356.2l1.5 5.16 5.15 4.31 2.99 8.48 2.99.66 3.32-4.15 2.16 5.65-1.83 5.65 1.83-.34.83 9.97 2.83 4.99 7.8.83 1.17 4.65-6.15 7.64-6.64 5.65 5.31 4.65 8.97 1.83 3.66-3.49 13.62-.33 6.65-3.82 1.49 10.3-2.99 5.32 2.99.16 3.83 2.49 6.97-5.15 9.14 3.16 5.32-2.99v5.32l2.82-.5 1.5-2.49v-10.64l-2-4.81 4.82-2.99 12.46 8.47 3.99-.5 7.31 4.15 3.99-2.49-4.49-5.65.83-2.49-4.48-1.99-1-2.99-7.14-3.99 1.33-7.98-10.14-.49-4.48-4.66-4.99-.33-2.66-4.49 2-5.81-3.33-3.49 7.31-1.5.83-4.15 5.15 1.16 3 4.49 3.15-1.83 4.16-5.31 11.79-3.66 2.66-7.97 8.14 3.82 4.49-1.33.99-4.49 7.31-3.32-.16-2.99 5.81-2.49-1.16-3.16 3.49-2.16 2.16-6.48-2.49-4.65h4.98l-.16-10.3-3.99-7.48-.17-4.49-7.97-3.15-3.49 5.48-3.66.33-.66 3.66-5.15 3.98-1.66 15.29-4.82-.5-1 3.49-5.81-2.32-4.99 1.16-4.98 9.14-7.65-4.16.34-4.15h-3.99l-4.98-6.65-3.33 1.67-5.65-2.5-2.49 3.66.66 3.49-5.48 3.32-4.98-.17-15.29 6.82-5.65-5.32-4.48 4.32-6.98 2.99-6.65-6.15-.33-2.32-6.98 1.16-1.82-4.16-3.33 2.66-8.3 1.66-5.82-.83-2.99.83 1.66 4.66-3.65 7.97 5.81 2.49z"/><path class="cls-1" d="M60.46 227.61h-6.97l-2.16 5.65-6.82-4.82-13.29-1.66-3.65-7.81-8.14.99-11.97-8.64-5.65 2.33-2.25-1.34v106.87l1.42.31 2.5 4.48 13.45 5.15 1.33 4.82 3.33-2.66 13.79 2.16-1.5 5.32 1.16 6.31-1.16 7.31-1.66 1 3.99 5.81 5.15 2.83 7.64-1.16 4.15-7.15 3.83-7.97-2.33-5.98 4.65-1.5-.5-7.31-5.31-3.82-1.33-12.8 1.99-2.98 18.11-11.64 8.81-8.8 3.49 3.32 4.32-4.48 4.31 2.49 2.33-1.17-1.83-2.99-4.81-2.65-4.16.49-7.64-7.14-3.16-6.31 6.98-2.33-.17-2.66-9.96-2.82 7.47-8.48h7.48l-2.99-2.65-.33-4.16-5.65-1.83-4.99-11.63-2.82-4.32-8.48-3.98z"/><path class="cls-1" d="M93.86 231.76l-9.64-1.5-6.81-4.48-1.99 2.16-5.15.5.33 1.82 2.32 3.66.84 1 4.65 10.96 5.98 1.83.33 4.82 6.65 5.81H79.24l-4.49 5.32 7.98 2.16.5 5.98-6.32 2 2 3.82 6.48 5.98 3.82-.5 6.15 3.32 3.15 5.65-5.32 2.49-3.98-2.16-4.65 4.82-3.49-3.32-7.48 7.48-17.78 11.63-1.33 1.99 1 10.8 5.32 3.82.66 8.47 4.99.67 7.31-1.33 5.31-3.99 2.16 5.15 7.65-1.16.33 3.65 4.98 4.49 5.65-2.32 5.48-5.32 5.99 5.65 14.62-6.48 4.65.16 3.82-1.99-.66-2.83 4.15-5.98 6.31 2.83 3.99-1.99 5.32 7.14h5.31l-.33 4.98 4.32 2.5 4.65-8.15 6.65-1.49 4.15 1.66.67-2.82 4.48.5 1.66-13.96 5.15-4.32.67-4.32 4.32-.33 4.15-6.15 9.31 3.82.83-1.16-3.66-4.82 8.48-6.48 2.82 1-.83-4.66-8.97-7.47.83-6.32 5.15-5.81 10.13-8.31-3.32-5.81-2.49.49-3.82 7.48-4.49-3.82-9.3 3.65-6.81-1.16-1.83 2.83-9.97-3.16-1.5-4.82-10.46 6.31-15.12-6.97-2.83 1.33-6.64-2.5-6.65 3.66-4.65-3.66-1.16-6.14-2.16-1-10.8 4.98-4.49-4.32-5.15.34-3.66-4.32-10.3-2.66.34-7.31-2.33-3.99zM213.65 228.27l3.49 3.66 8.14 1.33 4.82-3.82 7.31.66 4.15-5.48-3.82-2.83-1.66-5.98 3.16-11.63-1.33-5.15-6.48-3.16-7.48 4.82-7.81 1.83 1.67 5.81-4.16 11.14v8.8zM4.47 396.08l6.65-2.16 1.49-5.98-6.48-3.99-2.15-3.32-4.42-1.3v23.75l4.75-3.01.16-3.99zM22.25 333.61l-5.32 3.99-1.66-6.82-13.46-5.15-2.15-4.15-.1-.02v45.19l5.24-1.47 5.16 1.66 15.61.66 7.81-5.48.83-1.83-4.98-7.48 2.66-1.66.83-5.98-1.17-6.31 1.17-3.66-10.47-1.49z"/><path class="cls-1" d="M50.33 362.85l-9.31 1.5-5.14-2.83-.84 1.83-8.8 6.48-16.78-1-4.66-1.33-5.24 1.39v8.18l5.74 1.56 2.5 3.66 7.47 4.65-2.49 8.64-6.31 2.16-.17 3.66-5.48 3.48-.67 7.15-.59.57v161.8l4.58-5.36 2.33-5.82 6.14-2.32 2.66-9.31-2.32-3.98.16-9.97-4.82-4.99-.16-9.97-8.14-5.81 5.48-8.64 11.8 6.15 1.82 3.98 2.66-1.66 8.31 2v1.66l2.82-1.83-.49-3.82-2.33.33-8.14-3.32.16-14.29-2.82-4.82v-13.29l4.49.5 3.48-3.66 3.99-7.97 11.47-1.17 3.98 2.33 3.49-1.99 2.99-7.65 2.16.67-.99-4.99 5.31-12.46 2.5-.99-1.5-4.32 3.49-9.48 13.46-9.63-.83-2.49-.67-.67.5-.33-.83-2.83 1.99 1.67 6.82-5.82 5.31-6.64-.5-2-7.47-.83-3.49-6.31-.83-7.98-2.83.67 2.5-8.64-.5-1.33-1.67 2.16-5.64-1-3.33-9.14-5.15-4.32-1.16-4.81-5.15-2.33-4.32 7.31zM425.82 776.06l-2.49-1.33 1.82-1.5 2.5-2.66 1.99-9.8-2.82-2.49 1.82-2.83-1.33-7.97-5.31 2.16-3.99 9.3 1.16 3.66-1.66 14.29-2.66 2.16 2.16 5.65-2.16 2.49.2 5.81h11.85l.75-2.82-1.83-14.12z"/><path class="cls-1" d="M189.23 452.07l5.15-3.32 8.64-2.33-2-4.98-4.81-.83-2.99-4.99-4.66 2-2.65-5.65-10.64-5.82-.5-.33-1.66-1h.17l-5.65-3.15-4.32.49-11.8-8.14-2.16 1.33 1.66 3.49v11.63l-2.49 3.82-6.48.83v-3.98l-2.66 1.66-9.13-3.16-7.31 5.48-4.49-3.15-5.98-.17 4.32-7.64-.83-6.65-4.32 2.49-13.29.34-3.99 3.82L83.72 422l-3.98-3.49.16 1-14.12 9.97-2.82 8.14 1.82 5.64-3.48 1.33-4.66 11.14 1.33 7.64-3.49-1-2.65 6.65-5.16 2.66-4.32-2.33-9.8.83-3.65 7.31-4.16 4.65-3.32-.5v10.31l2.99 4.81-.17 13.63 6.15 2.32 3.66-.49 1.16 7.31-7.14 4.81v-3.98l-5.99-1.33-3.98 2.32-2.49-5.31-9.48-4.82-3.15 4.98 7.14 5.49.17 9.96 5.15 4.99-.17 10.3 2.33 4.32-3.32 11.3-6.15 2.32-2.16 5.32-6.31 7.31-.1.05v15.39l5.74-3.48 4.82-1.99 6.98 1.99 2.33-1.33-.84-5.31 2.5-9.14 3.82-5.32 6.64 8.98-.16 1.32 5.48-3.15 8.81-1.5 1.16-3.99-2.16-4.65 4.32-5.65 3.16.67 5.65-3.99-4.49-5.98 7.64 1.16 6.32-6.98 4.65 7.65 2.32-2.99 4.32 8.47 8.81.5 5.15-1 7.31-8.47 6.48-5.49 3.16 1.5 13.62-13.46-3.65-.5 4.98-9.47 9.31-7.14 5.14 1.33v5.81l4.99-1.99 12.13-3.32 10.96-5.65 3.33-7.81 7.81-3.99 1.66-8.8 7.47-6.15-6.31-18.78 2.99-6.64 5.32-6.15zM281.77 299.55l1.66-.67 16.62 4.66 12.96-1.67 2.99.83 14.45-3.48 8.48 1.99 18.6-3.32 11.63 3.49 2.33 1.99 5.48-5.65 7.81-3.49-.83-3.49-7.64-5.15-.17-3.49-7.14-5.65-8.64 3.82 2.32-15.11-2.32-.67-8.31 2.66-3.32-1.5-3.16 4.99-4.98-1.83-2.99 6.15-4.16 1.33-6.31 5.65-.83-5.82-5.32 1.66-2.49-4.48h-6.65l-9.14 2.99.17-3.33-4.82-.66-7.64 2.66-4.98 5.98-.67 3.66 2.49 4.32-6.48 6.31 1 4.32z"/><path class="cls-1" d="M212.82 234.25l3.82 3.66 3.82 10.13-1.99 6.65 2.66-.5 2.32 3.82.02-.01 2.64 4.66-11.3 9.64-4.65 5.15-.5 4.32 8.64 7.48 1.5 8.97-5.15-1.99-5.82 4.48 3.33 4.49-2 2.82v4.16l3.99 7.47.5 12.96h-3.66l1.17 2.33-2.83 8.14-2.49 1.83 1.16 3.15-6.15 2.83.17 2.99-7.64 3.65-1 4.49-6.81 1.99-6.48-3.15-2.33 6.64-12.13 3.99-4.32 5.15-4.98 2.99-3.65-5.48-2.16-.5-.83 3.16-4.66 1.16 1.66 1.49-2.32 6.15 1.66 2.83 4.65.33 4.49 4.65 11.79.5-1.66 8.97 6.48 3.66 1 2.65 5.48 2.33-1.16 3.49 5.48 6.31-5.15 3.49 10.14 5.49 1.99 4.65 4.65-2 3.32 5.65 5.16.83 2.49 6.32 6.98-1.66 8.97-7.15 6.98-13.95 3.82 4.81-2.66 4.82 2.32 5.65-.66 4.65 1.66 2.99 3.16-4.65 2.99 1.83-.33-3.82 5.15-4.99-1 12.63.83-.33 4.49-18.28 1.99.33-.66 12.8 1.99 3.82 3.82-4.15 4.32 2.32 1.83-1.83-3.16-8.8 2-1.5v-7.64l-7.32-22.6 1.17-3.82-3.99-4.32.33-4.98 2.49-3.49-7.8-1.33-1.17-2.99 2.16-5.82h-.66l-7.48-7.31 1.66-9.47 3.99-2.32-1.83-8.64 1.83-2.16-2.82-1.83-5.82-.5-12.46-6.48-5.15-6.31 6.65-13.46 4.15 2.66 2.82-5.98v-5.32l6.98-1.33 10.64.33.99-3.32-3.82-.66-2.99-5.98-2.49 1.16-6.15-1.16-4.32-5.82-6.48-5.15-3.65 1.49-2.83-6.31 2.83-9.8 4.98-2.99 3.99-8.31-1.26-5.86.1-.12 10.46 5.65 5.48 6.15 4.82-.67-4.32-3.32 2.99-4.49 6.65 4.49 1.83 7.64 7.31 4.49 5.48.5v-6.32l3.82-1.99 5.15-5.49 1.33-7.64-1.16-6.14-9.8.66.66-2.16-8.31-2.33-8.8 1.83-8.14-6.15-5.32-5.81-6.65-.5-4.81 3.82-9.81-1.66-2.82-2.82-.5 3.15zM465.03 230.1l-2.16-7.48-1.16-4.65-3.82 3.66-3.99-.34-6.81 8.81-6.65 3.32-4.15 7.98-3.16-1.83-2.33 6.65-4.81 7.64.16 9.3-3.15 4.32-6.32 2.33.33-2.83-11.96 13.96 4.49 5.48v2.83l4.48 2.32 5.32-8.8-.5-4.32 8.97-1.5 6.82 1.5 3.49-.83 9.96-9.47-.83 8.97 3.16 1.66 3.16-1.83 7.14-9.97-1-7.31 4.66-5.31-4.32-6.82-1.33-9.47 2.49-5.98 3.82-1.99zM367.17 353.88l3.49.66 1.33-4.82-.67-12.62-.83-1.17-3.32-.99.83-5.82-2.49-3.16-.67 3.83-6.48 2.82-1.49 8.47-5.98-3.32-2.83 1.17-2.16 4.81-6.64.17-.5 3.49-4.15 3.82-1.83 10.8 3.49 5.32 3.49 12.29.33.5-.33-7.14 5.64 4.65 4.49 7.81 5.48-4.82-2.32-6.65 1.83-4.48 4.65-5.15-1-11.47 4.15 4.32 4.49-3.32z"/><path class="cls-1" d="M273.8 266.49l6.64 9.13-1.49 3.82 2.16 7.65-.34 5.15 3.83-3.66-2.16-3.65.99-4.99 5.65-6.98 8.64-2.99 7.48 1.33-.17 2 6.65-2.16h8.14l2.16 3.99 5.98-2 .83 4.49 3.66-3.33 3.49-.99 3.65-7.15 4.98 1.83 3.49-4.98 3.99 1.82 8.31-2.65 4.65 1.33-1.99 13.12 6.31-2.49 8.81 6.98.16 3.15 7.64 5.15 1.17 6.15-8.81 3.82-4.98 5.32 3.82 2.66-4.65 5.31-4.32-1.99-2.16 12.46 4.32 5.32-.83 4.82 1.82.49 4.66-.49 1.49 3.48 4.49-3.48 3.82-10.8 4.15 4.15 5.49-1.16 1.99-6.48v-9.97l2.66-.17 5.65-16.78 1.49-2.49v-2.49l-5.15-6.15 17.94-20.6-.66 6.15 2.33-.67 2.16-3.32-.17-9.31 5.32-8.14 2.82-8.47 3.49 1.83 3.49-6.65 6.98-3.32 7.14-9.47 4.32.33 3.82-3.66v-.16l.5-.33 1.16-1.17.17.33 6.65-4.48 3.98-6.15 4.16 1.5 8.14-2.83 2.66-2.99-.67-1.33-3.15 2.5-1-7.48-4.99-6.15 4.66-10.47-6.32.83-5.48 4.16-8.14 1.16-27.91 15.45-7.31-1.16.49 3.82-12.62 14.29-.33 4.15-4.82 4.49-8.31 3.32-3.32-1.33-12.3 2.49-7.31-2.98-20.27 7.31h-4.15l-1.33 2.65-5.48-.49-6.48 3.32-6.65 1-3.82-2.33-3.99 3.99-3.32-1-16.45 2.82-4.99-.33-6.97-3.65-6.32 2.49-2.82 3.82-7.31 1.16 1.33 6.48-1.66 8.64-5.15 5.49z"/><path class="cls-1" d="M418.84 338.59l7.31 2.33 7.15.16 3.15 1.83 2.16-4.98 2.5-12.8 6.64-16.28 2.33-1.99 2.99-10.63-1-3.66-5.65-3.82 2.66-8.31-4.15-1.99.5-4.65-6.32 5.81-4.48 1.16-6.82-1.49-6.64.83.5 2.99-6.98 11.46-5.98-3.15-1 1.66-5.98 17.78-1.99.16-.17 8.48-2.16 7.14.16 10.97 3.16 1.16 6.48-.17 2.83-2.32 3.82 4.48 4.98-2.16z"/><path class="cls-1" d="M412.36 374.48l.17-19.77-2.16-3.32-3.49-10.64-6.48.33-4.82-2.15-.33-11.14-5.98 1.17-2.5-2.5-3.15 8.15-7.15 5.81-1.82-4.82-1.66.17.33.66.99 13.63-1.66 5.81v3.32l4.66 12.3-.67 4.82 1.5 7.81 5.98 9.96 4.48 20.28.5 5.64.67-.49.83-6.48 7.97 5.31 3.16.5 1-7.97 4.32.16v-6.31l-2.66-4.65-1.66-10.8 3.15-4.32-2.16-5.49 6.65-1.16 1.99-3.82zM529.99 160.65l-6.81-4.32-5.15 2.33-10.8-9.14-3.49.66-1.99 9.31-4.82-10.97 5.32-4.65-1-2.99-8.47-9.31-5.32 3.66-1.99-5.32 4.81-3.15v-2.16l-3.65 1.32-2.82-4.31-11.97 2.65-.33 5.15-4.82-.66-2.16 4.82-6.64.66-.67 3.66-12.63-3.33-6.31.84-5.32-4.82-2.49 3.15-4.48 1.5-2.99 3.49 3.15 2.82-7.64 6.65-16.95 10.8-5.98.66-8.64 7.65-1.66 4.98-8.14 8.14-5.48 3.32 1.49 2-2.32 5.98-11.3 6.31-7.81.34-3.16 3.15-11.3-.16-.5 6.64 4.82 3.99 7.81-3.16 5.15 7.31-2.49 6.15 3.16 7.97h3.82l20.6-7.47 7.64 2.99 12.3-2.49 2.99 1.33 7.31-2.99 3.82-3.49.33-4.16 12.3-13.95-.5-5.82 9.3 1.5 27.75-15.12 7.64-1.16 5.49-4.16 10.96-1.49-5.65 12.79 4.32 5.48.67 4.49 2.49-2.16 1.99 5.31-3.65 4.66-9.47 3.15-3.16-1.16-3.32 5.15-7.81 4.98 1.49 5.49 2.16 7.14 3.49-1.49 2.99-5.32 3.49-.83 5.82-7.31 3.49-1.83 3.65-6.64 4.49-3.49 12.62-2.99 2.5-2.83 6.98-.5 3.98 5.98 6.32 2.66 1.82-1.16-8.8-9.14-2.49-8.8L529 171.95l3.32-.33.33-2.66-2.99-3.66.33-4.65zM8.13 650.45l11-6.31.66-3.66-1.66 1.16-3.16-1.16.33-2.16h1.8l2.66-.33.33.83.66-3.82-3.49-.17 1.5-7.81 7-7.31 9-5.48 6.48-2.49 12.13-7 8.14-12 5.82-5.65 16.45-8.81 2.49-4 10-10.3 8.64-11.3 3.32-6.15-1.5-.66-5.32 4.49-7.81 8.81-6.15 1.33-10.13-.83-3.32-6.48-2.33 2.66-4.65-7.64-5.32 5.65-3.32-.5 2.49 3.32-8.31 6-2.56-.62-2.66 3.66 1.83 4-1.83 6.28-10 1.5-9 5.48.83-5-4.32-6-2 2.82-2 8 .83 6.31-4.32 2.66-7.31-2-4 1.66-6.57 4.14v.17a4.39 4.39 0 0 1 .82 3.4 2.5 2.5 0 0 1-.82 1.42v53h.26z"/></svg>