<svg id="Layer_1" data-name="Layer 1" xmlns="http://www.w3.org/2000/svg" viewBox="0 0 449 347"><defs><style>.cls-1{fill:#fff;}.cls-2{fill:#004165;fill-opacity:0;}.cls-3{mask:url(#mask);}.cls-4{fill:#154f76;}</style><mask id="mask" x="-25" y="-58.26" width="491.8" height="436.26" maskUnits="userSpaceOnUse"><g id="footer-map-b"><path id="footer-map-a" class="cls-1" d="M-25 0h491.8v378H-25z"/></g></mask></defs><title>map-footer</title><path id="footer-map-a-2" data-name="footer-map-a" class="cls-2" d="M-25 0h491.8v378H-25z"/><g class="cls-3"><path class="cls-4" d="M205.9 36.89l-.95 1.3 1.68-.21-.73-1.09zM200.36 245.5l-.9-1.62.9-1.17 1.94 3.23v.08zm.05-3.69l-1.56 2 1.17 2.1 2.42.62.86.47-.55-1.32zM328.15 38.35l-1.87-3.5-.07-2.05-3.67-1.51-1.7 2.58-1.72.15-.28 1.67-2.41 1.94-.81 7.15-2.25-.24-.42 1.61-2.73-1.09-2.35.54-2.39 4.29-3.54-1.96.14-1.88h-1.89l-2.31-3.14-1.55.78-2.64-1.17-1.19 1.73.34 1.63-2.63 1.5-2.28-.08-7.22 3.21-2.61-2.47-2.08 2.02-3.33 1.37-3.11-2.84-.12-1.06-3.29.52-.83-1.94-1.61 1.23-3.86.74-2.78-.38-1.4.43.82 2.19-1.74 3.69 2.79 1.22.64 2.42 2.4 2.01 1.43 3.98 1.44.28 1.53-1.94 1 2.63-.81 2.7.81-.18.43 4.67 1.3 2.33 3.67.4.54 2.14-2.87 3.62-3.14 2.66 2.5 2.17 4.2.86 1.74-1.67 6.38-.16 3.11-1.79.68 4.89-1.4 2.46 1.42.06 1.77 1.2 3.28-2.44 4.32 1.49 2.43-1.41v2.47l1.37-.19.73-1.16v-4.97l-.99-2.25 2.29-1.42 5.8 3.98 1.93-.24 3.38 1.96 1.91-1.23-2.15-2.59.41-1.23-2.11-.91-.48-1.36-3.34-1.87.66-3.76-4.77-.22-2.11-2.18-2.33-.16-1.27-2.15.99-2.73-1.59-1.59 3.39-.76.43-1.89 2.4.54 1.41 2.11 1.45-.88 1.99-2.46 5.51-1.76 1.27-3.73 3.77 1.8 2.18-.64.45-2.05 3.42-1.6-.07-1.41 2.69-1.2-.52-1.41 1.59-1.06 1.04-3.06-1.14-2.18h2.34l-.14-4.82z"/><path class="cls-4" d="M196.87-29.87l-4.06-.51-2.24.63-1.23-2.29-1.06-.07-3.64-3.19-2.46.84-.81-2.24-2.74-1.61 3.07-2.39-3.68-1.87-2.49-3.35-1.56-.78-2.21-3.17-.4.11.45 3.84-1.84 1.29-2.37-1.34-2.38 1.28-1.35-6.65 3.1-4.21-3.78-2.71-.22.03.32.58-.74-.28-.24 1.42-5.55 5.32-.85 3.07-2 4.14 1.36 2.7-.32 4.99.75 4.45 1.66 2.91.15 3.57 2.62 2.31.52 2.86-1.07 3.58 1.07 1.95-4.17 2.56.78 4.4 1.66 2.68 2.4 1.2.88 2.72-2.27 1.78 3.49 2.04-4.73 1.71-.32.56 3.86-1.81 4.39.55 2.13-.71 3 .73-.64 1.4 1.97-.34 3.08 1.77 2.32-.69 3.88 1.89 2.28 6.93-1.73 1.4-.16 2.92-2.66 5.01-.95.81-.49 3.12-5.84 1.28-1.51 2.11 1.58 3.92-.6 3.27-2.66 2.66 1.32 2.95-.54 2.85 2.04 3.44 1.56-1.77 4.94 3.55 2.63-3.74-1.62-2.6h-2.25v-3.64l-1.48-2.72-.37-3-1.66-2.57 1.78-3.35 1.94 1-.1-3.05 1.7 1.81 1.78-2.13 1.18 2.6-.8 3.83 2.48-1.55-.43 2.14 2.99.17.46-1.7 3.45.12-1.76 2.45.39.64 2.21-1.66 4.81.43-.14-1.45 6.01-3.08 1.92-.11 2.55 4.86-.44.6 7.77-1.46-1.38 4.06 3.13.07 1.37.95.98-.82 1.06-3.76 5.48-.62.9 2.28 3.7.78 1.11 2.06 6.38 2.45.58 2.23 1.59-1.22 6.47.98-.75 2.54.54 2.93-.52 3.43-.76.47 1.82 2.73 2.46 1.34 3.57-.56 1.97-3.36 1.77-3.76-1.05-2.79 2.16-.67-.27-3.49-2.49-1.78-.58-5.94.94-1.41 8.45-5.48 4.13-4.13 1.63 1.55 2.03-2.1 2.06 1.15 1.06-.5-.82-1.43-2.31-1.26-1.94.24-3.55-3.34-1.52-2.94 3.3-1.07-.09-1.28-4.65-1.29 3.49-3.97h3.5l-1.42-1.28-.15-1.96-2.62-.83-2.33-5.47L261-3.22l-3.98-1.84h-3.28l-.96 2.62-3.24-2.25-6.23-.8-1.68-3.66-3.8.45-5.62-4.01-2.63 1.08-7.17-4.32-.76-1.2-1.5.71-2.69-4.72-2.22-.37-5.57-4.08-1.7-.66-.07 1.69-3.06-1.09-4.06-3.4-2.01 1.53-1.9-2.33z"/><path class="cls-4" d="M262.93-2.16l.35.52 2.17 5.09 2.83.89.17 2.24 3.09 2.77h-5.69l-2.12 2.42 3.77 1.05.22 2.77-2.93.96.93 1.8 3.03 2.82 1.8-.22 2.84 1.54 1.51 2.63-2.52 1.2-1.83-1.02-2.19 2.26-1.64-1.57-3.55 3.54-8.33 5.4-.62.93.51 5.12 2.5 1.8.3 3.95 2.31.33 3.47-.67 2.44-1.88 1.04 2.42 3.56-.57.2 1.74 2.34 2.15 2.65-1.08 2.54-2.54 2.84 2.68 6.81-3.03 2.23.08 1.74-.99-.28-1.34 1.92-2.78 2.97 1.32 1.88-.94 2.51 3.41h2.48l-.18 2.32 2.08 1.16 2.13-3.81 3.1-.71 1.95.78.35-1.34 2.12.22.74-6.56 2.43-1.96.35-2.07 2.01-.16 1.89-2.87 4.38 1.8.4-.55-1.71-2.28 3.97-3.05 1.31.49-.37-2.14-4.19-3.57.36-2.92 2.42-2.74 4.73-3.93-1.55-2.68-1.12.21-1.81 3.53-2.13-1.77-4.37 1.66-3.16-.52-.89 1.29-4.67-1.44-.67-2.27-4.88 2.99-7.13-3.29-1.3.61-3.1-1.16-3.13 1.68-2.2-1.72-.53-2.82-1.04-.49-5.08 2.31-2.12-2.03-2.37.15-1.69-2.01-4.84-1.23.16-3.46-1.12-1.84-4.55-.69-3.15-2.15-.93 1.07-2.45.2.18.9 1.12 1.66zM290.31 133.37l-1.45.49-.8 2.3 1.63-1.19.62-1.6zM209.72 104.19l.55-1.7.16-4.37 1.78-2.41v-1.83l1.75-3.29.89.69.53-1.89 1.64-1.8 1.08-3.55 3.27-.38 1.14.94 3.39-1.84 1.91-1.84.32-3.49 2.56-1.63.08-1.88 3.11-1.03.77-2.81-3.05-1.88-1.04-1.57-2.64-.74-1.86 1.24-1.41-2.11 1.61-2.41-1.38-4.05 3.54 1.56 2.54-.69 2.42.73 7.31.37 3.64-2.62.38-.86-2.32-3.48 1.26-.78.42-2.8-.55-2.99.49-1.67-4.9-.73-2.46 1.89-.83-3.22-6.24-2.39-1.07-1.98-3.77-.79-.82-2.07-4.03.46-.96 3.41-1.82 1.52-1.75-1.23-4.2-.09 1.27-3.73-5.02.95.96 1.44-5.64.72 2.69-3.65-1.96-3.72-1.05.05-5.21 2.68.18 1.98-5.63-.5-2.78 2.08-1.32-2.16 1.04-1.45-.75-.03-.47 1.72-4.97-.29.2-.98-2.51 1.57 1.22-5.84-.37-.83-1.49 1.77-.64-.68.06 2.09-2.58-1.34-1.03 1.95 1.46 2.26.39 3.14 1.5 2.67v2.9h1.8l2.27 3.64-3.6 5.14-5.03-3.62-1.87 2.13-2.95-4.97.56-2.92-1.49-3.29 2.95-2.94.49-2.66-1.69-4.17 2.07-2.88 5.54-1.21.44-2.81 1.16-.99 2.39-4.57.17-3.15 1.54-1.25-1.93-5.85-3.14-1.54-2.35.71-3.15-1.81-2.52.43-1.31.38-.4 2.09-3.04.25-1.1 1.47-6.87 3.61-1.56.28-1.97 1.93-4.91 2.38-3.05 3.21-2.9 1.14-1.06 1.93 1.01 4.42 1.37 1.29 4.07 1.34 4.13-.45 2.99-2.05 1.24 5.03-1.28 2.27-2.73-.34-4.87 1.41.22 2.32-1.28.76 2.47 1.58 1.67 3.8-3.3 1.41-.99-.7v2.4l1.42 2.48-2.92 1.94-1.83-2.67-1.73 1.52-1.62-1.09-3.65-.38-1.06-.66-.32 3.01-2 1.44-.57 1.79-3.38 1.21-1.44 1.7-2.19-.59-2.02-2.66 1.28-2.44 3.14.87.95-1.5-.91-1.29 1.03-2.16-1.1-2.28 2.38-1.58-1.44-4.04-4.87 1.02-4.5-.62v-4.04l1.74.17.4-1.94-2.2.16-.92 2.6-2.17.49-1.88-1 .03 1.12 2.34.32-.36 2.53-3.08.32-1.01 1.97 2.13 1.73-1.8 2.89 1.74.37 1.66 4.27-1.13 2.49.32 3.77-2.19 3.62-4.3 2.15-.43 1.47 3.53 1.68-5.24 2.45-2.05.31.42 2.2 1.65 1.56-1.74 3.11-4 2.47-1.24.3 3.53 2.75h-3.55l-.06 2.05 1.02 2.36-.21 1.86.7.31 3.65-1.71 1.6 1.91.23 3.89 2.95 2.04 3.07.07 2.8 1.28 1.32 2.16 2.8 1.01 3.68.31 5.84-.32 3.78.78 1.53 5.04 3.78-.28 2.72-1.39.38-2.44 1.68-1.28 1.2-3.03 5.88-2.65 1.67.46 1.9-1.3 2.53.18 1.78 1.59v3.39l-1.91.71.56 1.11 3.39.28 5.22-.91 6.18-3.51 1.05 2.44 4.16.57 3.11-.48.3-1.13 5.04-1.42.53-1.14 3.44.47 2.2 2.51 4.23-.63.71.95 2.35-.2 3.33-1.75 4.18 3.49v1.2l3.66.57z"/><path class="cls-4" d="M268.37 79.55l2.47-3.11-.25-.98-3.49-.38-1.66-2.97-.35-3.75-1.37.3 1.21-4.01-.24-.64-.81 1.02-2.61-.5-1.53-4.27-2.43-2.04-.61-2.26-2.4-1.05-2 3.41-4.38.68-2.39-1.3-.38.87-4.15 2.99-7.86-.42-2.2-.66-2.6.72-1.76-.78.8 2.34-1.51 2.26.47.7 1.41-.94 3.44.97 1.13 1.7 3.5 2.17-1.1 4.06-2.97.98-.07 1.71-2.59 1.65-.3 3.36-2.35 2.24-4.04 2.19-1.34-1.09-2.19.25-.95 3.14-1.63 1.79-.87 3.1-1.13-.87-1.06 2v1.91l-1.8 2.43-.18 4.26-.52 1.62.09.01-.28.59-.12.38-.06-.01-.83 1.74-2.3 1.38-.71 2.44 1.85 1.4.43 4.38-.84 1.19 1.6-.06v5.75l-3.35 1.64v.79l1.79.24v4.73l-1.65.43.34 1.11 1-.67 3.27 4.2 3.32 2.13-1.22 3.09-2.31 1.74-2.55-2.24-2.47 2.13-2.18 4.58 1.25 2.26-1.24 2.48 1.09 1.69 2.51-.15 3.53 3.75 1.28 3.09 2.93 2.69.79 4.47.64.74 1.58-.96 4.14.53.64-.99 1.67-7.07 3.55-1.78 2.76-3.21 1.06-2.7 2.86-1.08 1.27-4.38-1.05-1.88.07-4.68-2.33-2.33-.08-4.63-3.76-2.78 2.53-3.98 5.55 2.86.85 1.83 1.25-.75 3.94.91v.78l1.29-.85-.27-1.82-1.03.17-3.81-1.51.08-6.74-1.4-2.26v-6.25l2.18.27 1.57-1.7 1.88-3.77 5.43-.51 1.84 1.03 1.62-.87 1.42-3.61.98.29-.42-2.3 2.48-5.87 1.15-.45-.68-2.04 1.59-4.45 6.31-4.48-.33-1.23-.33-.28.2-.17-.35-1.31.93.82 3.21-2.73zM334.93 96.45l.32.04.35-1.83-.28-.44-.39 2.23z"/><path class="cls-4" d="M334.76 11.38l-5.36 4.45-2.13 2.43-.26 2.06 4.06 3.45.72 4.25-2.43-.91-2.73 2.09 1.56 2.08-.97 1.33.07 1.97 1.87 3.51.17 6.09h-1.71l.57 1.09-1.29 3.79-1.22.81.57 1.55-2.92 1.3.08 1.4-3.59 1.67-.48 2.15-3.12.92-3.09-1.47-1.06 3.13-5.71 1.82-1.99 2.41-2.36 1.42-1.71-2.57-1.03-.23-.35 1.53-2.21.49.74.75-1.04 2.88.76 1.28 2.18.15 2.1 2.18 5.52.25-.74 4.19 3.05 1.71.46 1.29 2.56 1.11-.53 1.58 2.52 3.02-2.41 1.57 4.78 2.63.95 2.12 2.14-.91 1.58 2.67 2.39.39 1.19 2.98 3.28-.81 4.19-3.36 3.27-6.54 1.79 2.29-1.22 2.27 1.06 2.63-.31 2.15.78 1.4 1.51-2.14 1.37.83-.11-1.75 2.37-2.37-.43 5.88.34-.12 2.11-8.54 1 .16-.38 6 .98 1.75 1.74-1.95 2.06 1.1.89-.84-1.49-4.16.88-.7.07-3.57-3.45-10.59.51-1.82-1.82-1.97.1-2.4 1.22-1.58-3.66-.67-.57-1.37.99-2.7h-.26l-3.53-3.45.78-4.46 1.84-1.11-.83-4.01.87-1.06-1.35-.81-2.71-.27-5.87-3.02-2.37-2.98 3.12-6.33 1.95 1.25 1.33-2.74v-2.57l3.2-.54 5.03.14.44-1.58-1.81-.33-1.37-2.82-1.17.56-2.86-.54-2.02-2.75-3.06-2.35-1.75.7-1.28-2.96 1.35-4.65 2.3-1.35 1.89-3.91-2.16-.27 1.08 1.85zM193 275.06l1.01.25.09-.42.33-.81-1.61-.48.18 1.46z"/><path class="cls-4" d="M320.7 94.78l-1.37-2.31-2.23.95-1.23-2.71-4.96-2.74-.26-.14-.75-.41-2.62-1.54-1.97.24-5.58-3.82-.98.61.73 1.64v5.47l-1.14 1.81-2.99.42v-1.88l-1.31.76-4.26-1.47-3.42 2.55-2.12-1.44-2.8-.1 2.04-3.62-.42-3.06-2.02 1.17-6.25.15-1.84 1.77-4.99-1.02-1.88-1.64.12.44-6.62 4.72-1.37 3.81.88 2.63-1.66.64-2.19 5.2.67 3.62-1.67-.49-1.23 3.09-2.43 1.31-2.05-1.15-4.55.43-1.75 3.44-1.97 2.14-1.56-.19v4.81l1.41 2.27-.08 6.34 2.9 1.14 1.77-.29.51 3.48-3.39 2.26v-1.87l-2.76-.64-1.87 1.12-1.17-2.54-4.42-2.28-1.53 2.41 3.41 2.51.08 4.72 2.34 2.35-.08 4.83 1.13 2.01-1.53 5.28-2.91 1.1-1.02 2.51-2.95 3.43-3.31 1.65-1.64 6.86-.38.59 2.08.1 5.86-3.61 2.26-.93 3.31.93 1.08-.65-.35-2.5 1.11-4.24 1.81-2.51 3.11 4.24-.09.61 2.6-1.53 4.12-.65.56-1.93-.98-2.13 2.01-2.68 1.43.33 2.66-1.9-2.07-2.76 3.53.54 3-3.26 2.16 3.55 1.13-1.37 2.01 3.94 4.09.29 2.41-.5 3.45-3.98 3.06-2.55 1.45.69 6.39-6.31-1.69-.23 2.33-4.48 4.34-3.34 2.41.63v2.71l2.35-.92 5.68-1.56 5.17-2.62 1.56-3.66 3.68-1.92.77-4.06 3.53-2.94-2.99-8.81 1.41-3.11 2.52-2.9 2.4-1.55 4.05-1.1-.93-2.32-2.29-.38zM409.1 26.16l-.34-1.66-3.62-2.44-.08-1.58-3.33-2.64-4.06 1.72 1.08-7.08-1.06-.3-3.93 1.26-1.5-.68-1.54 2.31-2.29-.84-1.45 2.91-1.9.57-2.94 2.65-.45-2.75-2.48.8-1.15-2.05h-3.12l-4.3 1.37.1-1.52-2.31-.38-3.56 1.24-2.32 2.83-.33 1.71 1.2 2.05-3.05 2.96.44 1.98.79-.26 7.76 2.2 6.16-.78 1.37.38 6.77-1.63 3.99.93 8.74-1.56 5.43 1.63 1.12.93 2.55-2.69 3.61-1.59zM199.78 247.15l-4.73 2.8-.71 1.71-2.52-1.49-3.4-.47-.35 1.58-3.1 1.39-1.76 1.93-4-.9-3.76.66-1.09.84-1.09 3.88-3.37 2.93-3.57-2.55-2.91-1.49-4.1-.21-1.77 3.09-1.58.07-.57 1.55.94 1.43-2.12 4.46 2.53.06 2.17 1.98-2.06 3.18-3.24.77-1.06 2.11-3.27-.17-3.25 1.11-2.79-.79-1.61 3.07-7.28-.87-1.41 1.32-1.31-.18.13 1.28 2.49.71 2.83 2.26-1.53 1.8 2.78.12 2.54 3.36-1.27 1.9 1.84.83 1.29 1.84.25.21-1.36 2.89.29 5.36 2.08 1.2 3.85-2.21 1.84 3.21-.94 2.78.61 1.68-1.33 5.97 2.42.55 1.29 1.78-2.82 7.16-1.43 1.91 1.44 2.5-1.25 2.96 1.73 3.06-2.25 4.31-.35.14 2.88 2.27 3.21.86 9.59-5.06 1.09-1.85-.23-3 2.37-5.78 4.04-2.8 3.02-.4 6.13-2.44 1.12.09-2.4-3.06 1.41-3.9 4.06-5.47 1.14-.95-.77-2.3 3.23-3.23 3.7-.34 4.12 1.03-.07-8.6-2.62-1.97.95-2.01 1.66.14-.13-5.33-3.19.93 2.28-3.19-.6-2.62 1-4.22-1.72-.43-.45-3.69 3.09.92.2-.87 5.19-8.06 1.29-3.48 1.03-7.14.82-2.25-.14-3.8-.8-.44-2.53.08z"/><path class="cls-4" d="M193.09 292.3l1.33.99-.05-1.54-.98-.08-.3.63zM276.19 146.26l-3.6 4.15-2.88.59-4.8-.33-1.57-3.08-1.05 1.28-2.21-3.62-2.45 2.67-1.61-.25 1.2 1.61-3.88 2.77-1.22-.29-1.26 1.68.89 1.92-.85 2.91-4.66.73-4.2 2.54.38-2.35-2.04-2.77-.94 1.3-.96 3.79.42 2.96-2.03 1.22-3.4-.95-1.9.78-6.02 3.72-2.98-.15-.01.02-.3-.04-.86-.04.04-.06-3.31-.42-2.01 1.22-1.38-1.6-.78-4.41-2.83-2.6-1.34-3.22-3.04-3.19-2.63.16-1.4-2.17-3.01.3-3.57-2.81 1.01-1.01-.45-3.16.62-6.16-.51-1.22-2.97-1.98-5.34 1.16-4.24-2.01-3.39 1.29-3.48-3.79-3.87-.87-1.05.52-1.32-.91.59 1.41-1.83 4.83-2.2 1.89-.19 2.34-4.65-1.2-1.13 3.34-1.18 1.11 2.68 3.86-3.68 2.76-.67 2.32-1.54.32-1.39 2.57.51.79.19-.04.06.42.34.53-.26.05.98 6.64-2.06 1.99.38 1.23-1.67 1.74 2.41 1.18 2.83-.6-6.27 6.99 1.41 3.11-1.03 5.84.34 2.55-2.61 2.09 3.61 1.23-.34 7.31-.87 1.2-5.39-.24-1.54 1.18.75 3.64-2 2.93.8 2.32 1.37.89.45 3.56-2.15 2.71-4.5-1.6-.49 1.06 1.75 1.22-1.56 4.78.12 1.53 3.46 2.33-1.49 1.31.59 1.81 1.83.36 1.69-1.93 2.42.19 4.49 3.25-2.82 1.27.98 3.79-.81.44.48.13.87 2.46 2.19-.56 3.21-2.14v-1.33l3.66-.56-.27 2.16 1.64-.79 1.15 3.88 1.41 1.48 3.51.17-.33 4.14 3.87 2.99-3.01 5.34-2.95 1.58-.15 1.16 2.7 1.92 2.54-2.21 1.1-3.91 1.55-1.19 4.2-.74 3.63.81 1.51-1.65 2.82-1.26.44-2 4.53.62 1.69 1 .39-.94 5.24-3.11h.07l-1.3-2.35 2.21-2.88.85 1.42.22-2.38-1.23-2.67-.64-4.92 1.22-5.43-1.44-2.56-1.02-5.61.75-5.44 3.12-6.75 1.77-1.98 3.54-1.93 4.37-.09.34 1.89 1.02-2.2 2.02.93 2.37-2.17 1.67-6.1 3.17-1.32 6.08 1.09 3.88-1.49 5.14-2.98.32-1.73-.79.6-1.51-.57.18-.98h.89l1.2-.22.17.4.33-1.76-1.64-.08.68-3.68 3.24-3.39 4.22-2.61 3.08-1.15 5.71-3.28 3.81-5.58 2.69-2.66 7.75-4.15 1.16-1.84 4.68-4.83 4.01-5.33 1.57-2.89-.7-.33-2.52 2.1zM359.23 6.51l-.6-2.89-4.57.33.3-.99-3.91-1.15-4.07.88-3.84-2.85-2.52-2.74-3.11-.28-2.28 1.81-4.58-.76-1.35-1.35-.21 1.47 1.77 1.77 1.81 4.7-.91 3.12 1.26-.23 1.04 1.8 1.85-2.19 4.87 2.64 2.55 2.92 2.27-.29-1.99-1.56 1.39-2.15 3.09 2.12.85 3.57 3.46 2.09 2.6.25v-2.94l1.76-.96 2.41-2.56.66-3.58zM445.17-9.59l-1.72 1.66-1.9-.15-3.18 4.16-3.15 1.54-1.95 3.74-1.48-.81-1.04 3.04-2.33 3.61.08 4.37-1.43 2.06-2.94 1.02.14-1.28-5.66 6.55 2.1 2.53v1.36l2.11 1.12 2.54-4.19-.27-2.04 4.24-.63 3.17.7 1.63-.41 4.7-4.41-.4 4.18 1.47.74 1.46-.83 3.4-4.65-.47-3.46 2.16-2.46-2.04-3.2-.58-4.45 1.14-2.79 1.82-.98-1.05-3.5-.57-2.14zM402.42 45.66l-1.57-.46.43-2.71-1.19-1.46-.32 1.75-3.04 1.33-.69 4.02-2.76-1.56-1.37.54-.98 2.28-3.16.08-.2 1.62-1.96 1.8-.87 5.08 1.67 2.48 1.6 5.73.19.21-.21-3.34 2.65 2.19 2.11 3.67 2.63-2.25-1.12-3.13.87-2.12 2.18-2.41-.5-5.37 1.95 2.07 2.15-1.57 1.63.27.63-2.21-.37-5.94-.38-.59z"/><path class="cls-4" d="M401.99 44.48l.8.24 2.23-.27.67 1.67 2.09-1.66 1.86-5.05 1.92 1.92 2.56-.51.98-3.07v-4.68l1.22-.08 2.67-7.9.7-1.12v-1.15l-2.41-2.92 8.36-9.66-.33 2.93 1.11-.38 1.06-1.53-.08-4.35 2.47-3.82 1.34-4.02 1.64.9 1.63-3.12 3.23-1.57 3.37-4.41 2 .16 1.8-1.74-.02-.07.27-.17.58-.57.05.16 3.14-2.05 1.87-2.9 1.93.7 3.82-1.3 1.2-1.45-.26-.64-1.48 1.23-.5-3.56-2.29-2.86 2.18-4.91-3.02.41-2.57 1.94-3.78.55-13.08 7.21-3.42-.54.19 1.82-5.88 6.66-.16 1.97-2.25 2.11-3.93 1.56-1.53-.64-5.76 1.16-3.47-1.38-9.48 3.39H395.27l-.64 1.28-2.53-.25-3.08 1.61-3.13.42-1.76-1.06-1.9 1.89-1.5-.53-7.71 1.32-2.35-.09-3.32-1.73-2.93 1.18-1.36 1.76-3.42.57.62 3.01-.75 4.06-2.39 2.54 3.12 4.33-.74 1.81.99 3.57-.11 2.39 1.76-1.72-.99-1.69.45-2.34 2.67-3.25 4.07-1.41 3.47.56-.06.97 3.11-.97h3.8l1.03 1.85 2.82-.91.33 2.08 1.73-1.56 1.69-.52 1.67-3.32 2.39.87 1.57-2.36 1.93.88 3.86-1.24 2.21.63-.95 6.17 2.95-1.24 4.16 3.29.08 1.53 3.54 2.39.59 2.86-4.18 1.84-2.33 2.46 1.78 1.23-2.18 2.5-2.01-.9-1.01 5.84 2.02 2.48-.36 2.28z"/><path class="cls-4" d="M437.56 16.52l-2.93 2.76-2.11.53-3.22-.71-3.08.46.19 1.39-3.22 5.32-2.81-1.48-.5.79-2.81 8.37-.96.07-.02 3.96-1.07 3.35.15 5.12 1.46.61 3.06-.15 1.27-1.07 1.8 2.13 2.32-1.02 3.46 1.05 3.34.08 1.49.93.99-2.37 1.19-6.04 3.09-7.6 1.14-.92 1.4-5-.46-1.72-2.65-1.82 1.23-3.84-1.95-.97.21-2.21z"/><path class="cls-4" d="M416.45 48.08l-2.28-.95-.15-5.26-2.79.56-1.19-1.19-1.41 3.83-3.37 2.7-.89-2.22-.76.09.18.29.4 6.37-.78 2.74v1.55l2.2 5.8-.32 2.23.74 3.64 2.82 4.68 2.11 9.5.18 2.7.33-.23.38-3.08 3.71 2.5 1.56.28.45-3.75 1.98.08.06-3-1.3-2.15-.74-5.05 1.44-2.05-.98-2.58 3.08-.53.92-1.78.16-9.3-1.07-1.56-1.6-5-3.07.14zM50.1 40.67l.18 1.77 2.5 1.59-3.84.97-3.03 2.29-3.72-1.46-.42-2.32-6.37 1.48-2.65 2.42-5.41-.85-1.62-1.78-4.57-.52-5.54.08-1.07-1.22-2.14.23-.55 6.03-5.29-.59-4.01 1.79-.33 1.19 2.03 1.94-1.39.67 1.01.19 1.6-1.84 4.12-2.15 3.2-.55.33.94-6.64 3.69.74 2.16-1 1 2.72 2.21v2.51l3.69 3.32 5.91 3.68 7.62 2.32 2.07-1.78 6.3-1.23.66-1.04 2.66 1.14 1.67-3.9L41 68.54l-2.97 2.21-3.91 6.14-3.8.17-3.39 2.03-.79-1-2.25 2.17-.93-1.7-.82 1.25L16.55 81l.09-2.44-3.1-.36-.43 1.33 3.67 5.91 6.82 7.13 6.72 9.05 4.49 4.33 3.25 2.34 4.84 2.2h1.86l.19-.55.7.14 7.83-2.22 10.96-5 .14-1.89 2.54-2.94.97-2.76-1.69-2.21-2.69.25-.41-2.72 2.76.46-.47-2.23 3.2-1.6.15-2.66 2.94-4-.38 3.27 2.16-.31 6.1 1.35-2.87 2.09-1.92-.96-1.2.64-.66 2.51 2.1.32-1.85 4.58.87.39 6.85.4-6.75 4.05-.84 1.49.51 1.81 2 1.41-.49 2.35 2.59 3.28.42 3.27-1.08 4.69.73 1.86-1.59.21-1.06 1.45-.63 2.74.33-.11 2.36-.3-.68-1.48 3.85-2.53 1.55 4.03 1.53-1.08 1.17.29.06-3.01 1.76-2.79-1.55-2.04 2.19-1.96 3.02 3.11 2.34-.52 1.95-2.72-.49-3.21-2.98-2.98 2.25-3.37 1.96-.07.74-1.79 4.1-1.35-2.94-.6-3.29.76-1.54-2.65 1.5-.8-.16-3.41 5.59-1.89.18-1.65-1-2.31.1-3.26h1.59l-2.86-2.23 3.2-.77 3.56-2.23 1.22-2.19-1.31-1.25-.56-2.95-1.32-2.11-4.35-3.82-2.2-1.39-3.45-.26v-2.9l-4.24-3.91 1.32-2.96-.73-2.17-1.71 1.36-3.06-4.17 1.14-2.45-.63-2.59-.63.08-1.46 2.42-3.43-.63-2.85-2.26-2.05 1.33-.61-2.02-5.47-3.58-1.67.66-6.69-.95-5.05.63-2.94-1.17-1.45 1.39z"/><path class="cls-4" d="M54.62 39.41l4.93-.61 6.55.93 1.92-.75 6.21 4.06.33 1.09 1.53-1 3.22 2.56 2.5.46 1.35-2.25 2.01-.24.93 3.81-1.04 2.22 2.08 2.84 2.03-1.6 1.3 3.91-1.18 2.65 4.03 3.73v2.4l2.77.21 2.51 1.59 4.54 4.01 1.22 1.98 2.17-.33 3.09-1.46-2.38-1.13.81-2.73 4.43-2.22 1.86-3.08-.31-3.71 1.06-2.34-1.3-3.36-2.62-.57 2.09-3.35-2.08-1.69 1.64-3.18 2.84-.3.11-.74-2.18-.3-.12-3.71 3.1 1.64 1.26-.28.95-2.7 4.19-.31-.85 4.14-1.53-.14v2.04l3.45.47 5.56-1.16 2 5.61-2.3 1.54.92 1.92-.98 2.06.95 1.36-1.7 2.7-3.08-.84-.6 1.14 1.41 1.87 1.24.33 1.2-1.41 3.17-1.13.52-1.64 1.9-1.36.45-4.16 2.22 1.37 3.67.39 1.19.79 2-1.75 1.91 2.78 1.3-.86-1.08-1.89v-4.61l2.12 1.48 1.84-.78-1.13-2.58-3.6-2.31 2.14-1.27-.24-2.51 5.88-1.7 2.26.28.75-1.32-.79-3.23-2 1.37-4.6.5-4.49-1.48-1.76-1.66-1.16-5.09 1.42-2.59 3.03-1.19 3.11-3.22 4.91-2.38 2-2 1.79-.33 6.45-3.41 1.24-1.65 2.73-.22.37-1.96 1.71-.49.43-.94-1.52-.36-2.08.69-4.33-.55-6.43 3.02 2.03-3.64 3.05-1.1-2.9-1.69 2.88-2.27-.53-1.65-2.27-1.13-1.94-3.19-.79-4.42-2.71-.05.36.89-3.8 1.85.76-8.9-.86-1.35-2.94 2.14-1.96 2.33-2.11-2.21.11-1.33-3.43 1.17-.3.58.9 3.75-4.49-.2-1.18-2.65 1.38-2-1.82-.86 2.74-1.13-2.43-3.63-1.71-.54-2.98-4.27-1.95-7.01-1.56-4.54-3.77.82-3.94-3.18-3.5 1.14-1.55-2.89 1.3-.55.13-4.45-2.59.4 1.95-2.81-.26-1.07-10.29-1.3 1.75-3.13-.08-.31-2.97 2.19-5.69 1.8-2.61 6.8-6.01 9.01-8.6 3.75-2.05 2.27-2.12 5.19-2.86 2.15-1.62 2.12-.75 2.77-5.27 1.25-4.05-.23-8.12 2.29-2.25-1.04-.96-3.65-2.42-1.94-1.51.26-4.24 3.42-1.53 3.46-3.1 3.25-4.75 3.6-1.24 2.26-1.03 4.14.43 1.11 4.58 3.1 3.91.16 2 1.52-1.09 6.72-1.31 3.37 2.68 4.99 1.28.45 4.96-.08-.17 5.29 3.11 5.6.31 2.51 2.23 5.58 2.79 1.11zM146.55 332.07l1.25-2.96-1.52-2.64 1.79-2.4 2.53-6.45-.74-1.03-3.04-.69 1.48-6.66-.63-1.74.92-2.68-1.12-1.94-3.47 2-3.06-1.76-.34-6.17 1.14-2.4-3.15-2.52-.49-.21.08-.12 1.46-2.19-1.82-2.4-4.39-.19 2.21-2.58-1.85-1.48-2.96-.84-.31-3-.02-.24.51.07 2.18-.76-5.5-4.76-3.82.16-1.53-2.25-2.27-.61-2.32-2.01-.1.1-2.59 2.6v1.62l3.86 4.38 1.43 3.9 1.31.93 2.47 6.06 1.49 6.02 2.24 4.55 3.16 9.39 2.13 1.34.98 4.42-.9.41-1.59-2.14.63 5.17.84 3 3.38 7.74 7.63 9.4 1.75 1.28.57-.22 1.81-3.49-1.7-3.01zM147.05 239.82l.25-2.4 4.45 1.24-1.66-1.87-3.03.08-2.33-1.35-.41-1.62-.63.11 2.19 4.11-.72 1.7h1.89zM113.6 271.08l.12.03.49-.38.46-.46-1.04.23-.03.58zM78.18 121.93l1.24 2.66h2.04l.08-.68-1.29-3.35-2.07 1.37zM115.75 266.88l-1.97-5.39-2.67-.59-2.81-2.59-.73.07 1.45 3.49 3.73 7.79 2.17-.49 2.76-.61-1.93-1.68z"/><path class="cls-4" d="M92.53 205.07h2.2l1.57-2.27 2.5.15 2.45-5.79-.18-2.09-2.21-.57.36-2.22-2.09-3.41h2.6l1.58-2.01 2.11 1.77 1.58-.64.39-1.83 2.93-.75-.14-1.55 2.55-2.17 3.49 1.62 1.52-1.45 6.06-.15.48-1.61-1.59-5.48 1.62-2.05 3.03 1.97 1.61-.76 1.22 1.71 4.56-.98 1.69.53-.21-4.29 3.79-3.08 2.73 1.21 3.4-4.31.16-3.25 3.63-.99 4.05-4.98 2.46 3.47.97-.19-.61-.94 1.89-3.51 1.41-.3.59-2.05 3.17-2.38-2.62-3.78 1.63-1.54 1.36-3.98 4.38 1.13.13-1.55 2.32-2 1.6-4.21-1.75-4.21 3.66 2.52.82-.41 4.54 1.01 3.23 3.52 3.15-1.2 4.33 2.04 5.41-1.17 3.58 2.38.73 1.74-.63 6.3.5 3.54-.56.56 2.36 1.86 2.63-.27 1-2-1.24-2.26 2.5-5.23 3.29-2.86 2.6 2.28 1.42-1.07.81-2.05-2.81-1.84-2.75-3.52-1.34.89-1.06-3.41 1.92-.5v-3.06l-1.79-.24v-2.31l3.35-1.64v-4.07l-2.6.1 1.81-2.55-.35-3.57-2.05-1.56 1.01-3.48 2.37-1.43.58-1.19-4.28-.67v-1.6l-3.29-2.75-2.91 1.53-3.11.27-.69-.92-4.18.62-2.32-2.64-2.32-.31-.41.88-4.93 1.39-.32 1.21-3.91.61-4.88-.67-.82-1.93-5.44 3.05-5.44.95-4.09-.34-1.31-2.63 2.3-.85v-2.23l-1.18-1.06-1.83-.13-2 1.36-1.76-.49-5.18 2.34-1.15 2.9-1.58 1.21-.4 2.55-3.36 1.72-4.79.35-1.59-5.24-3.07-.63-5.78.31-3.94-.34-3.2-1.16-1.34-2.2-2.34-1.06-3.16-.08-3.6-2.48-.24-4.06-.89-1.05-3.36 1.57-1.28-.56-4.98 1.68.15 3.3-1.14.6.64 1.09 2.78-.64 6.88 1.42-7.27 2.39-.82 1.95-2.09.08-1.49 2.25 2.62 2.63.61 3.95-2.42 3.36-3.27.73-2.74-2.81-.77.68 1.41 1.86-1.98 3.14-.09 4-1.95-.49-1.5 1.06-.18 1.47h-3.57l-.76-1.59-2.62.33-.8.29-1.14 3.77 2.34 12.19-.47 2.92 3.82-.09-1.89 2.15 1.7.53-2.88 2.11.8 3.65-.22 3.27 3.83 3.83-2.77-.66-.06 2.25 2.18 6.57.54 5.65 1.64 6.23.23 9.3 2.07 8.9 3.92 5.95 2.25-1.01 2.04 2.93z"/><path class="cls-4" d="M97.75 212.27l-.94-5.99-1.84-.19H92l-1.86-2.68-1.47.66 1.32 4.54 1.65 1.95.92 3.63-.56 1.35 2.58 2.98 2.07-.91 1.1-5.34z"/><path class="cls-4" d="M111.6 259.97l2.94.65 2.07 5.67 3.95 3.42 2.4.64 1.43 2.11 3.66-.15 6.35 5.48 6.66.8 1.67-3.17 3.28.92 3.14-1.07 2.8.14.97-1.94 3.31-.78 1.37-2.12-1.26-1.14-3.71-.1 2.55-5.35-.92-1.38.99-2.66 1.69-.08 1.81-3.15 4.94.26 2.5 1.28.17-1.26 3.14-1.69 2.44-4.32-3.61-2.78.29-3.65-2.87-.14-1.87-1.95-.88-2.97-2.25 1.08.35-2.68-1.48.23v1l-3.88 2.56-3.18.82-1-2.84-3.38-.94-.22 2.12h-4.34l1.14-2.67-2.63-4.92 2.95-.51.53 2.12 1.71.99 3.21-.08.63.71-.67-2.59 2.01-.91-2.84-2.05-1.63-.13-1.74 1.98-2.99-.58-.98-3.02 1.01-.87-2.77-1.88-.19-2.21 1.39-4.26-1.82-1.27 1.22-2.68 4.69 1.67 1.44-1.81-.33-2.67-1.28-.82-1.07-3.14 2.05-2.99-.81-3.84 2.35-1.78 5.21.22.37-.51.29-6.25-4.64-1.57 3.61-2.89-.28-2.14 1-5.68-1.55-3.44 4.64-5.17-.14.03-3.97-1.94 2.22-2.31-.4-1.26 2.15-2.06-.9-6.07-1.83.35-2.06-2.92-3.42 4.2-3.23.89-.15 2.83-4.08 5.19-2.88-1.28-2.91 2.37.25 5.22-2.82-.88-4.95 1.06-1.12-1.57-1.35.64-2.73-1.77-.72.92 1.52 5.26-.77 2.6-6.4.16-1.75 1.67-3.52-1.65-1.66 1.41.17 1.88-3.15.81-.38 1.75-2.63 1.07-1.78-1.49-1.23 1.57h-1.29l1.34 2.19-.27 1.68 2 .52.28 3.05-2.84 6.68-2.64-.16-.92 1.32 1.8.19 1.09 6.94-1.24 6.04-2.59 1.14v1.1l2.84 1.76.55 3.15 1.55 1.24 1.81 8.34 1.35 2.05 1.48 6.85 2.17 12.06.48 1.38 1.47-.14 2.95 2.71z"/></g></svg>