<svg id="Layer_1" data-name="Layer 1" xmlns="http://www.w3.org/2000/svg" viewBox="0 0 38 29"><defs><style>.cls-1{fill:#004165;}.cls-2{fill:#fff;}</style></defs><title>mobile-menu</title><path class="cls-1" d="M36.67 0H1.33A1.31 1.31 0 0 0 0 1.29v26.42A1.31 1.31 0 0 0 1.33 29h35.34A1.31 1.31 0 0 0 38 27.71V1.29A1.31 1.31 0 0 0 36.67 0"/><path class="cls-2" d="M29.58 7H8.47a1.87 1.87 0 0 0-.8.09v1.82a1.87 1.87 0 0 0 .8.09h21.11a1.87 1.87 0 0 0 .8-.09V7.09a1.87 1.87 0 0 0-.8-.09m0 6H8.47a1.87 1.87 0 0 0-.8.09v1.82a1.87 1.87 0 0 0 .8.09h21.11a1.87 1.87 0 0 0 .8-.09v-1.82a1.87 1.87 0 0 0-.8-.09M8.47 19a1.87 1.87 0 0 0-.8.09v1.82a1.87 1.87 0 0 0 .8.09h21.11a1.87 1.87 0 0 0 .8-.09v-1.82a1.87 1.87 0 0 0-.8-.09z"/><path class="cls-1" d="M36.67 0H1.33A1.31 1.31 0 0 0 0 1.29v26.42A1.31 1.31 0 0 0 1.33 29h35.34A1.31 1.31 0 0 0 38 27.71V1.29A1.31 1.31 0 0 0 36.67 0"/><path class="cls-2" d="M29.58 7H8.47a1.87 1.87 0 0 0-.8.09v1.82a1.87 1.87 0 0 0 .8.09h21.11a1.87 1.87 0 0 0 .8-.09V7.09a1.87 1.87 0 0 0-.8-.09m0 6H8.47a1.87 1.87 0 0 0-.8.09v1.82a1.87 1.87 0 0 0 .8.09h21.11a1.87 1.87 0 0 0 .8-.09v-1.82a1.87 1.87 0 0 0-.8-.09M8.47 19a1.87 1.87 0 0 0-.8.09v1.82a1.87 1.87 0 0 0 .8.09h21.11a1.87 1.87 0 0 0 .8-.09v-1.82a1.87 1.87 0 0 0-.8-.09z"/></svg>