<svg xmlns="http://www.w3.org/2000/svg" viewBox="0 0 61.125 62.5"><path d="M51.563 19.676v6.926h7.466M35.309 4.596L30.984.583l-4.34 4.013M10.78 19.266l-7.805 7.217c.195.074.4.12.618.12h7.186v-7.338l.001.001zM50.563 16H39.875V5.596h3V13h7.688M.875 28.557V59.97l16.854-15.777L.875 28.55m2.09 33.382h55.25L42.229 46.154l-22.396-.01m24.492-1.93l15.92 15.71v-30.43M17.438 11.06h18.437v3H17.438v-3zm0 6.463h18.437v3H17.438v-3zm0 6.463h27.47v3h-27.47v-3z" fill="#bfbfbf"/><path d="M11.782 42.624V5.596h30.702l8.08 8.08v29.688" fill="none"/><path d="M51.563 43.364h-3V15.09L41.07 7.596H13.782v35.028h-3V4.596h32.116l8.665 8.665" fill="#bfbfbf"/></svg>