<svg id="Layer_1" data-name="Layer 1" xmlns="http://www.w3.org/2000/svg" viewBox="0 0 20 14"><defs><style>.p-2{fill:gray}</style><mask id="mask" x="0" y="5.62" width="19.59" height="5.92" maskUnits="userSpaceOnUse"><g id="print-b"><path id="print-a" d="M19.59 5.62v5.92H0V5.62h19.59z" fill="#fff"/></g></mask></defs><path class="p-2" d="M6.46 0L3 3.46l.04 2.16.91-.01-.03-1.78L6.84.91h8.77l.03 4.71h.91L16.52 0H6.46z"/><path class="p-2" d="M6.2.46v2.73H3.46v.91h3.65V.46H6.2zM.42 12.91l1.82-1.67zm-.31-.34l.62.67 1.82-1.66-.62-.68-1.82 1.67zm19.06.49l-1.67-1.82zm-2-1.51l1.66 1.82.67-.62-1.66-1.82-.67.62z"/><path class="p-2" d="M0 13.51h19.59v-.91H0v.91z"/><path class="p-2" d="M1.56 7.64a.65.65 0 110-1.3.65.65 0 110 1.3m17.56-2H.46a.45.45 0 00-.46.41v5.05a.45.45 0 00.46.43h18.67a.45.45 0 00.46-.43V6.05a.45.45 0 00-.46-.44" mask="url(#mask)"/></svg>