<svg id="Search" data-name="Search" xmlns="http://www.w3.org/2000/svg" viewBox="0 0 12 17"><defs><mask id="mask" x="0" y=".71" width="10.94" height="10.98" maskUnits="userSpaceOnUse"><g id="search-gray-b"><path id="search-gray-a" class="search-1" d="M0 6.2V.71h10.94v10.98H0V6.2z"/></g></mask><mask id="mask-2" x="6.56" y="9.97" width="4.78" height="6.49" maskUnits="userSpaceOnUse"><g id="search-gray-d"><path id="search-gray-c" class="search-1" d="M11.34 16.45H6.56V9.97h4.78v6.48z"/></g></mask><style>.search-1{fill:#fff}.search-3{fill:#ddd}</style></defs><path class="search-3" d="M5.47 2.83A3.36 3.36 0 108.82 6.2a3.36 3.36 0 00-3.35-3.37m0 8.85a5.49 5.49 0 115.47-5.48 5.49 5.49 0 01-5.47 5.49" mask="url(#mask)"/><path class="search-3" d="M6.72 11.55l2.63 4.4a1.06 1.06 0 001.83-1.07l-2.63-4.4a1.06 1.06 0 00-1.83 1.07" mask="url(#mask-2)"/></svg>