<svg data-name="Twitter" xmlns="http://www.w3.org/2000/svg" viewBox="0 0 33 32"><path d="M16.45 0a15.91 15.91 0 1011.29 4.66A15.94 15.94 0 0016.45 0zM23 13.12v.37a8.9 8.9 0 01-9 9A7.91 7.91 0 019.22 21H10a6.34 6.34 0 003.92-1.35 3.17 3.17 0 01-2.94-2.21h.61a2.09 2.09 0 00.86-.12 2.81 2.81 0 01-2.57-2.82l1.47.37A3 3 0 0110 12.26a2.57 2.57 0 01.37-1.72 8.9 8.9 0 006.5 3.31c0-.24-.12-.49-.12-.74a3.25 3.25 0 013.19-3.19 3.35 3.35 0 012.33 1 5.42 5.42 0 002-.74 3.17 3.17 0 01-1.35 1.72 10.22 10.22 0 001.84-.49A7.6 7.6 0 0123 13.12z" fill="#fff"/></svg>