<svg xmlns="http://www.w3.org/2000/svg" viewBox="3036 385 48 48"><defs><style>.a{fill:#e87415;}.b{fill:#fff;}</style></defs><g transform="translate(2280 -872)"><circle class="a" cx="24" cy="24" r="24" transform="translate(756 1257)"/><path class="a" d="M789.742 1268.905a11.585 11.585 0 0 1-.2 11.51c-.7 1.19-1.365 2.4-2.074 3.585a7.225 7.225 0 0 0-1.057 3.613 4.884 4.884 0 0 1-1.2 3.1 1.745 1.745 0 0 0-.374.95c-.16 1.713-.268 3.426-.415 5.125a2.435 2.435 0 0 1-.2.83 7.246 7.246 0 0 1-3.826 3.172 2.258 2.258 0 0 1-2.516-.843 2.1 2.1 0 0 0-.63-.455 2.9 2.9 0 0 1-1.913-2.6c-.16-1.793-.268-3.6-.428-5.406a1.63 1.63 0 0 0-.375-.816 4.736 4.736 0 0 1-1.21-3.03 7.666 7.666 0 0 0-1.123-3.8c-.91-1.58-1.82-3.158-2.65-4.79a9.023 9.023 0 0 1-.965-4.47c.147-5.62 3.452-10.6 9.62-11.71a11.238 11.238 0 0 1 11.537 6.035zm-.83 10.438a10.1 10.1 0 0 0 .856-7.507c-1.19-4.724-4.938-7.962-9.555-8.03-9.14-.133-12.364 9.53-9.74 14.788.815 1.633 1.712 3.225 2.622 4.8a9.75 9.75 0 0 1 1.285 4.51 2.658 2.658 0 0 0 3.118 2.73c0-1.258.013-2.49 0-3.707a1.467 1.467 0 0 1 .575-1.285.74.74 0 0 0 .24-.535 19.233 19.233 0 0 0-.267-2.462c-.335-1.66-.763-3.292-1.1-4.95-.054-.242.147-.536.227-.79.227.12.63.213.656.36.133.763.628.856 1.257.843.468-.013.937.013 1.405.027.682 0 1.352.027 1.46-.923.012-.12.414-.294.628-.28.12.012.24.36.294.56.027.135-.08.295-.12.443a32.685 32.685 0 0 0-1.31 7.085c-.012.187 0 .468.12.535.7.415.71 1.07.7 1.753-.012 1.11 0 2.208 0 3.493a6.027 6.027 0 0 0 1.968-.56 3.13 3.13 0 0 0 1.174-2.52 8.32 8.32 0 0 1 1.124-4.082c.793-1.418 1.593-2.85 2.382-4.295zm-5.19 13.262v-.856h-7.71c-.107 1.016-.107 1.03.923 1.07.937.04 1.874.12 2.8.094 1.335-.055 2.647-.202 3.988-.31zm-.106 1.164h-7.43c-.2.668.054.882.63.9.735.012 1.47.093 2.207.066 1.512-.054 3.01-.16 4.537-.24.026-.365.04-.576.053-.727zm-.79 2.582c.55-.067.763-.254.63-.736h-7.203a3.927 3.927 0 0 0 0 .4c.013.12.054.254.08.415a28.44 28.44 0 0 0 6.49-.078zm.375 1.137h-6.733a1.466 1.466 0 0 0 1.325 1.123c1.338.04 2.676.04 4-.013a1.577 1.577 0 0 0 1.406-1.11zm-1.956-18.334h-2.757c.335 2.114.656 4.2.977 6.263h.8c.324-2.13.646-4.177.98-6.264zm-.094 11.576v-4.162h-2.627v4.162z"/><path class="b" d="M789.756 1271.822a10.037 10.037 0 0 1-.856 7.507c-.776 1.444-1.592 2.89-2.422 4.308a8.32 8.32 0 0 0-1.124 4.082 3.113 3.113 0 0 1-1.178 2.516 6.027 6.027 0 0 1-1.967.562c0-1.285-.014-2.382 0-3.493.012-.7 0-1.338-.7-1.753-.108-.067-.12-.348-.12-.535a32.685 32.685 0 0 1 1.31-7.08c.04-.146.147-.307.12-.44-.054-.215-.174-.563-.294-.563-.214-.013-.6.16-.63.28-.106.95-.775.924-1.458.924-.468 0-.937-.04-1.405-.027-.63.014-1.124-.08-1.258-.842-.027-.16-.428-.24-.656-.36-.08.267-.27.56-.228.79.348 1.658.763 3.29 1.1 4.95a18.725 18.725 0 0 1 .268 2.462.693.693 0 0 1-.24.535 1.5 1.5 0 0 0-.576 1.285c.013 1.218 0 2.436 0 3.707-1.94.08-3.038-.9-3.118-2.73a9.75 9.75 0 0 0-1.285-4.507c-.91-1.58-1.806-3.172-2.622-4.8-2.57-5.26.656-14.92 9.8-14.8 4.6.06 8.347 3.312 9.538 8.022zM783.72 1291.748v.856c-1.337.107-2.662.254-3.987.308a27.768 27.768 0 0 1-2.8-.094c-1.03-.054-1.03-.054-.923-1.07zM776.186 1293.77h7.427c-.013.146-.027.36-.067.722-1.526.08-3.024.187-4.537.24-.737.028-1.473-.053-2.21-.066-.56-.014-.814-.228-.614-.897zM783.453 1295.63c.134.48-.094.668-.63.735a29.1 29.1 0 0 1-6.476.08c-.027-.16-.067-.28-.08-.415a3.927 3.927 0 0 1 0-.4zM776.467 1297.49h6.73a1.59 1.59 0 0 1-1.404 1.11c-1.325.053-2.663.053-4 .013a1.466 1.466 0 0 1-1.326-1.124z"/><path class="b" d="M778.488 1279.156h2.757c-.32 2.088-.642 4.135-.977 6.263h-.8c-.338-2.064-.66-4.15-.98-6.264zM781.15 1286.57v4.16h-2.622v-4.16z"/></g></svg>